{
copyright = "Typeface (C) (your company). 2014. All Rights Reserved";
customParameters = (
{
name = description;
value = "This font was created using FontCreator 6.5 from High-Logic.com";
},
{
name = vendorID;
value = "HL  ";
},
{
name = glyphOrder;
value = (
    ".notdef",
    uni0000,
    uni000D,
    space,
    exclam,
    quotedbl,
    numbersign,
    dollar,
    percent,
    ampersand,
    quotesingle,
    parenleft,
    parenright,
    asterisk,
    plus,
    comma,
    hyphen,
    period,
    slash,
    zero,
    one,
    two,
    three,
    four,
    five,
    six,
    seven,
    eight,
    nine,
    colon,
    semicolon,
    less,
    equal,
    greater,
    question,
    at,
    A,
    B,
    C,
    D,
    E,
    F,
    G,
    H,
    I,
    J,
    K,
    L,
    M,
    N,
    O,
    P,
    Q,
    R,
    S,
    T,
    U,
    V,
    W,
    X,
    Y,
    Z,
    bracketleft,
    backslash,
    bracketright,
    asciicircum,
    underscore,
    grave,
    a,
    b,
    c,
    d,
    e,
    f,
    g,
    h,
    i,
    j,
    k,
    l,
    m,
    n,
    o,
    p,
    q,
    r,
    s,
    t,
    u,
    v,
    w,
    x,
    y,
    z,
    bar,
    braceright,
    asciitilde,
    exclamdown,
    cent,
    sterling,
    currency,
    yen,
    brokenbar,
    section,
    dieresis,
    copyright,
    ordfeminine,
    registered,
    macron,
    plusminus,
    uni00B2,
    uni00B3,
    mu,
    uni00B9,
    ordmasculine,
    onequarter,
    onehalf,
    threequarters,
    questiondown,
    Agrave,
    Aacute,
    Acircumflex,
    Atilde,
    Adieresis,
    Aring,
    AE,
    Ccedilla,
    Egrave,
    Eacute,
    Ecircumflex,
    Edieresis,
    Igrave,
    Iacute,
    Icircumflex,
    Idieresis,
    Eth,
    Ntilde,
    Ograve,
    Oacute,
    Ocircumflex,
    Otilde,
    Odieresis,
    multiply,
    Oslash,
    Ugrave,
    Uacute,
    Ucircumflex,
    Udieresis,
    Yacute,
    Thorn,
    germandbls,
    agrave,
    aacute,
    acircumflex,
    atilde,
    adieresis,

glyphs = (
{
glyphname = exclam;
layers = (
{
layerId = "B727121D-3B30-4656-AEE9-0CFAB48D4F65";
name = Regular;
paths = (
{
closed = 1;
nodes = (
"736 1928 LINE",
"748 1916 LINE",
"748 1900 LINE",
"737 1875 OFFCURVE",
"721 1821 OFFCURVE",
"700 1740 CURVE",
"676 1674 OFFCURVE",
"664 1629 OFFCURVE",
"664 1604 CURVE",
"656 1604 OFFCURVE",
"648 1576 OFFCURVE",
"640 1520 CURVE",
"633 1510 OFFCURVE",
"620 1457 OFFCURVE",
"600 1360 CURVE",
"592 1343 OFFCURVE",
"587 1317 OFFCURVE",
"584 1280 CURVE",
"571 1253 OFFCURVE",
"564 1219 OFFCURVE",
"564 1180 CURVE",
"556 1172 OFFCURVE",
"548 1129 OFFCURVE",
"540 1052 CURVE",
"533 1052 OFFCURVE",
"528 1015 OFFCURVE",
"524 940 CURVE",
"514 923 OFFCURVE",
"502 841 OFFCURVE",
"488 692 CURVE",
"488 657 OFFCURVE",
"471 640 OFFCURVE",
"436 640 CURVE SMOOTH",
"403 640 OFFCURVE",
"371 633 OFFCURVE",
"340 620 CURVE",
"321 620 OFFCURVE",
"297 613 OFFCURVE",
"268 600 CURVE",
"254 600 OFFCURVE",
"222 587 OFFCURVE",
"172 560 CURVE",
"156 568 LINE",
"160 736 LINE",
"160 908 LINE",
"168 1000 LINE",
"164 1012 LINE",
"175 1081 OFFCURVE",
"180 1148 OFFCURVE",
"180 1212 CURVE SMOOTH",
"180 1260 LINE",
"208 1560 LINE",
"215 1575 OFFCURVE",
"221 1625 OFFCURVE",
"224 1712 CURVE",
"237 1749 OFFCURVE",
"244 1795 OFFCURVE",
"244 1852 CURVE",
"257 1903 OFFCURVE",
"266 1928 OFFCURVE",
"272 1928 CURVE SMOOTH"
);
},
{
closed = 1;
nodes = (
"412 464 LINE",
"503 453 OFFCURVE",
"548 443 OFFCURVE",
"548 436 CURVE",
"599 418 OFFCURVE",
"632 394 OFFCURVE",
"648 364 CURVE",
"661 337 OFFCURVE",
"668 319 OFFCURVE",
"668 308 CURVE SMOOTH",
"668 296 LINE",
"655 229 OFFCURVE",
"642 196 OFFCURVE",
"628 196 CURVE",
"628 182 OFFCURVE",
"589 143 OFFCURVE",
"512 80 CURVE",
"497 80 OFFCURVE",
"483 73 OFFCURVE",
"472 60 CURVE",
"464 60 OFFCURVE",
"449 53 OFFCURVE",
"428 40 CURVE",
"368 20 LINE",
"284 0 LINE",
"248 0 LINE SMOOTH",
"227 0 OFFCURVE",
"186 7 OFFCURVE",
"124 20 CURVE",
"106 33 OFFCURVE",
"90 40 OFFCURVE",
"76 40 CURVE",
"25 88 OFFCURVE",
"0 128 OFFCURVE",
"0 160 CURVE SMOOTH",
"0 220 LINE",
"31 307 OFFCURVE",
"82 367 OFFCURVE",
"152 400 CURVE",
"152 405 OFFCURVE",
"160 408 OFFCURVE",
"176 408 CURVE",
"184 422 OFFCURVE",
"219 435 OFFCURVE",
"280 448 CURVE"
);
}
);
width = 792;
}
);
unicode = 0021;
},
{
glyphname = quotedbl;
layers = (
{
layerId = "B727121D-3B30-4656-AEE9-0CFAB48D4F65";
name = Regular;
paths = (
{
closed = 1;
nodes = (
"285 1829 LINE",
"285 1821 LINE",
"274 1728 OFFCURVE",
"268 1640 OFFCURVE",
"265 1557 CURVE",
"268 1481 OFFCURVE",
"273 1417 OFFCURVE",
"281 1365 CURVE",
"256 1344 OFFCURVE",
"190 1333 OFFCURVE",
"81 1333 CURVE",
"81 1328 OFFCURVE",
"69 1325 OFFCURVE",
"45 1325 CURVE SMOOTH",
"25 1325 OFFCURVE",
"12 1486 OFFCURVE",
"5 1809 CURVE",
"21 1833 OFFCURVE",
"110 1845 OFFCURVE",
"273 1845 CURVE"
);
},
{
closed = 1;
nodes = (
"705 1833 LINE",
"697 1541 LINE",
"705 1365 LINE",
"705 1350 OFFCURVE",
"625 1337 OFFCURVE",
"465 1325 CURVE",
"444 1375 OFFCURVE",
"433 1538 OFFCURVE",
"433 1813 CURVE",
"452 1834 OFFCURVE",
"540 1845 OFFCURVE",
"697 1845 CURVE"
);
}
);
width = 796;
}
);
unicode = 0022;
},
{
glyphname = numbersign;
layers = (
{
layerId = "B727121D-3B30-4656-AEE9-0CFAB48D4F65";
name = Regular;
paths = (
{
closed = 1;
nodes = (
"908 1320 LINE",
"972 1320 LINE SMOOTH",
"1003 1320 OFFCURVE",
"1020 1313 OFFCURVE",
"1024 1300 CURVE",
"1024 1068 LINE",
"1032 1060 LINE",
"1103 1071 OFFCURVE",
"1187 1077 OFFCURVE",
"1284 1080 CURVE",
"1300 1060 LINE",
"1300 1048 LINE",
"1308 972 LINE",
"1308 888 LINE SMOOTH",
"1308 864 OFFCURVE",
"1295 852 OFFCURVE",
"1268 852 CURVE",
"1044 840 LINE",
"1044 844 LINE",
"1033 841 OFFCURVE",
"1028 835 OFFCURVE",
"1028 824 CURVE SMOOTH",
"1032 552 LINE",
"1028 552 LINE",
"1036 540 LINE",
"1068 548 OFFCURVE",
"1155 556 OFFCURVE",
"1296 564 CURVE",
"1320 568 LINE",
"1327 568 OFFCURVE",
"1337 504 OFFCURVE",
"1348 376 CURVE",
"1348 352 OFFCURVE",
"1337 340 OFFCURVE",
"1316 340 CURVE",
"1228 328 LINE",
"1224 332 LINE",
"1164 328 LINE",
"1056 328 LINE",
"1036 324 LINE",
"1036 152 LINE SMOOTH",
"1036 72 OFFCURVE",
"1028 32 OFFCURVE",
"1012 32 CURVE SMOOTH",
"942 32 OFFCURVE",
"885 25 OFFCURVE",
"840 12 CURVE",
"833 12 OFFCURVE",
"826 19 OFFCURVE",
"820 32 CURVE",
"824 228 LINE",
"824 300 LINE SMOOTH",
"824 305 OFFCURVE",
"820 308 OFFCURVE",
"812 308 CURVE SMOOTH",
"736 308 OFFCURVE",
"656 301 OFFCURVE",
"572 288 CURVE",
"544 292 LINE",
"528 289 OFFCURVE",
"520 285 OFFCURVE",
"520 280 CURVE SMOOTH",
"520 140 LINE SMOOTH",
"520 63 OFFCURVE",
"512 24 OFFCURVE",
"496 24 CURVE",
"459 13 OFFCURVE",
"400 7 OFFCURVE",
"320 4 CURVE",
"316 0 LINE",
"312 0 LINE",
"300 32 LINE",
"305 65 OFFCURVE",
"309 144 OFFCURVE",
"312 268 CURVE",
"316 280 LINE",
"312 284 LINE",
"308 284 LINE",
"128 272 LINE",
"96 272 LINE",
"80 268 LINE",
"61 268 OFFCURVE",
"48 311 OFFCURVE",
"40 396 CURVE SMOOTH",
"32 468 LINE",
"52 484 LINE",
"92 484 LINE",
"288 492 LINE",
"304 500 LINE",
"300 548 LINE",
"300 748 LINE SMOOTH",
"300 783 OFFCURVE",
"296 800 OFFCURVE",
"288 800 CURVE",
"264 792 LINE",
"52 788 LINE",
"36 788 LINE",
"20 804 LINE",
"20 848 LINE",
"0 968 LINE",
"0 988 LINE",
"12 1000 LINE",
"84 1000 LINE",
"276 1008 LINE",
"284 1024 LINE",
"280 1052 LINE",
"280 1136 LINE",
"272 1288 LINE",
"286 1301 OFFCURVE",
"298 1308 OFFCURVE",
"308 1308 CURVE SMOOTH",
"316 1308 LINE",
"476 1312 LINE",
"495 1295 OFFCURVE",
"504 1283 OFFCURVE",
"504 1276 CURVE",
"508 1276 LINE",
"504 1248 LINE",
"506 1096 OFFCURVE",
"509 1020 OFFCURVE",
"512 1020 CURVE",
"516 1016 LINE",
"520 1016 LINE",
"520 1025 OFFCURVE",
"609 1033 OFFCURVE",
"788 1040 CURVE",
"796 1047 OFFCURVE",
"800 1055 OFFCURVE",
"800 1064 CURVE SMOOTH",
"800 1068 LINE SMOOTH",
"800 1143 OFFCURVE",
"796 1221 OFFCURVE",
"788 1304 CURVE",
"800 1316 LINE"
);
},
{
closed = 1;
nodes = (
"512 808 LINE",
"512 800 LINE",
"508 800 LINE",
"512 776 LINE",
"516 524 LINE",
"512 504 LINE",
"812 524 LINE",
"820 548 LINE",
"820 588 LINE",
"812 820 LINE",
"792 828 LINE",
"684 815 OFFCURVE",
"593 808 OFFCURVE",
"520 808 CURVE SMOOTH"
);
}
);
width = 1417;
}
);
unicode = 0023;
},
{
glyphname = dollar;
layers = (
{
layerId = "B727121D-3B30-4656-AEE9-0CFAB48D4F65";
name = Regular;
paths = (
{
closed = 1;
nodes = (
"749 1848 LINE",
"765 1836 LINE",
"761 1796 LINE",
"761 1712 LINE",
"773 1700 LINE",
"853 1700 LINE",
"998 1693 OFFCURVE",
"1080 1683 OFFCURVE",
"1097 1672 CURVE",
"1181 1648 LINE SMOOTH",
"1237 1631 OFFCURVE",
"1265 1615 OFFCURVE",
"1265 1600 CURVE SMOOTH",
"1265 1596 LINE",
"1245 1552 LINE",
"1225 1488 LINE",
"1165 1312 LINE",
"1117 1176 LINE",
"1113 1176 LINE SMOOTH",
"1097 1176 OFFCURVE",
"1076 1184 OFFCURVE",
"1049 1200 CURVE",
"985 1220 LINE",
"950 1233 OFFCURVE",
"886 1243 OFFCURVE",
"793 1248 CURVE",
"749 1256 LINE",
"745 1236 LINE",
"745 940 LINE",
"757 928 LINE",
"789 928 LINE",
"877 908 LINE SMOOTH",
"936 895 OFFCURVE",
"994 875 OFFCURVE",
"1053 848 CURVE",
"1102 831 OFFCURVE",
"1158 793 OFFCURVE",
"1221 732 CURVE",
"1256 685 OFFCURVE",
"1273 657 OFFCURVE",
"1273 648 CURVE",
"1280 648 OFFCURVE",
"1286 631 OFFCURVE",
"1289 596 CURVE",
"1298 596 OFFCURVE",
"1303 575 OFFCURVE",
"1305 532 CURVE",
"1305 428 LINE",
"1294 357 OFFCURVE",
"1268 289 OFFCURVE",
"1225 224 CURVE",
"1225 215 OFFCURVE",
"1197 183 OFFCURVE",
"1141 128 CURVE",
"1108 93 OFFCURVE",
"1074 67 OFFCURVE",
"1037 48 CURVE",
"990 15 OFFCURVE",
"941 -11 OFFCURVE",
"889 -28 CURVE",
"889 -33 OFFCURVE",
"872 -40 OFFCURVE",
"837 -48 CURVE",
"837 -54 OFFCURVE",
"817 -61 OFFCURVE",
"777 -68 CURVE",
"775 -73 OFFCURVE",
"758 -79 OFFCURVE",
"725 -84 CURVE",
"725 -184 LINE",
"709 -200 LINE",
"561 -200 LINE SMOOTH",
"547 -200 OFFCURVE",
"539 -196 OFFCURVE",
"537 -188 CURVE",
"537 -124 LINE",
"529 -116 LINE",
"505 -116 LINE",
"390 -105 OFFCURVE",
"304 -93 OFFCURVE",
"249 -80 CURVE",
"238 -80 OFFCURVE",
"215 -73 OFFCURVE",
"181 -60 CURVE",
"98 -36 OFFCURVE",
"46 -12 OFFCURVE",
"25 12 CURVE",
"25 16 LINE",
"45 156 LINE",
"52 156 OFFCURVE",
"57 195 OFFCURVE",
"61 272 CURVE",
"69 280 OFFCURVE",
"77 323 OFFCURVE",
"85 400 CURVE",
"93 400 LINE SMOOTH",
"103 400 OFFCURVE",
"140 376 OFFCURVE",
"205 328 CURVE",
"249 308 LINE",
"271 295 OFFCURVE",
"292 288 OFFCURVE",
"313 288 CURVE",
"313 276 OFFCURVE",
"368 265 OFFCURVE",
"477 256 CURVE",
"520 256 OFFCURVE",
"541 263 OFFCURVE",
"541 276 CURVE",
"537 288 LINE",
"541 436 LINE",
"541 612 LINE",
"526 627 OFFCURVE",
"491 639 OFFCURVE",
"437 648 CURVE",
"437 653 OFFCURVE",
"420 659 OFFCURVE",
"385 668 CURVE",
"337 688 LINE",
"336 696 OFFCURVE",
"325 700 OFFCURVE",
"305 700 CURVE",
"305 709 OFFCURVE",
"292 717 OFFCURVE",
"265 724 CURVE",
"185 788 LINE",
"145 823 OFFCURVE",
"118 853 OFFCURVE",
"105 880 CURVE",
"74 922 OFFCURVE",
"52 981 OFFCURVE",
"37 1056 CURVE",
"37 1176 LINE SMOOTH",
"37 1197 OFFCURVE",
"44 1226 OFFCURVE",
"57 1264 CURVE",
"93 1395 OFFCURVE",
"208 1507 OFFCURVE",
"377 1600 CURVE",
"453 1632 OFFCURVE",
"496 1648 OFFCURVE",
"505 1648 CURVE SMOOTH",
"520 1648 OFFCURVE",
"538 1657 OFFCURVE",
"557 1676 CURVE",
"553 1716 LINE",
"553 1812 LINE SMOOTH",
"553 1836 OFFCURVE",
"562 1848 OFFCURVE",
"581 1848 CURVE SMOOTH"
);
},
{
closed = 1;
nodes = (
"385 1095 OFFCURVE",
"410 1062 OFFCURVE",
"461 1028 CURVE",
"468 1028 OFFCURVE",
"482 1021 OFFCURVE",
"501 1008 CURVE",
"513 1008 OFFCURVE",
"524 1004 OFFCURVE",
"533 996 CURVE",
"545 996 LINE",
"549 1208 LINE",
"553 1236 LINE",
"527 1225 OFFCURVE",
"502 1219 OFFCURVE",
"477 1216 CURVE",
"474 1211 OFFCURVE",
"458 1203 OFFCURVE",
"429 1192 CURVE",
"400 1169 OFFCURVE",
"385 1148 OFFCURVE",
"385 1128 CURVE SMOOTH"
);
},
{
closed = 1;
nodes = (
"729 292 LINE",
"733 292 LINE",
"778 303 OFFCURVE",
"814 315 OFFCURVE",
"841 328 CURVE",
"849 328 OFFCURVE",
"860 335 OFFCURVE",
"873 348 CURVE",
"894 348 OFFCURVE",
"915 369 OFFCURVE",
"937 412 CURVE",
"937 472 LINE",
"911 511 OFFCURVE",
"876 536 OFFCURVE",
"833 548 CURVE",
"833 555 OFFCURVE",
"814 561 OFFCURVE",
"777 564 CURVE",
"761 576 LINE",
"745 576 LINE SMOOTH",
"740 576 OFFCURVE",
"737 572 OFFCURVE",
"737 564 CURVE SMOOTH"
);
}
);
width = 1372;
}
);
unicode = 0024;
},
{
glyphname = percent;
layers = (
{
layerId = "B727121D-3B30-4656-AEE9-0CFAB48D4F65";
name = Regular;
paths = (
{
closed = 1;
nodes = (
"521 1843 LINE",
"605 1821 OFFCURVE",
"652 1801 OFFCURVE",
"661 1783 CURVE",
"702 1770 OFFCURVE",
"739 1724 OFFCURVE",
"773 1643 CURVE",
"781 1571 LINE",
"781 1450 OFFCURVE",
"736 1345 OFFCURVE",
"645 1255 CURVE SMOOTH",
"578 1193 OFFCURVE",
"518 1158 OFFCURVE",
"465 1151 CURVE",
"465 1142 OFFCURVE",
"417 1133 OFFCURVE",
"321 1123 CURVE",
"313 1123 LINE SMOOTH",
"233 1123 OFFCURVE",
"170 1140 OFFCURVE",
"125 1175 CURVE",
"78 1206 OFFCURVE",
"43 1247 OFFCURVE",
"21 1299 CURVE",
"5 1359 LINE",
"5 1467 LINE",
"18 1526 OFFCURVE",
"38 1576 OFFCURVE",
"65 1619 CURVE",
"75 1647 OFFCURVE",
"118 1694 OFFCURVE",
"193 1759 CURVE",
"249 1802 OFFCURVE",
"316 1830 OFFCURVE",
"393 1843 CURVE"
);
},
{
closed = 1;
nodes = (
"1121 1843 LINE",
"1157 1811 LINE",
"1157 1806 OFFCURVE",
"1165 1803 OFFCURVE",
"1181 1803 CURVE",
"1198 1783 OFFCURVE",
"1249 1754 OFFCURVE",
"1333 1715 CURVE",
"1333 1707 LINE SMOOTH",
"1333 1700 OFFCURVE",
"1317 1671 OFFCURVE",
"1285 1619 CURVE",
"1149 1379 LINE",
"1144 1379 OFFCURVE",
"1137 1367 OFFCURVE",
"1129 1343 CURVE",
"1120 1340 OFFCURVE",
"1112 1326 OFFCURVE",
"1105 1303 CURVE",
"945 1035 LINE SMOOTH",
"807 806 OFFCURVE",
"650 564 OFFCURVE",
"473 307 CURVE SMOOTH",
"369 166 OFFCURVE",
"277 50 OFFCURVE",
"197 -41 CURVE",
"172 -35 OFFCURVE",
"108 21 OFFCURVE",
"5 127 CURVE",
"5 131 LINE",
"52 174 OFFCURVE",
"112 248 OFFCURVE",
"185 355 CURVE SMOOTH",
"260 462 OFFCURVE",
"372 633 OFFCURVE",
"521 867 CURVE SMOOTH",
"665 1103 LINE SMOOTH",
"808 1334 OFFCURVE",
"953 1578 OFFCURVE",
"1101 1835 CURVE"
);
},
{
closed = 1;
nodes = (
"289 1411 OFFCURVE",
"305 1383 OFFCURVE",
"337 1367 CURVE",
"353 1363 LINE",
"389 1363 LINE SMOOTH",
"421 1363 OFFCURVE",
"452 1388 OFFCURVE",
"481 1439 CURVE",
"497 1503 LINE",
"497 1519 LINE SMOOTH",
"497 1556 OFFCURVE",
"478 1582 OFFCURVE",
"441 1595 CURVE",
"389 1595 LINE",
"338 1575 OFFCURVE",
"313 1552 OFFCURVE",
"313 1527 CURVE",
"300 1527 OFFCURVE",
"292 1502 OFFCURVE",
"289 1451 CURVE"
);
},
{
closed = 1;
nodes = (
"1149 851 LINE",
"1266 851 OFFCURVE",
"1354 798 OFFCURVE",
"1413 691 CURVE",
"1424 680 OFFCURVE",
"1437 644 OFFCURVE",
"1453 583 CURVE",
"1453 431 LINE",
"1440 354 OFFCURVE",
"1420 284 OFFCURVE",
"1393 223 CURVE",
"1336 107 OFFCURVE",
"1256 27 OFFCURVE",
"1153 -17 CURVE",
"1092 -36 OFFCURVE",
"1054 -45 OFFCURVE",
"1037 -45 CURVE SMOOTH",
"1009 -45 LINE SMOOTH",
"930 -45 OFFCURVE",
"860 -9 OFFCURVE",
"801 63 CURVE",
"778 95 OFFCURVE",
"759 134 OFFCURVE",
"745 179 CURVE",
"745 192 OFFCURVE",
"738 216 OFFCURVE",
"725 251 CURVE",
"725 259 LINE",
"729 259 LINE",
"725 307 LINE",
"725 339 LINE",
"739 432 OFFCURVE",
"750 482 OFFCURVE",
"757 491 CURVE",
"778 573 OFFCURVE",
"827 658 OFFCURVE",
"905 747 CURVE",
"989 814 OFFCURVE",
"1057 847 OFFCURVE",
"1109 847 CURVE"
);
},
{
closed = 1;
nodes = (
"990 310 OFFCURVE",
"1000 279 OFFCURVE",
"1017 279 CURVE",
"1017 268 OFFCURVE",
"1028 263 OFFCURVE",
"1049 263 CURVE SMOOTH",
"1077 263 LINE SMOOTH",
"1100 263 OFFCURVE",
"1130 288 OFFCURVE",
"1165 339 CURVE",
"1185 431 LINE",
"1185 439 LINE SMOOTH",
"1185 490 OFFCURVE",
"1161 520 OFFCURVE",
"1113 527 CURVE",
"1085 527 LINE",
"1052 512 OFFCURVE",
"1027 490 OFFCURVE",
"1009 459 CURVE",
"998 444 OFFCURVE",
"990 415 OFFCURVE",
"985 371 CURVE"
);
}
);
width = 1552;
}
);
unicode = 0025;
},
{
glyphname = ampersand;
layers = (
{
layerId = "B727121D-3B30-4656-AEE9-0CFAB48D4F65";
name = Regular;
paths = (
{
closed = 1;
nodes = (
"724 1836 LINE",
"836 1816 LINE",
"961 1779 OFFCURVE",
"1057 1717 OFFCURVE",
"1124 1628 CURVE SMOOTH",
"1169 1570 OFFCURVE",
"1192 1522 OFFCURVE",
"1192 1484 CURVE",
"1195 1484 OFFCURVE",
"1201 1465 OFFCURVE",
"1208 1428 CURVE",
"1208 1403 OFFCURVE",
"1200 1349 OFFCURVE",
"1184 1268 CURVE",
"1178 1268 OFFCURVE",
"1170 1249 OFFCURVE",
"1160 1212 CURVE",
"1154 1212 OFFCURVE",
"1141 1192 OFFCURVE",
"1120 1152 CURVE",
"1046 1075 OFFCURVE",
"995 1030 OFFCURVE",
"968 1016 CURVE",
"944 995 OFFCURVE",
"925 984 OFFCURVE",
"912 984 CURVE",
"912 979 OFFCURVE",
"904 973 OFFCURVE",
"888 968 CURVE",
"888 956 LINE",
"1080 796 LINE SMOOTH",
"1121 764 OFFCURVE",
"1146 748 OFFCURVE",
"1156 748 CURVE",
"1207 812 OFFCURVE",
"1236 859 OFFCURVE",
"1244 888 CURVE",
"1262 914 OFFCURVE",
"1277 951 OFFCURVE",
"1288 1000 CURVE",
"1294 1000 OFFCURVE",
"1299 1017 OFFCURVE",
"1304 1052 CURVE",
"1308 1056 LINE",
"1320 1056 LINE",
"1355 1029 OFFCURVE",
"1380 1015 OFFCURVE",
"1396 1012 CURVE",
"1396 1006 OFFCURVE",
"1433 987 OFFCURVE",
"1508 956 CURVE SMOOTH",
"1612 916 LINE",
"1620 900 LINE",
"1580 792 LINE",
"1573 792 OFFCURVE",
"1568 780 OFFCURVE",
"1564 756 CURVE",
"1557 751 OFFCURVE",
"1549 736 OFFCURVE",
"1540 712 CURVE",
"1444 552 LINE",
"1444 545 OFFCURVE",
"1467 530 OFFCURVE",
"1512 508 CURVE",
"1559 479 OFFCURVE",
"1616 449 OFFCURVE",
"1684 420 CURVE",
"1710 411 OFFCURVE",
"1730 399 OFFCURVE",
"1744 384 CURVE",
"1744 380 LINE",
"1689 272 OFFCURVE",
"1583 112 OFFCURVE",
"1508 32 CURVE",
"1492 28 LINE",
"1368 92 LINE",
"1172 220 LINE",
"1016 108 LINE",
"932 68 LINE",
"888 48 LINE",
"824 28 LINE",
"724 8 LINE",
"568 0 LINE",
"458 5 OFFCURVE",
"385 14 OFFCURVE",
"348 28 CURVE",
"269 52 OFFCURVE",
"219 77 OFFCURVE",
"196 104 CURVE",
"143 125 OFFCURVE",
"91 185 OFFCURVE",
"40 284 CURVE",
"27 319 OFFCURVE",
"13 373 OFFCURVE",
"0 448 CURVE",
"0 480 LINE SMOOTH",
"0 537 OFFCURVE",
"7 584 OFFCURVE",
"20 620 CURVE",
"25 651 OFFCURVE",
"43 691 OFFCURVE",
"76 740 CURVE",
"93 773 OFFCURVE",
"121 807 OFFCURVE",
"160 844 CURVE",
"225 913 OFFCURVE",
"287 965 OFFCURVE",
"344 1000 CURVE",
"344 1004 LINE",
"300 1088 LINE SMOOTH",
"245 1201 OFFCURVE",
"216 1286 OFFCURVE",
"212 1344 CURVE",
"209 1344 OFFCURVE",
"206 1356 OFFCURVE",
"204 1380 CURVE",
"200 1380 LINE",
"204 1400 LINE",
"204 1436 LINE",
"217 1521 OFFCURVE",
"229 1564 OFFCURVE",
"240 1564 CURVE",
"240 1589 OFFCURVE",
"273 1639 OFFCURVE",
"340 1712 CURVE",
"397 1759 OFFCURVE",
"450 1791 OFFCURVE",
"500 1808 CURVE",
"503 1813 OFFCURVE",
"542 1822 OFFCURVE",
"616 1836 CURVE"
);
},
{
closed = 1;
nodes = (
"628 1488 LINE",
"616 1488 LINE",
"576 1462 OFFCURVE",
"556 1435 OFFCURVE",
"556 1408 CURVE SMOOTH",
"556 1337 OFFCURVE",
"575 1285 OFFCURVE",
"612 1252 CURVE",
"628 1231 OFFCURVE",
"643 1218 OFFCURVE",
"656 1212 CURVE",
"708 1212 OFFCURVE",
"764 1251 OFFCURVE",
"824 1328 CURVE",
"836 1364 LINE",
"836 1400 LINE",
"825 1410 OFFCURVE",
"820 1423 OFFCURVE",
"820 1440 CURVE",
"783 1477 OFFCURVE",
"737 1496 OFFCURVE",
"684 1496 CURVE"
);
},
{
closed = 1;
nodes = (
"408 492 LINE SMOOTH",
"408 469 OFFCURVE",
"424 444 OFFCURVE",
"456 416 CURVE",
"499 392 OFFCURVE",
"537 379 OFFCURVE",
"572 376 CURVE",
"576 376 LINE",
"679 389 OFFCURVE",
"739 402 OFFCURVE",
"756 416 CURVE",
"769 416 OFFCURVE",
"796 429 OFFCURVE",
"836 456 CURVE",
"836 468 LINE",
"813 468 OFFCURVE",
"719 555 OFFCURVE",
"552 728 CURVE",
"540 728 LINE",
"474 674 OFFCURVE",
"433 629 OFFCURVE",
"416 592 CURVE",
"411 592 OFFCURVE",
"409 585 OFFCURVE",
"408 572 CURVE"
);
}
);
width = 1802;
}
);
unicode = 0026;
},
{
glyphname = quotesingle;
layers = (
{
layerId = "B727121D-3B30-4656-AEE9-0CFAB48D4F65";
name = Regular;
paths = (
{
closed = 1;
nodes = (
"521 1836 LINE",
"521 1832 LINE SMOOTH",
"521 1809 OFFCURVE",
"470 1723 OFFCURVE",
"369 1576 CURVE SMOOTH",
"332 1525 OFFCURVE",
"300 1485 OFFCURVE",
"273 1456 CURVE",
"217 1400 LINE",
"197 1400 LINE",
"9 1428 LINE",
"5 1432 LINE",
"5 1456 LINE",
"47 1503 OFFCURVE",
"100 1599 OFFCURVE",
"165 1744 CURVE",
"174 1757 OFFCURVE",
"182 1780 OFFCURVE",
"189 1812 CURVE",
"200 1823 OFFCURVE",
"214 1828 OFFCURVE",
"229 1828 CURVE SMOOTH",
"413 1828 LINE SMOOTH",
"454 1828 OFFCURVE",
"488 1832 OFFCURVE",
"517 1840 CURVE"
);
}
);
width = 562;
}
);
unicode = 0027;
},
{
glyphname = parenleft;
layers = (
{
layerId = "B727121D-3B30-4656-AEE9-0CFAB48D4F65";
name = Regular;
paths = (
{
closed = 1;
nodes = (
"322 1840 OFFCURVE",
"374 1833 OFFCURVE",
"421 1833 CURVE SMOOTH",
"437 1833 LINE",
"449 1821 LINE",
"449 1801 LINE",
"409 1566 OFFCURVE",
"385 1412 OFFCURVE",
"377 1337 CURVE",
"358 1218 OFFCURVE",
"342 1025 OFFCURVE",
"329 757 CURVE",
"329 628 OFFCURVE",
"334 522 OFFCURVE",
"345 441 CURVE",
"341 425 LINE",
"346 401 OFFCURVE",
"350 334 OFFCURVE",
"353 225 CURVE",
"366 178 OFFCURVE",
"373 120 OFFCURVE",
"373 49 CURVE",
"381 38 OFFCURVE",
"389 -10 OFFCURVE",
"397 -95 CURVE",
"401 -95 OFFCURVE",
"405 -110 OFFCURVE",
"409 -139 CURVE",
"409 -160 OFFCURVE",
"345 -171 OFFCURVE",
"217 -171 CURVE",
"197 -175 LINE",
"175 -175 OFFCURVE",
"160 -154 OFFCURVE",
"153 -111 CURVE",
"149 -107 LINE",
"130 -66 OFFCURVE",
"121 -35 OFFCURVE",
"121 -15 CURVE",
"113 -11 OFFCURVE",
"102 18 OFFCURVE",
"89 73 CURVE",
"84 73 OFFCURVE",
"80 93 OFFCURVE",
"77 133 CURVE",
"67 133 OFFCURVE",
"60 161 OFFCURVE",
"57 217 CURVE",
"52 217 OFFCURVE",
"48 230 OFFCURVE",
"45 257 CURVE",
"26 356 OFFCURVE",
"17 435 OFFCURVE",
"17 493 CURVE",
"9 536 OFFCURVE",
"5 578 OFFCURVE",
"5 621 CURVE SMOOTH",
"5 697 LINE",
"9 721 LINE",
"5 737 LINE",
"18 974 OFFCURVE",
"28 1093 OFFCURVE",
"37 1093 CURVE",
"37 1133 OFFCURVE",
"45 1188 OFFCURVE",
"61 1257 CURVE SMOOTH",
"101 1443 OFFCURVE",
"128 1543 OFFCURVE",
"141 1557 CURVE",
"141 1572 OFFCURVE",
"148 1595 OFFCURVE",
"161 1625 CURVE",
"181 1685 LINE",
"233 1833 LINE",
"242 1846 OFFCURVE",
"252 1853 OFFCURVE",
"265 1853 CURVE"
);
}
);
width = 649;
}
);
unicode = 0028;
},
{
glyphname = parenright;
layers = (
{
layerId = "B727121D-3B30-4656-AEE9-0CFAB48D4F65";
name = Regular;
paths = (
{
closed = 1;
nodes = (
"330 1848 LINE SMOOTH",
"359 1848 OFFCURVE",
"377 1828 OFFCURVE",
"382 1788 CURVE",
"390 1788 OFFCURVE",
"394 1775 OFFCURVE",
"394 1748 CURVE",
"404 1748 OFFCURVE",
"412 1725 OFFCURVE",
"418 1680 CURVE",
"426 1680 OFFCURVE",
"433 1660 OFFCURVE",
"438 1620 CURVE",
"446 1620 OFFCURVE",
"454 1592 OFFCURVE",
"462 1536 CURVE",
"469 1536 OFFCURVE",
"475 1511 OFFCURVE",
"478 1460 CURVE",
"486 1460 OFFCURVE",
"494 1423 OFFCURVE",
"502 1348 CURVE",
"510 1348 OFFCURVE",
"521 1236 OFFCURVE",
"534 1012 CURVE",
"526 872 LINE",
"530 848 LINE",
"506 584 LINE",
"501 584 OFFCURVE",
"495 545 OFFCURVE",
"486 468 CURVE",
"466 368 LINE",
"431 223 OFFCURVE",
"385 69 OFFCURVE",
"326 -96 CURVE",
"323 -96 OFFCURVE",
"315 -115 OFFCURVE",
"302 -152 CURVE",
"292 -171 OFFCURVE",
"283 -180 OFFCURVE",
"274 -180 CURVE",
"252 -167 OFFCURVE",
"223 -161 OFFCURVE",
"186 -160 CURVE SMOOTH",
"98 -160 LINE",
"86 -148 LINE",
"86 -112 LINE",
"114 56 LINE",
"121 56 OFFCURVE",
"126 95 OFFCURVE",
"130 172 CURVE",
"140 185 OFFCURVE",
"147 231 OFFCURVE",
"150 312 CURVE",
"160 322 OFFCURVE",
"167 377 OFFCURVE",
"170 476 CURVE",
"180 476 OFFCURVE",
"192 641 OFFCURVE",
"206 972 CURVE",
"193 1290 OFFCURVE",
"179 1479 OFFCURVE",
"166 1540 CURVE",
"166 1587 OFFCURVE",
"159 1641 OFFCURVE",
"146 1700 CURVE",
"126 1816 LINE",
"126 1832 OFFCURVE",
"166 1843 OFFCURVE",
"246 1848 CURVE"
);
}
);
width = 598;
}
);
unicode = 0029;
},
{
glyphname = asterisk;
layers = (
{
layerId = "B727121D-3B30-4656-AEE9-0CFAB48D4F65";
name = Regular;
paths = (
{
closed = 1;
nodes = (
"370 1203 LINE",
"374 1199 LINE",
"378 1199 LINE",
"422 1203 LINE",
"446 1203 LINE",
"458 1191 LINE",
"458 1155 LINE",
"454 1107 LINE",
"466 1103 LINE",
"507 1159 OFFCURVE",
"533 1187 OFFCURVE",
"542 1187 CURVE SMOOTH",
"550 1187 LINE",
"589 1158 OFFCURVE",
"633 1114 OFFCURVE",
"682 1055 CURVE",
"682 1047 LINE",
"574 931 LINE",
"574 926 OFFCURVE",
"578 923 OFFCURVE",
"586 923 CURVE",
"600 912 OFFCURVE",
"611 907 OFFCURVE",
"618 907 CURVE",
"642 899 LINE",
"654 886 OFFCURVE",
"670 879 OFFCURVE",
"690 879 CURVE",
"694 875 LINE",
"699 867 OFFCURVE",
"708 863 OFFCURVE",
"722 863 CURVE",
"730 851 LINE",
"730 847 LINE",
"724 839 OFFCURVE",
"717 820 OFFCURVE",
"710 791 CURVE",
"686 739 LINE SMOOTH",
"668 700 OFFCURVE",
"648 673 OFFCURVE",
"626 659 CURVE",
"622 659 LINE",
"614 668 OFFCURVE",
"597 676 OFFCURVE",
"570 683 CURVE",
"558 695 LINE",
"538 695 LINE",
"538 687 LINE",
"534 687 LINE",
"558 591 LINE",
"558 567 OFFCURVE",
"535 555 OFFCURVE",
"490 555 CURVE",
"448 542 OFFCURVE",
"417 535 OFFCURVE",
"398 535 CURVE SMOOTH",
"346 535 LINE",
"330 551 LINE",
"330 567 LINE",
"320 636 OFFCURVE",
"312 671 OFFCURVE",
"306 671 CURVE SMOOTH",
"298 671 LINE",
"257 620 OFFCURVE",
"228 595 OFFCURVE",
"210 595 CURVE SMOOTH",
"202 595 LINE",
"157 656 OFFCURVE",
"115 707 OFFCURVE",
"78 747 CURVE",
"78 751 LINE",
"194 855 LINE",
"194 871 LINE",
"183 871 OFFCURVE",
"153 886 OFFCURVE",
"102 915 CURVE SMOOTH",
"69 933 OFFCURVE",
"51 945 OFFCURVE",
"50 951 CURVE",
"50 971 LINE",
"71 992 OFFCURVE",
"94 1023 OFFCURVE",
"118 1063 CURVE",
"124 1063 OFFCURVE",
"129 1075 OFFCURVE",
"134 1099 CURVE",
"162 1119 LINE",
"166 1119 LINE",
"193 1094 OFFCURVE",
"221 1076 OFFCURVE",
"250 1063 CURVE",
"254 1067 LINE",
"250 1115 LINE",
"250 1171 LINE SMOOTH",
"250 1186 OFFCURVE",
"255 1195 OFFCURVE",
"266 1199 CURVE",
"286 1199 LINE",
"298 1195 LINE"
);
}
);
width = 797;
}
);
unicode = 002A;
},
{
glyphname = plus;
layers = (
{
layerId = "B727121D-3B30-4656-AEE9-0CFAB48D4F65";
name = Regular;
paths = (
{
closed = 1;
nodes = (
"770 1348 LINE",
"782 1336 LINE",
"742 1060 LINE",
"739 1031 OFFCURVE",
"733 1003 OFFCURVE",
"722 976 CURVE",
"726 964 LINE",
"775 964 OFFCURVE",
"847 972 OFFCURVE",
"942 988 CURVE",
"961 988 OFFCURVE",
"997 995 OFFCURVE",
"1050 1008 CURVE",
"1086 1008 LINE",
"1102 992 LINE",
"1102 952 LINE",
"1118 772 LINE",
"1105 754 OFFCURVE",
"1049 741 OFFCURVE",
"950 732 CURVE",
"950 725 OFFCURVE",
"905 719 OFFCURVE",
"814 716 CURVE",
"786 705 OFFCURVE",
"753 700 OFFCURVE",
"714 700 CURVE SMOOTH",
"694 700 LINE SMOOTH",
"670 700 OFFCURVE",
"658 668 OFFCURVE",
"658 604 CURVE",
"651 604 OFFCURVE",
"643 573 OFFCURVE",
"634 512 CURVE",
"582 308 LINE",
"556 289 OFFCURVE",
"491 275 OFFCURVE",
"386 264 CURVE",
"306 264 LINE",
"298 272 LINE",
"298 296 LINE",
"309 320 OFFCURVE",
"315 359 OFFCURVE",
"318 412 CURVE",
"326 412 OFFCURVE",
"334 449 OFFCURVE",
"342 524 CURVE",
"348 532 OFFCURVE",
"355 569 OFFCURVE",
"362 636 CURVE",
"367 636 OFFCURVE",
"370 643 OFFCURVE",
"370 656 CURVE SMOOTH",
"370 664 LINE",
"366 668 LINE",
"366 672 LINE",
"322 664 LINE",
"318 668 LINE",
"314 668 LINE",
"288 663 OFFCURVE",
"249 660 OFFCURVE",
"198 660 CURVE SMOOTH",
"30 660 LINE",
"14 672 LINE",
"18 696 LINE",
"14 844 LINE",
"2 896 LINE",
"4 912 OFFCURVE",
"12 920 OFFCURVE",
"26 920 CURVE SMOOTH",
"218 924 LINE",
"234 928 LINE",
"238 924 LINE",
"306 928 LINE",
"406 928 LINE SMOOTH",
"414 928 OFFCURVE",
"418 933 OFFCURVE",
"418 944 CURVE",
"414 948 LINE",
"414 952 LINE",
"427 993 OFFCURVE",
"441 1074 OFFCURVE",
"454 1196 CURVE",
"454 1273 OFFCURVE",
"466 1312 OFFCURVE",
"490 1312 CURVE",
"618 1323 OFFCURVE",
"705 1335 OFFCURVE",
"750 1348 CURVE"
);
}
);
width = 1196;
}
);
unicode = 002B;
},
{
glyphname = comma;
layers = (
{
layerId = "B727121D-3B30-4656-AEE9-0CFAB48D4F65";
name = Regular;
paths = (
{
closed = 1;
nodes = (
"654 336 LINE",
"662 333 OFFCURVE",
"666 325 OFFCURVE",
"666 312 CURVE",
"598 156 LINE",
"592 156 OFFCURVE",
"587 143 OFFCURVE",
"582 116 CURVE",
"575 111 OFFCURVE",
"553 71 OFFCURVE",
"518 -4 CURVE",
"513 -4 OFFCURVE",
"492 -39 OFFCURVE",
"454 -108 CURVE",
"405 -183 OFFCURVE",
"359 -250 OFFCURVE",
"314 -308 CURVE",
"300 -332 OFFCURVE",
"285 -344 OFFCURVE",
"270 -344 CURVE",
"270 -348 LINE",
"86 -320 LINE",
"72 -313 OFFCURVE",
"57 -309 OFFCURVE",
"42 -308 CURVE",
"18 -308 LINE",
"6 -296 LINE",
"6 -292 LINE",
"90 -136 LINE",
"95 -136 OFFCURVE",
"98 -128 OFFCURVE",
"98 -112 CURVE",
"105 -107 OFFCURVE",
"121 -75 OFFCURVE",
"146 -16 CURVE",
"153 -16 OFFCURVE",
"158 0 OFFCURVE",
"162 32 CURVE",
"171 36 OFFCURVE",
"180 56 OFFCURVE",
"190 92 CURVE",
"195 92 OFFCURVE",
"199 108 OFFCURVE",
"202 140 CURVE",
"209 140 OFFCURVE",
"217 161 OFFCURVE",
"226 204 CURVE",
"233 204 OFFCURVE",
"239 223 OFFCURVE",
"242 260 CURVE",
"257 292 OFFCURVE",
"266 308 OFFCURVE",
"270 308 CURVE",
"274 312 LINE",
"294 308 LINE",
"526 316 OFFCURVE",
"642 325 OFFCURVE",
"642 336 CURVE"
);
}
);
width = 757;
}
);
unicode = 002C;
},
{
glyphname = hyphen;
layers = (
{
layerId = "B727121D-3B30-4656-AEE9-0CFAB48D4F65";
name = Regular;
paths = (
{
closed = 1;
nodes = (
"962 1081 OFFCURVE",
"971 987 OFFCURVE",
"971 838 CURVE",
"959 830 LINE",
"947 830 LINE",
"715 790 LINE",
"666 790 OFFCURVE",
"605 783 OFFCURVE",
"531 770 CURVE",
"499 770 LINE",
"191 750 LINE",
"19 750 LINE",
"3 762 LINE",
"7 782 LINE",
"3 970 LINE",
"-5 1030 LINE",
"5 1038 OFFCURVE",
"17 1042 OFFCURVE",
"31 1042 CURVE SMOOTH",
"132 1042 OFFCURVE",
"216 1046 OFFCURVE",
"283 1054 CURVE",
"287 1050 LINE",
"291 1050 LINE",
"307 1055 OFFCURVE",
"379 1059 OFFCURVE",
"507 1062 CURVE",
"507 1068 OFFCURVE",
"572 1076 OFFCURVE",
"703 1086 CURVE",
"703 1092 OFFCURVE",
"740 1097 OFFCURVE",
"815 1102 CURVE",
"825 1112 OFFCURVE",
"868 1119 OFFCURVE",
"943 1122 CURVE"
);
}
);
width = 1057;
}
);
unicode = 002D;
},
{
glyphname = period;
layers = (
{
layerId = "B727121D-3B30-4656-AEE9-0CFAB48D4F65";
name = Regular;
paths = (
{
closed = 1;
nodes = (
"418 513 LINE",
"476 502 OFFCURVE",
"527 476 OFFCURVE",
"570 433 CURVE",
"597 392 OFFCURVE",
"610 362 OFFCURVE",
"610 341 CURVE",
"615 341 OFFCURVE",
"621 325 OFFCURVE",
"626 293 CURVE",
"620 238 OFFCURVE",
"591 177 OFFCURVE",
"538 109 CURVE",
"469 54 OFFCURVE",
"413 23 OFFCURVE",
"370 17 CURVE",
"370 11 OFFCURVE",
"358 7 OFFCURVE",
"334 5 CURVE",
"230 5 LINE SMOOTH",
"189 5 OFFCURVE",
"140 21 OFFCURVE",
"82 53 CURVE",
"40 91 OFFCURVE",
"15 135 OFFCURVE",
"6 185 CURVE",
"2 225 LINE",
"2 233 LINE",
"23 341 OFFCURVE",
"95 421 OFFCURVE",
"186 469 CURVE SMOOTH",
"213 484 OFFCURVE",
"241 495 OFFCURVE",
"270 501 CURVE",
"271 506 OFFCURVE",
"280 510 OFFCURVE",
"298 513 CURVE"
);
}
);
width = 662;
}
);
unicode = 002E;
},
{
glyphname = slash;
layers = (
{
layerId = "B727121D-3B30-4656-AEE9-0CFAB48D4F65";
name = Regular;
paths = (
{
closed = 1;
nodes = (
"1204 1771 LINE",
"1247 1757 OFFCURVE",
"1268 1745 OFFCURVE",
"1268 1735 CURVE SMOOTH",
"1268 1719 LINE",
"1248 1689 OFFCURVE",
"1235 1660 OFFCURVE",
"1228 1631 CURVE",
"1164 1499 LINE SMOOTH",
"1000 1144 OFFCURVE",
"796 784 OFFCURVE",
"552 419 CURVE SMOOTH",
"384 175 LINE",
"244 -24 LINE",
"217 -69 OFFCURVE",
"197 -92 OFFCURVE",
"184 -92 CURVE",
"109 -33 OFFCURVE",
"49 10 OFFCURVE",
"4 35 CURVE",
"4 55 OFFCURVE",
"37 108 OFFCURVE",
"104 195 CURVE",
"184 311 LINE",
"222 373 OFFCURVE",
"250 414 OFFCURVE",
"268 435 CURVE",
"388 623 LINE SMOOTH",
"513 825 OFFCURVE",
"602 977 OFFCURVE",
"656 1079 CURVE",
"705 1160 OFFCURVE",
"772 1287 OFFCURVE",
"856 1459 CURVE",
"861 1459 OFFCURVE",
"864 1467 OFFCURVE",
"864 1483 CURVE",
"873 1491 OFFCURVE",
"911 1568 OFFCURVE",
"980 1715 CURVE SMOOTH",
"1016 1799 LINE SMOOTH",
"1030 1834 OFFCURVE",
"1041 1851 OFFCURVE",
"1048 1851 CURVE"
);
}
);
width = 1404;
}
);
unicode = 002F;
},
{
glyphname = zero;
layers = (
{
layerId = "B727121D-3B30-4656-AEE9-0CFAB48D4F65";
name = Regular;
paths = (
{
closed = 1;
nodes = (
"859 913 OFFCURVE",
"859 902 OFFCURVE",
"858 888 CURVE SMOOTH",
"857 873 OFFCURVE",
"857 863 OFFCURVE",
"857 856 CURVE",
"846 571 OFFCURVE",
"810 357 OFFCURVE",
"747 216 CURVE SMOOTH",
"684 75 OFFCURVE",
"602 4 OFFCURVE",
"503 4 CURVE SMOOTH",
"386 4 OFFCURVE",
"282 77 OFFCURVE",
"221 176 CURVE SMOOTH",
"160 275 OFFCURVE",
"109 415 OFFCURVE",
"86 531 CURVE SMOOTH",
"63 647 OFFCURVE",
"47 775 OFFCURVE",
"44 828 CURVE SMOOTH",
"43 855 OFFCURVE",
"42 872 OFFCURVE",
"42 879 CURVE",
"41 887 OFFCURVE",
"40 900 OFFCURVE",
"40 918 CURVE SMOOTH",
"40 1215 OFFCURVE",
"253 1376 OFFCURVE",
"517 1376 CURVE SMOOTH",
"745 1376 OFFCURVE",
"859 1225 OFFCURVE",
"859 922 CURVE SMOOTH"
);
},
{
closed = 1;
nodes = (
"610 546 OFFCURVE",
"624 587 OFFCURVE",
"624 635 CURVE SMOOTH",
"624 731 OFFCURVE",
"565 815 OFFCURVE",
"472 815 CURVE SMOOTH",
"371 815 OFFCURVE",
"294 716 OFFCURVE",
"294 612 CURVE SMOOTH",
"294 520 OFFCURVE",
"357 463 OFFCURVE",
"464 463 CURVE SMOOTH",
"516 463 OFFCURVE",
"556 480 OFFCURVE",
"583 513 CURVE SMOOTH"
);
}
);
width = 901;
}
);
unicode = 0030;
},
{
glyphname = one;
layers = (
{
layerId = "B727121D-3B30-4656-AEE9-0CFAB48D4F65";
name = Regular;
paths = (
{
closed = 1;
nodes = (
"288 0 OFFCURVE",
"279 9 OFFCURVE",
"252 74 CURVE SMOOTH",
"238 107 OFFCURVE",
"226 166 OFFCURVE",
"215 251 CURVE SMOOTH",
"204 336 OFFCURVE",
"198 441 OFFCURVE",
"198 565 CURVE SMOOTH",
"213 1118 LINE",
"210 1122 OFFCURVE",
"205 1128 OFFCURVE",
"199 1136 CURVE",
"193 1143 OFFCURVE",
"174 1154 OFFCURVE",
"142 1167 CURVE SMOOTH",
"110 1180 OFFCURVE",
"71 1188 OFFCURVE",
"24 1192 CURVE",
"21 1201 OFFCURVE",
"20 1213 OFFCURVE",
"20 1227 CURVE SMOOTH",
"20 1259 OFFCURVE",
"29 1287 OFFCURVE",
"58 1322 CURVE SMOOTH",
"86 1357 OFFCURVE",
"153 1378 OFFCURVE",
"245 1378 CURVE SMOOTH",
"388 1378 OFFCURVE",
"462 1365 OFFCURVE",
"466 1339 CURVE SMOOTH",
"515 1028 OFFCURVE",
"540 745 OFFCURVE",
"540 492 CURVE SMOOTH",
"540 243 OFFCURVE",
"513 81 OFFCURVE",
"458 6 CURVE",
"446 2 OFFCURVE",
"430 0 OFFCURVE",
"411 0 CURVE SMOOTH"
);
}
);
width = 581;
}
);
unicode = 0031;
},
{
glyphname = two;
layers = (
{
layerId = "B727121D-3B30-4656-AEE9-0CFAB48D4F65";
name = Regular;
paths = (
{
closed = 1;
nodes = (
"301 0 OFFCURVE",
"237 7 OFFCURVE",
"172 58 CURVE SMOOTH",
"139 83 OFFCURVE",
"123 115 OFFCURVE",
"123 154 CURVE SMOOTH",
"123 197 OFFCURVE",
"124 212 OFFCURVE",
"154 290 CURVE SMOOTH",
"169 329 OFFCURVE",
"192 379 OFFCURVE",
"223 440 CURVE SMOOTH",
"307 612 OFFCURVE",
"445 810 OFFCURVE",
"509 907 CURVE SMOOTH",
"573 1003 OFFCURVE",
"563 1044 OFFCURVE",
"531 1080 CURVE SMOOTH",
"498 1115 OFFCURVE",
"411 1123 OFFCURVE",
"372 1126 CURVE SMOOTH",
"352 1127 OFFCURVE",
"321 1128 OFFCURVE",
"280 1128 CURVE SMOOTH",
"187 1128 OFFCURVE",
"103 1123 OFFCURVE",
"26 1114 CURVE",
"15 1151 OFFCURVE",
"10 1192 OFFCURVE",
"10 1237 CURVE SMOOTH",
"10 1279 OFFCURVE",
"13 1304 OFFCURVE",
"20 1311 CURVE",
"23 1316 OFFCURVE",
"29 1323 OFFCURVE",
"39 1330 CURVE",
"48 1337 OFFCURVE",
"77 1347 OFFCURVE",
"125 1358 CURVE SMOOTH",
"172 1369 OFFCURVE",
"233 1374 OFFCURVE",
"307 1374 CURVE SMOOTH",
"466 1374 OFFCURVE",
"591 1349 OFFCURVE",
"668 1324 CURVE SMOOTH",
"744 1299 OFFCURVE",
"801 1241 OFFCURVE",
"824 1210 CURVE SMOOTH",
"847 1178 OFFCURVE",
"862 1106 OFFCURVE",
"862 1090 CURVE SMOOTH",
"862 1081 OFFCURVE",
"862 1066 OFFCURVE",
"862 1044 CURVE SMOOTH",
"862 919 OFFCURVE",
"768 730 OFFCURVE",
"670 545 CURVE SMOOTH",
"621 452 OFFCURVE",
"582 385 OFFCURVE",
"555 342 CURVE SMOOTH",
"514 279 LINE",
"663 303 OFFCURVE",
"825 315 OFFCURVE",
"1001 315 CURVE",
"958 152 OFFCURVE",
"918 66 OFFCURVE",
"882 57 CURVE SMOOTH",
"713 16 OFFCURVE",
"532 -3 OFFCURVE",
"340 0 CURVE SMOOTH"
);
}
);
width = 1021;
}
);
unicode = 0032;
},
{
glyphname = three;
layers = (
{
layerId = "B727121D-3B30-4656-AEE9-0CFAB48D4F65";
name = Regular;
paths = (
{
closed = 1;
nodes = (
"619 1382 OFFCURVE",
"793 1312 OFFCURVE",
"861 1173 CURVE SMOOTH",
"880 1131 OFFCURVE",
"889 1092 OFFCURVE",
"889 1057 CURVE SMOOTH",
"889 934 OFFCURVE",
"825 826 OFFCURVE",
"697 733 CURVE",
"940 696 OFFCURVE",
"1061 587 OFFCURVE",
"1061 408 CURVE SMOOTH",
"1061 205 OFFCURVE",
"890 74 OFFCURVE",
"549 16 CURVE",
"460 5 OFFCURVE",
"391 0 OFFCURVE",
"344 0 CURVE SMOOTH",
"293 0 OFFCURVE",
"255 17 OFFCURVE",
"232 52 CURVE",
"421 224 OFFCURVE",
"520 316 OFFCURVE",
"529 328 CURVE",
"582 388 OFFCURVE",
"609 426 OFFCURVE",
"609 441 CURVE SMOOTH",
"609 453 LINE SMOOTH",
"609 469 OFFCURVE",
"514 488 OFFCURVE",
"324 509 CURVE",
"263 520 OFFCURVE",
"210 550 OFFCURVE",
"164 597 CURVE",
"164 605 LINE",
"331 716 OFFCURVE",
"439 796 OFFCURVE",
"489 845 CURVE",
"529 890 OFFCURVE",
"549 932 OFFCURVE",
"549 973 CURVE SMOOTH",
"549 985 LINE SMOOTH",
"549 1049 OFFCURVE",
"478 1092 OFFCURVE",
"336 1113 CURVE",
"287 1116 OFFCURVE",
"251 1117 OFFCURVE",
"228 1117 CURVE SMOOTH",
"20 1117 LINE",
"20 1121 LINE SMOOTH",
"20 1192 OFFCURVE",
"52 1262 OFFCURVE",
"116 1330 CURVE",
"165 1365 OFFCURVE",
"239 1382 OFFCURVE",
"340 1382 CURVE SMOOTH"
);
}
);
width = 1081;
}
);
unicode = 0033;
},
{
glyphname = four;
layers = (
{
layerId = "B727121D-3B30-4656-AEE9-0CFAB48D4F65";
name = Regular;
paths = (
{
closed = 1;
nodes = (
"858 668 OFFCURVE",
"863 667 OFFCURVE",
"870 666 CURVE",
"883 663 OFFCURVE",
"931 646 OFFCURVE",
"961 620 CURVE SMOOTH",
"991 594 OFFCURVE",
"1026 536 OFFCURVE",
"1034 463 CURVE",
"835 436 LINE",
"824 280 OFFCURVE",
"788 79 OFFCURVE",
"749 8 CURVE",
"738 3 OFFCURVE",
"725 0 OFFCURVE",
"710 0 CURVE SMOOTH",
"642 0 OFFCURVE",
"588 8 OFFCURVE",
"547 23 CURVE",
"530 70 OFFCURVE",
"517 177 OFFCURVE",
"508 342 CURVE SMOOTH",
"504 391 LINE",
"349 391 OFFCURVE",
"218 409 OFFCURVE",
"110 446 CURVE",
"102 451 LINE",
"95 452 OFFCURVE",
"90 454 OFFCURVE",
"87 455 CURVE SMOOTH",
"84 456 OFFCURVE",
"78 458 OFFCURVE",
"71 461 CURVE",
"55 466 OFFCURVE",
"50 472 OFFCURVE",
"38 485 CURVE",
"25 497 OFFCURVE",
"19 508 OFFCURVE",
"14 526 CURVE",
"11 535 OFFCURVE",
"10 544 OFFCURVE",
"10 555 CURVE SMOOTH",
"10 703 OFFCURVE",
"86 928 OFFCURVE",
"207 1075 CURVE SMOOTH",
"340 1242 OFFCURVE",
"552 1368 OFFCURVE",
"643 1376 CURVE",
"760 1285 OFFCURVE",
"822 1219 OFFCURVE",
"829 1180 CURVE SMOOTH",
"846 1068 OFFCURVE",
"854 897 OFFCURVE",
"854 668 CURVE"
);
},
{
closed = 1;
nodes = (
"388 950 OFFCURVE",
"317 891 OFFCURVE",
"317 782 CURVE SMOOTH",
"317 675 OFFCURVE",
"378 623 OFFCURVE",
"469 623 CURVE SMOOTH",
"573 623 OFFCURVE",
"667 694 OFFCURVE",
"667 795 CURVE SMOOTH",
"667 887 OFFCURVE",
"580 950 OFFCURVE",
"481 950 CURVE SMOOTH"
);
}
);
width = 1044;
}
);
unicode = 0034;
},
{
glyphname = five;
layers = (
{
layerId = "B727121D-3B30-4656-AEE9-0CFAB48D4F65";
name = Regular;
paths = (
{
closed = 1;
nodes = (
"712 1378 OFFCURVE",
"830 1318 OFFCURVE",
"889 1197 CURVE",
"900 1150 OFFCURVE",
"908 1108 OFFCURVE",
"913 1073 CURVE",
"910 1073 OFFCURVE",
"909 1072 OFFCURVE",
"909 1069 CURVE",
"772 1088 OFFCURVE",
"658 1097 OFFCURVE",
"569 1097 CURVE SMOOTH",
"481 1097 LINE SMOOTH",
"450 1097 OFFCURVE",
"418 1093 OFFCURVE",
"384 1085 CURVE",
"384 1077 LINE SMOOTH",
"384 1064 OFFCURVE",
"383 1044 OFFCURVE",
"380 1017 CURVE",
"818 886 OFFCURVE",
"1037 707 OFFCURVE",
"1037 481 CURVE SMOOTH",
"1037 323 OFFCURVE",
"961 187 OFFCURVE",
"809 72 CURVE",
"726 27 OFFCURVE",
"636 4 OFFCURVE",
"537 4 CURVE SMOOTH",
"517 4 LINE SMOOTH",
"391 4 OFFCURVE",
"275 29 OFFCURVE",
"168 80 CURVE",
"139 103 OFFCURVE",
"124 125 OFFCURVE",
"124 148 CURVE SMOOTH",
"124 211 OFFCURVE",
"181 282 OFFCURVE",
"296 360 CURVE",
"304 360 LINE",
"395 355 OFFCURVE",
"452 352 OFFCURVE",
"477 352 CURVE SMOOTH",
"558 352 OFFCURVE",
"603 379 OFFCURVE",
"613 433 CURVE",
"613 524 OFFCURVE",
"465 639 OFFCURVE",
"168 777 CURVE",
"80 834 OFFCURVE",
"20 1098 OFFCURVE",
"20 1249 CURVE SMOOTH",
"20 1314 OFFCURVE",
"25 1346 OFFCURVE",
"36 1346 CURVE",
"313 1367 OFFCURVE",
"479 1378 OFFCURVE",
"533 1378 CURVE SMOOTH"
);
}
);
width = 1057;
}
);
unicode = 0035;
},
{
glyphname = six;
layers = (
{
layerId = "B727121D-3B30-4656-AEE9-0CFAB48D4F65";
name = Regular;
paths = (
{
closed = 1;
nodes = (
"645 1370 OFFCURVE",
"690 1361 OFFCURVE",
"733 1342 CURVE",
"733 1338 LINE",
"532 1145 OFFCURVE",
"425 1010 OFFCURVE",
"412 933 CURVE",
"416 933 LINE",
"443 936 OFFCURVE",
"465 937 OFFCURVE",
"481 937 CURVE SMOOTH",
"533 937 LINE SMOOTH",
"676 937 OFFCURVE",
"796 900 OFFCURVE",
"893 825 CURVE",
"997 718 OFFCURVE",
"1049 600 OFFCURVE",
"1049 469 CURVE SMOOTH",
"1049 309 OFFCURVE",
"941 167 OFFCURVE",
"725 44 CURVE",
"660 15 OFFCURVE",
"603 0 OFFCURVE",
"553 0 CURVE SMOOTH",
"513 0 LINE SMOOTH",
"310 0 OFFCURVE",
"163 111 OFFCURVE",
"72 332 CURVE",
"37 429 OFFCURVE",
"20 536 OFFCURVE",
"20 653 CURVE SMOOTH",
"20 825 OFFCURVE",
"60 985 OFFCURVE",
"140 1133 CURVE",
"219 1238 OFFCURVE",
"327 1311 OFFCURVE",
"465 1350 CURVE",
"504 1363 OFFCURVE",
"548 1370 OFFCURVE",
"597 1370 CURVE SMOOTH"
);
},
{
closed = 1;
nodes = (
"388 521 LINE",
"411 435 OFFCURVE",
"462 392 OFFCURVE",
"541 392 CURVE SMOOTH",
"621 392 OFFCURVE",
"672 436 OFFCURVE",
"693 525 CURVE",
"693 545 LINE SMOOTH",
"693 598 OFFCURVE",
"658 636 OFFCURVE",
"589 661 CURVE",
"578 666 OFFCURVE",
"564 669 OFFCURVE",
"545 669 CURVE SMOOTH",
"537 669 LINE SMOOTH",
"463 669 OFFCURVE",
"413 632 OFFCURVE",
"388 557 CURVE"
);
}
);
width = 1069;
}
);
unicode = 0036;
},
{
glyphname = seven;
layers = (
{
layerId = "B727121D-3B30-4656-AEE9-0CFAB48D4F65";
name = Regular;
paths = (
{
closed = 1;
nodes = (
"964 1372 LINE",
"969 1371 OFFCURVE",
"972 1369 OFFCURVE",
"972 1364 CURVE",
"724 523 OFFCURVE",
"593 87 OFFCURVE",
"580 56 CURVE",
"551 19 OFFCURVE",
"515 0 OFFCURVE",
"472 0 CURVE SMOOTH",
"452 0 LINE SMOOTH",
"378 0 OFFCURVE",
"319 40 OFFCURVE",
"276 120 CURVE",
"272 144 LINE",
"272 172 LINE",
"512 1020 LINE",
"321 1017 OFFCURVE",
"195 1015 OFFCURVE",
"136 1012 CURVE",
"91 1012 OFFCURVE",
"60 1079 OFFCURVE",
"44 1212 CURVE",
"44 1244 LINE SMOOTH",
"44 1313 OFFCURVE",
"75 1355 OFFCURVE",
"136 1372 CURVE"
);
}
);
width = 1014;
}
);
unicode = 0037;
},
{
glyphname = eight;
layers = (
{
layerId = "B727121D-3B30-4656-AEE9-0CFAB48D4F65";
name = Regular;
paths = (
{
closed = 1;
nodes = (
"536 1366 LINE",
"815 1304 OFFCURVE",
"954 1164 OFFCURVE",
"954 947 CURVE SMOOTH",
"954 853 OFFCURVE",
"904 757 OFFCURVE",
"805 658 CURVE",
"805 648 LINE",
"924 595 OFFCURVE",
"984 502 OFFCURVE",
"984 369 CURVE SMOOTH",
"984 339 LINE SMOOTH",
"984 186 OFFCURVE",
"851 73 OFFCURVE",
"585 0 CURVE",
"456 0 LINE SMOOTH",
"244 0 OFFCURVE",
"108 96 OFFCURVE",
"47 289 CURVE",
"37 409 LINE",
"37 552 OFFCURVE",
"90 675 OFFCURVE",
"197 778 CURVE",
"130 867 OFFCURVE",
"94 950 OFFCURVE",
"87 1027 CURVE",
"87 1174 OFFCURVE",
"170 1280 OFFCURVE",
"336 1346 CURVE",
"362 1359 OFFCURVE",
"399 1366 OFFCURVE",
"446 1366 CURVE SMOOTH"
);
},
{
closed = 1;
nodes = (
"386 907 LINE SMOOTH",
"386 840 OFFCURVE",
"439 797 OFFCURVE",
"545 778 CURVE",
"606 778 OFFCURVE",
"646 831 OFFCURVE",
"665 937 CURVE",
"665 1010 OFFCURVE",
"609 1054 OFFCURVE",
"496 1067 CURVE",
"423 1044 OFFCURVE",
"386 1004 OFFCURVE",
"386 947 CURVE SMOOTH"
);
},
{
closed = 1;
nodes = (
"406 399 LINE",
"422 319 OFFCURVE",
"462 279 OFFCURVE",
"526 279 CURVE SMOOTH",
"565 279 LINE SMOOTH",
"634 279 OFFCURVE",
"674 326 OFFCURVE",
"685 419 CURVE",
"685 449 LINE SMOOTH",
"685 523 OFFCURVE",
"635 566 OFFCURVE",
"536 578 CURVE",
"449 563 OFFCURVE",
"406 520 OFFCURVE",
"406 449 CURVE SMOOTH"
);
}
);
width = 1014;
}
);
unicode = 0038;
},
{
glyphname = nine;
layers = (
{
layerId = "B727121D-3B30-4656-AEE9-0CFAB48D4F65";
name = Regular;
paths = (
{
closed = 1;
nodes = (
"597 1382 LINE SMOOTH",
"722 1382 OFFCURVE",
"826 1315 OFFCURVE",
"909 1181 CURVE",
"941 1118 OFFCURVE",
"957 1030 OFFCURVE",
"957 917 CURVE SMOOTH",
"957 845 LINE SMOOTH",
"957 520 OFFCURVE",
"869 274 OFFCURVE",
"693 108 CURVE",
"616 44 OFFCURVE",
"531 12 OFFCURVE",
"440 12 CURVE SMOOTH",
"384 12 LINE",
"376 16 LINE",
"475 201 OFFCURVE",
"525 325 OFFCURVE",
"525 388 CURVE",
"386 406 OFFCURVE",
"292 433 OFFCURVE",
"244 469 CURVE",
"80 556 OFFCURVE",
"20 769 OFFCURVE",
"20 917 CURVE SMOOTH",
"20 1304 OFFCURVE",
"402 1382 OFFCURVE",
"569 1382 CURVE SMOOTH"
);
},
{
closed = 1;
nodes = (
"384 869 LINE SMOOTH",
"384 830 OFFCURVE",
"414 795 OFFCURVE",
"473 765 CURVE SMOOTH",
"490 757 OFFCURVE",
"509 753 OFFCURVE",
"529 753 CURVE SMOOTH",
"545 753 LINE SMOOTH",
"616 753 OFFCURVE",
"664 790 OFFCURVE",
"689 865 CURVE",
"689 905 LINE SMOOTH",
"689 942 OFFCURVE",
"662 976 OFFCURVE",
"609 1009 CURVE",
"590 1019 OFFCURVE",
"566 1026 OFFCURVE",
"537 1029 CURVE",
"471 1029 OFFCURVE",
"423 996 OFFCURVE",
"392 929 CURVE SMOOTH",
"387 919 OFFCURVE",
"384 908 OFFCURVE",
"384 897 CURVE SMOOTH"
);
}
);
width = 977;
}
);
unicode = 0039;
},
{
glyphname = colon;
layers = (
{
layerId = "B727121D-3B30-4656-AEE9-0CFAB48D4F65";
name = Regular;
paths = (
{
closed = 1;
nodes = (
"512 1465 OFFCURVE",
"581 1434 OFFCURVE",
"639 1373 CURVE",
"668 1326 OFFCURVE",
"683 1284 OFFCURVE",
"683 1245 CURVE",
"687 1241 LINE",
"679 1190 OFFCURVE",
"662 1144 OFFCURVE",
"635 1101 CURVE",
"585 1041 OFFCURVE",
"544 1006 OFFCURVE",
"511 997 CURVE",
"488 976 OFFCURVE",
"432 960 OFFCURVE",
"343 949 CURVE",
"239 960 OFFCURVE",
"187 972 OFFCURVE",
"187 985 CURVE",
"156 985 OFFCURVE",
"124 1013 OFFCURVE",
"91 1069 CURVE",
"75 1105 OFFCURVE",
"67 1137 OFFCURVE",
"67 1165 CURVE SMOOTH",
"67 1181 LINE SMOOTH",
"67 1238 OFFCURVE",
"102 1299 OFFCURVE",
"171 1365 CURVE",
"256 1432 OFFCURVE",
"343 1465 OFFCURVE",
"431 1465 CURVE SMOOTH"
);
},
{
closed = 1;
nodes = (
"494 517 OFFCURVE",
"574 468 OFFCURVE",
"615 369 CURVE",
"635 297 LINE",
"630 249 OFFCURVE",
"606 194 OFFCURVE",
"563 133 CURVE",
"512 82 OFFCURVE",
"460 46 OFFCURVE",
"407 25 CURVE",
"343 9 LINE",
"259 5 LINE",
"239 9 LINE",
"227 5 LINE",
"131 33 LINE",
"79 60 OFFCURVE",
"48 90 OFFCURVE",
"39 121 CURVE",
"33 122 OFFCURVE",
"25 146 OFFCURVE",
"15 193 CURVE",
"15 253 LINE",
"23 294 OFFCURVE",
"43 336 OFFCURVE",
"75 377 CURVE",
"162 470 OFFCURVE",
"262 517 OFFCURVE",
"375 517 CURVE SMOOTH"
);
}
);
width = 757;
}
);
unicode = 003A;
},
{
glyphname = semicolon;
layers = (
{
layerId = "B727121D-3B30-4656-AEE9-0CFAB48D4F65";
name = Regular;
paths = (
{
closed = 1;
nodes = (
"690 1351 OFFCURVE",
"761 1319 OFFCURVE",
"815 1255 CURVE",
"844 1206 OFFCURVE",
"859 1164 OFFCURVE",
"859 1127 CURVE",
"854 1079 OFFCURVE",
"843 1042 OFFCURVE",
"827 1015 CURVE",
"821 1014 OFFCURVE",
"813 1001 OFFCURVE",
"803 975 CURVE",
"739 911 LINE",
"667 866 OFFCURVE",
"606 843 OFFCURVE",
"555 843 CURVE",
"555 838 OFFCURVE",
"543 835 OFFCURVE",
"519 835 CURVE",
"415 846 OFFCURVE",
"363 858 OFFCURVE",
"363 871 CURVE",
"338 871 OFFCURVE",
"312 888 OFFCURVE",
"287 923 CURVE",
"277 926 OFFCURVE",
"264 953 OFFCURVE",
"247 1003 CURVE",
"243 1019 LINE",
"243 1095 LINE",
"264 1166 OFFCURVE",
"309 1226 OFFCURVE",
"379 1275 CURVE SMOOTH",
"455 1326 OFFCURVE",
"530 1351 OFFCURVE",
"603 1351 CURVE SMOOTH"
);
},
{
closed = 1;
nodes = (
"659 375 LINE",
"667 367 LINE",
"667 355 LINE",
"643 309 OFFCURVE",
"630 277 OFFCURVE",
"627 259 CURVE",
"622 257 OFFCURVE",
"595 204 OFFCURVE",
"547 99 CURVE",
"542 96 OFFCURVE",
"508 37 OFFCURVE",
"447 -80 CURVE",
"442 -80 OFFCURVE",
"426 -104 OFFCURVE",
"399 -152 CURVE",
"363 -210 OFFCURVE",
"330 -255 OFFCURVE",
"299 -288 CURVE",
"271 -308 LINE",
"216 -295 OFFCURVE",
"152 -287 OFFCURVE",
"79 -284 CURVE",
"57 -271 OFFCURVE",
"33 -264 OFFCURVE",
"7 -264 CURVE",
"3 -260 LINE",
"3 -252 LINE",
"16 -240 OFFCURVE",
"25 -224 OFFCURVE",
"31 -204 CURVE",
"36 -204 OFFCURVE",
"51 -177 OFFCURVE",
"75 -124 CURVE SMOOTH",
"91 -88 LINE",
"96 -88 OFFCURVE",
"99 -84 OFFCURVE",
"99 -76 CURVE",
"107 -48 LINE",
"115 -43 OFFCURVE",
"123 -26 OFFCURVE",
"131 3 CURVE",
"152 37 OFFCURVE",
"163 65 OFFCURVE",
"163 87 CURVE",
"185 118 OFFCURVE",
"201 156 OFFCURVE",
"211 203 CURVE",
"216 203 OFFCURVE",
"223 220 OFFCURVE",
"231 255 CURVE",
"236 255 OFFCURVE",
"243 276 OFFCURVE",
"251 319 CURVE",
"258 340 OFFCURVE",
"277 351 OFFCURVE",
"307 351 CURVE",
"364 356 OFFCURVE",
"450 359 OFFCURVE",
"567 359 CURVE SMOOTH",
"588 359 OFFCURVE",
"618 364 OFFCURVE",
"655 375 CURVE"
);
}
);
width = 892;
}
);
unicode = 003B;
},
{
glyphname = less;
layers = (
{
layerId = "B727121D-3B30-4656-AEE9-0CFAB48D4F65";
name = Regular;
paths = (
{
closed = 1;
nodes = (
"672 1768 LINE",
"820 1636 LINE",
"824 1620 LINE",
"824 1616 LINE",
"732 1480 LINE SMOOTH",
"602 1283 OFFCURVE",
"463 1093 OFFCURVE",
"316 908 CURVE",
"305 897 OFFCURVE",
"300 886 OFFCURVE",
"300 876 CURVE",
"453 699 OFFCURVE",
"616 489 OFFCURVE",
"788 248 CURVE SMOOTH",
"848 168 LINE",
"856 168 OFFCURVE",
"860 165 OFFCURVE",
"860 160 CURVE SMOOTH",
"860 148 LINE",
"761 49 OFFCURVE",
"702 0 OFFCURVE",
"684 0 CURVE",
"619 121 OFFCURVE",
"510 278 OFFCURVE",
"356 472 CURVE SMOOTH",
"281 563 OFFCURVE",
"222 630 OFFCURVE",
"180 672 CURVE SMOOTH",
"0 852 LINE",
"0 856 LINE",
"55 911 OFFCURVE",
"113 977 OFFCURVE",
"172 1052 CURVE SMOOTH",
"328 1247 OFFCURVE",
"463 1440 OFFCURVE",
"576 1632 CURVE SMOOTH",
"660 1768 LINE"
);
}
);
width = 987;
}
);
unicode = 003C;
},
{
glyphname = equal;
layers = (
{
layerId = "B727121D-3B30-4656-AEE9-0CFAB48D4F65";
name = Regular;
paths = (
{
closed = 1;
nodes = (
"973 1308 LINE",
"1029 1308 LINE SMOOTH",
"1045 1308 OFFCURVE",
"1053 1257 OFFCURVE",
"1053 1156 CURVE SMOOTH",
"1053 1108 LINE SMOOTH",
"1053 1089 OFFCURVE",
"1044 1080 OFFCURVE",
"1025 1080 CURVE SMOOTH",
"989 1080 LINE",
"870 1064 OFFCURVE",
"778 1056 OFFCURVE",
"713 1056 CURVE",
"682 1047 OFFCURVE",
"575 1039 OFFCURVE",
"393 1032 CURVE",
"393 1029 OFFCURVE",
"373 1026 OFFCURVE",
"333 1024 CURVE",
"329 1028 LINE",
"325 1028 LINE",
"299 1023 OFFCURVE",
"260 1020 OFFCURVE",
"209 1020 CURVE SMOOTH",
"161 1020 LINE",
"145 1036 LINE",
"145 1060 LINE",
"125 1176 LINE",
"125 1220 LINE",
"137 1232 LINE",
"529 1252 LINE",
"567 1262 OFFCURVE",
"636 1269 OFFCURVE",
"737 1272 CURVE",
"777 1285 OFFCURVE",
"832 1292 OFFCURVE",
"901 1292 CURVE"
);
},
{
closed = 1;
nodes = (
"1072 800 OFFCURVE",
"1082 753 OFFCURVE",
"1089 660 CURVE",
"1089 616 LINE",
"1093 600 LINE",
"1093 573 OFFCURVE",
"1056 560 OFFCURVE",
"981 560 CURVE",
"892 547 OFFCURVE",
"796 539 OFFCURVE",
"693 536 CURVE",
"642 527 OFFCURVE",
"524 519 OFFCURVE",
"337 512 CURVE",
"197 500 LINE",
"187 500 OFFCURVE",
"176 548 OFFCURVE",
"165 644 CURVE SMOOTH",
"157 700 LINE",
"177 716 LINE",
"301 724 LINE",
"305 720 LINE",
"309 720 LINE",
"442 726 OFFCURVE",
"550 735 OFFCURVE",
"633 748 CURVE",
"684 748 OFFCURVE",
"749 755 OFFCURVE",
"829 768 CURVE",
"856 768 OFFCURVE",
"911 775 OFFCURVE",
"993 788 CURVE",
"1014 788 OFFCURVE",
"1037 792 OFFCURVE",
"1061 800 CURVE"
);
}
);
width = 1272;
}
);
unicode = 003D;
},
{
glyphname = greater;
layers = (
{
layerId = "B727121D-3B30-4656-AEE9-0CFAB48D4F65";
name = Regular;
paths = (
{
closed = 1;
nodes = (
"192 1768 LINE",
"204 1767 OFFCURVE",
"236 1719 OFFCURVE",
"288 1624 CURVE",
"323 1573 OFFCURVE",
"340 1543 OFFCURVE",
"340 1532 CURVE",
"347 1531 OFFCURVE",
"363 1508 OFFCURVE",
"388 1464 CURVE",
"468 1344 LINE",
"565 1210 OFFCURVE",
"630 1123 OFFCURVE",
"664 1084 CURVE SMOOTH",
"760 968 LINE",
"773 944 OFFCURVE",
"807 907 OFFCURVE",
"860 856 CURVE",
"860 852 LINE",
"696 688 LINE SMOOTH",
"648 643 OFFCURVE",
"571 553 OFFCURVE",
"464 420 CURVE SMOOTH",
"367 296 OFFCURVE",
"291 189 OFFCURVE",
"236 100 CURVE",
"168 0 LINE",
"164 0 LINE",
"57 89 OFFCURVE",
"3 140 OFFCURVE",
"0 152 CURVE",
"0 156 LINE",
"29 190 OFFCURVE",
"50 219 OFFCURVE",
"64 244 CURVE",
"240 484 LINE",
"245 484 OFFCURVE",
"272 519 OFFCURVE",
"320 588 CURVE",
"325 588 OFFCURVE",
"345 613 OFFCURVE",
"380 664 CURVE",
"556 876 LINE",
"556 887 OFFCURVE",
"513 947 OFFCURVE",
"428 1056 CURVE SMOOTH",
"345 1166 OFFCURVE",
"265 1278 OFFCURVE",
"188 1392 CURVE SMOOTH",
"76 1556 LINE",
"40 1612 LINE",
"40 1632 LINE"
);
}
);
width = 992;
}
);
unicode = 003E;
},
{
glyphname = question;
layers = (
{
layerId = "B727121D-3B30-4656-AEE9-0CFAB48D4F65";
name = Regular;
paths = (
{
closed = 1;
nodes = (
"549 1844 LINE",
"553 1840 LINE",
"593 1844 LINE",
"673 1844 LINE SMOOTH",
"845 1844 OFFCURVE",
"1080 1811 OFFCURVE",
"1161 1784 CURVE",
"1226 1769 OFFCURVE",
"1301 1739 OFFCURVE",
"1385 1696 CURVE",
"1424 1674 OFFCURVE",
"1470 1638 OFFCURVE",
"1521 1588 CURVE",
"1566 1519 OFFCURVE",
"1592 1463 OFFCURVE",
"1597 1420 CURVE",
"1597 1316 LINE",
"1584 1287 OFFCURVE",
"1577 1264 OFFCURVE",
"1577 1248 CURVE",
"1548 1189 OFFCURVE",
"1510 1132 OFFCURVE",
"1461 1076 CURVE",
"1348 973 OFFCURVE",
"1248 903 OFFCURVE",
"1161 868 CURVE",
"1161 863 OFFCURVE",
"1148 856 OFFCURVE",
"1121 848 CURVE",
"1121 843 OFFCURVE",
"1106 836 OFFCURVE",
"1077 828 CURVE",
"1077 821 OFFCURVE",
"1060 815 OFFCURVE",
"1025 812 CURVE",
"1025 804 OFFCURVE",
"1005 796 OFFCURVE",
"965 788 CURVE",
"965 783 OFFCURVE",
"944 776 OFFCURVE",
"901 768 CURVE",
"899 762 OFFCURVE",
"860 754 OFFCURVE",
"785 744 CURVE",
"781 740 LINE",
"777 740 LINE",
"765 744 LINE",
"749 744 OFFCURVE",
"741 732 OFFCURVE",
"741 708 CURVE",
"736 593 OFFCURVE",
"726 536 OFFCURVE",
"709 536 CURVE SMOOTH",
"509 536 LINE",
"402 523 OFFCURVE",
"332 504 OFFCURVE",
"301 480 CURVE",
"293 480 LINE",
"281 492 LINE",
"286 497 OFFCURVE",
"290 531 OFFCURVE",
"293 592 CURVE",
"301 600 OFFCURVE",
"309 643 OFFCURVE",
"317 720 CURVE",
"324 739 OFFCURVE",
"331 781 OFFCURVE",
"337 848 CURVE",
"343 849 OFFCURVE",
"348 884 OFFCURVE",
"353 952 CURVE",
"356 952 OFFCURVE",
"360 968 OFFCURVE",
"365 1000 CURVE SMOOTH",
"369 1027 OFFCURVE",
"378 1040 OFFCURVE",
"393 1040 CURVE SMOOTH",
"482 1040 OFFCURVE",
"544 1047 OFFCURVE",
"581 1060 CURVE",
"610 1063 OFFCURVE",
"676 1077 OFFCURVE",
"777 1104 CURVE",
"805 1117 OFFCURVE",
"829 1124 OFFCURVE",
"849 1124 CURVE",
"854 1133 OFFCURVE",
"879 1142 OFFCURVE",
"925 1152 CURVE",
"925 1160 OFFCURVE",
"938 1164 OFFCURVE",
"965 1164 CURVE",
"976 1176 OFFCURVE",
"992 1185 OFFCURVE",
"1013 1192 CURVE",
"1013 1200 OFFCURVE",
"1021 1204 OFFCURVE",
"1037 1204 CURVE",
"1089 1252 LINE",
"1105 1304 LINE",
"1086 1341 OFFCURVE",
"1054 1360 OFFCURVE",
"1009 1360 CURVE",
"1009 1367 OFFCURVE",
"952 1375 OFFCURVE",
"837 1384 CURVE",
"837 1391 OFFCURVE",
"777 1395 OFFCURVE",
"657 1396 CURVE SMOOTH",
"649 1396 LINE SMOOTH",
"614 1396 OFFCURVE",
"556 1389 OFFCURVE",
"473 1376 CURVE",
"456 1376 OFFCURVE",
"369 1356 OFFCURVE",
"213 1316 CURVE",
"161 1296 LINE",
"147 1296 OFFCURVE",
"131 1289 OFFCURVE",
"113 1276 CURVE",
"104 1276 OFFCURVE",
"75 1261 OFFCURVE",
"25 1232 CURVE",
"5 1240 LINE",
"9 1368 LINE",
"9 1380 LINE",
"57 1596 LINE",
"62 1596 OFFCURVE",
"68 1620 OFFCURVE",
"77 1668 CURVE",
"82 1668 OFFCURVE",
"89 1689 OFFCURVE",
"97 1732 CURVE",
"101 1732 OFFCURVE",
"108 1743 OFFCURVE",
"117 1764 CURVE",
"189 1784 LINE SMOOTH",
"241 1797 OFFCURVE",
"289 1807 OFFCURVE",
"333 1812 CURVE",
"333 1820 OFFCURVE",
"378 1825 OFFCURVE",
"469 1828 CURVE"
);
},
{
closed = 1;
nodes = (
"569 380 LINE SMOOTH",
"620 380 OFFCURVE",
"673 372 OFFCURVE",
"729 356 CURVE",
"729 352 OFFCURVE",
"742 345 OFFCURVE",
"769 336 CURVE",
"805 307 OFFCURVE",
"828 280 OFFCURVE",
"837 256 CURVE",
"837 184 LINE",
"828 125 OFFCURVE",
"778 64 OFFCURVE",
"685 0 CURVE",
"641 -24 LINE",
"556 -61 OFFCURVE",
"484 -80 OFFCURVE",
"425 -80 CURVE SMOOTH",
"405 -80 LINE",
"314 -67 OFFCURVE",
"260 -49 OFFCURVE",
"245 -28 CURVE",
"237 -28 OFFCURVE",
"221 -12 OFFCURVE",
"197 20 CURVE",
"191 20 OFFCURVE",
"187 32 OFFCURVE",
"185 56 CURVE",
"178 56 OFFCURVE",
"173 71 OFFCURVE",
"169 100 CURVE",
"169 151 OFFCURVE",
"198 207 OFFCURVE",
"257 268 CURVE",
"303 308 OFFCURVE",
"334 328 OFFCURVE",
"349 328 CURVE",
"349 338 OFFCURVE",
"366 345 OFFCURVE",
"401 348 CURVE",
"401 358 OFFCURVE",
"449 369 OFFCURVE",
"545 380 CURVE"
);
}
);
width = 1677;
}
);
unicode = 003F;
},
{
glyphname = at;
layers = (
{
layerId = "B727121D-3B30-4656-AEE9-0CFAB48D4F65";
name = Regular;
paths = (
{
closed = 1;
nodes = (
"1149 1839 OFFCURVE",
"1236 1829 OFFCURVE",
"1277 1816 CURVE",
"1297 1816 OFFCURVE",
"1322 1809 OFFCURVE",
"1353 1796 CURVE",
"1371 1796 OFFCURVE",
"1410 1783 OFFCURVE",
"1469 1756 CURVE",
"1479 1756 OFFCURVE",
"1516 1737 OFFCURVE",
"1581 1700 CURVE",
"1713 1609 OFFCURVE",
"1801 1509 OFFCURVE",
"1845 1400 CURVE",
"1869 1356 OFFCURVE",
"1881 1325 OFFCURVE",
"1881 1308 CURVE",
"1890 1308 OFFCURVE",
"1898 1280 OFFCURVE",
"1905 1224 CURVE",
"1913 1224 OFFCURVE",
"1918 1191 OFFCURVE",
"1921 1124 CURVE",
"1929 1124 OFFCURVE",
"1934 1075 OFFCURVE",
"1937 976 CURVE SMOOTH",
"1937 912 LINE",
"1917 772 LINE",
"1897 716 LINE",
"1890 671 OFFCURVE",
"1846 601 OFFCURVE",
"1765 508 CURVE",
"1697 463 OFFCURVE",
"1658 440 OFFCURVE",
"1649 440 CURVE",
"1644 434 OFFCURVE",
"1625 426 OFFCURVE",
"1593 416 CURVE",
"1593 412 OFFCURVE",
"1560 407 OFFCURVE",
"1493 400 CURVE",
"1412 400 OFFCURVE",
"1355 409 OFFCURVE",
"1321 428 CURVE",
"1292 428 OFFCURVE",
"1240 456 OFFCURVE",
"1165 512 CURVE",
"1101 592 LINE",
"1014 517 OFFCURVE",
"934 476 OFFCURVE",
"861 468 CURVE",
"813 468 LINE",
"797 464 LINE",
"781 468 LINE",
"737 468 LINE",
"668 488 OFFCURVE",
"626 512 OFFCURVE",
"609 540 CURVE",
"578 564 OFFCURVE",
"554 596 OFFCURVE",
"537 636 CURVE",
"534 636 OFFCURVE",
"524 663 OFFCURVE",
"509 716 CURVE",
"509 868 LINE",
"526 969 OFFCURVE",
"571 1066 OFFCURVE",
"645 1160 CURVE",
"724 1237 OFFCURVE",
"788 1278 OFFCURVE",
"837 1284 CURVE",
"846 1292 OFFCURVE",
"862 1296 OFFCURVE",
"885 1296 CURVE SMOOTH",
"925 1296 LINE",
"941 1300 LINE",
"957 1296 LINE",
"993 1296 LINE",
"1050 1283 OFFCURVE",
"1092 1265 OFFCURVE",
"1117 1244 CURVE",
"1121 1244 LINE SMOOTH",
"1126 1244 OFFCURVE",
"1130 1257 OFFCURVE",
"1133 1284 CURVE",
"1145 1288 LINE",
"1205 1276 LINE",
"1345 1276 LINE",
"1361 1275 OFFCURVE",
"1369 1271 OFFCURVE",
"1369 1264 CURVE SMOOTH",
"1369 1256 LINE",
"1361 1249 OFFCURVE",
"1356 1227 OFFCURVE",
"1353 1192 CURVE",
"1345 1187 OFFCURVE",
"1337 1158 OFFCURVE",
"1329 1104 CURVE",
"1323 1104 OFFCURVE",
"1316 1075 OFFCURVE",
"1309 1016 CURVE",
"1301 1016 OFFCURVE",
"1296 971 OFFCURVE",
"1293 880 CURVE SMOOTH",
"1293 814 OFFCURVE",
"1313 763 OFFCURVE",
"1353 728 CURVE",
"1360 713 OFFCURVE",
"1396 699 OFFCURVE",
"1461 684 CURVE",
"1542 684 OFFCURVE",
"1598 728 OFFCURVE",
"1629 816 CURVE",
"1645 936 LINE",
"1634 1065 OFFCURVE",
"1616 1160 OFFCURVE",
"1589 1220 CURVE SMOOTH",
"1548 1315 OFFCURVE",
"1484 1403 OFFCURVE",
"1393 1460 CURVE",
"1370 1476 OFFCURVE",
"1348 1488 OFFCURVE",
"1325 1496 CURVE",
"1276 1528 OFFCURVE",
"1187 1552 OFFCURVE",
"1057 1568 CURVE",
"913 1568 LINE",
"864 1555 OFFCURVE",
"823 1547 OFFCURVE",
"789 1544 CURVE",
"789 1538 OFFCURVE",
"766 1530 OFFCURVE",
"721 1520 CURVE",
"613 1464 LINE",
"613 1456 OFFCURVE",
"594 1443 OFFCURVE",
"557 1424 CURVE",
"557 1419 OFFCURVE",
"541 1403 OFFCURVE",
"509 1376 CURVE",
"441 1305 OFFCURVE",
"394 1239 OFFCURVE",
"369 1176 CURVE",
"364 1176 OFFCURVE",
"357 1161 OFFCURVE",
"349 1132 CURVE",
"330 1103 OFFCURVE",
"317 1060 OFFCURVE",
"309 1004 CURVE",
"303 1004 OFFCURVE",
"296 964 OFFCURVE",
"289 884 CURVE",
"294 745 OFFCURVE",
"302 676 OFFCURVE",
"313 676 CURVE",
"313 647 OFFCURVE",
"328 598 OFFCURVE",
"357 528 CURVE",
"385 473 OFFCURVE",
"413 429 OFFCURVE",
"441 396 CURVE",
"503 334 OFFCURVE",
"547 298 OFFCURVE",
"573 288 CURVE",
"629 250 OFFCURVE",
"700 223 OFFCURVE",
"785 208 CURVE",
"785 201 OFFCURVE",
"826 196 OFFCURVE",
"909 192 CURVE",
"913 196 LINE",
"917 196 LINE",
"981 188 LINE",
"1101 194 OFFCURVE",
"1161 203 OFFCURVE",
"1161 216 CURVE",
"1187 216 OFFCURVE",
"1210 223 OFFCURVE",
"1229 236 CURVE",
"1269 240 LINE",
"1300 175 OFFCURVE",
"1334 117 OFFCURVE",
"1373 64 CURVE",
"1373 60 LINE SMOOTH",
"1373 52 OFFCURVE",
"1362 48 OFFCURVE",
"1341 48 CURVE",
"1332 36 OFFCURVE",
"1303 23 OFFCURVE",
"1253 8 CURVE SMOOTH",
"1134 -24 OFFCURVE",
"1018 -40 OFFCURVE",
"905 -40 CURVE SMOOTH",
"766 -40 OFFCURVE",
"648 -20 OFFCURVE",
"553 20 CURVE",
"505 36 OFFCURVE",
"452 64 OFFCURVE",
"393 104 CURVE",
"384 105 OFFCURVE",
"373 113 OFFCURVE",
"361 128 CURVE",
"346 128 OFFCURVE",
"302 167 OFFCURVE",
"229 244 CURVE",
"109 387 OFFCURVE",
"58 499 OFFCURVE",
"21 676 CURVE",
"14 676 OFFCURVE",
"9 736 OFFCURVE",
"5 856 CURVE",
"5 1039 OFFCURVE",
"53 1213 OFFCURVE",
"149 1376 CURVE SMOOTH",
"197 1455 OFFCURVE",
"261 1532 OFFCURVE",
"341 1608 CURVE",
"378 1634 OFFCURVE",
"397 1650 OFFCURVE",
"397 1656 CURVE",
"479 1710 OFFCURVE",
"551 1750 OFFCURVE",
"613 1776 CURVE",
"669 1796 LINE SMOOTH",
"716 1812 OFFCURVE",
"751 1820 OFFCURVE",
"773 1820 CURVE",
"773 1832 OFFCURVE",
"854 1840 OFFCURVE",
"1017 1844 CURVE"
);
},
{
closed = 1;
nodes = (
"781 820 LINE",
"792 759 OFFCURVE",
"817 728 OFFCURVE",
"857 728 CURVE SMOOTH",
"861 728 LINE SMOOTH",
"921 728 OFFCURVE",
"960 757 OFFCURVE",
"977 816 CURVE",
"984 816 OFFCURVE",
"994 857 OFFCURVE",
"1005 940 CURVE",
"1005 994 OFFCURVE",
"980 1029 OFFCURVE",
"929 1044 CURVE",
"921 1044 LINE",
"878 1034 OFFCURVE",
"852 1022 OFFCURVE",
"845 1008 CURVE",
"828 993 OFFCURVE",
"815 973 OFFCURVE",
"805 948 CURVE",
"789 913 OFFCURVE",
"781 883 OFFCURVE",
"781 860 CURVE SMOOTH"
);
}
);
width = 2079;
}
);
unicode = 0040;
},
{
glyphname = A;
layers = (
{
layerId = "B727121D-3B30-4656-AEE9-0CFAB48D4F65";
name = Regular;
paths = (
{
closed = 1;
nodes = (
"504 1436 LINE SMOOTH",
"610 1436 OFFCURVE",
"753 1277 OFFCURVE",
"932 960 CURVE",
"1091 623 OFFCURVE",
"1170 321 OFFCURVE",
"1170 53 CURVE SMOOTH",
"1170 32 LINE SMOOTH",
"1170 14 OFFCURVE",
"1165 3 OFFCURVE",
"1156 0 CURVE",
"1145 0 LINE SMOOTH",
"1091 0 OFFCURVE",
"959 100 OFFCURVE",
"750 301 CURVE",
"530 138 OFFCURVE",
"259 21 OFFCURVE",
"102 21 CURVE SMOOTH",
"95 21 LINE",
"34 34 OFFCURVE",
"4 87 OFFCURVE",
"4 179 CURVE",
"1 179 OFFCURVE",
"0 194 OFFCURVE",
"0 224 CURVE SMOOTH",
"0 413 OFFCURVE",
"70 702 OFFCURVE",
"210 1089 CURVE",
"310 1320 OFFCURVE",
"405 1436 OFFCURVE",
"494 1436 CURVE SMOOTH"
);
},
{
closed = 1;
nodes = (
"357 630 LINE SMOOTH",
"357 549 OFFCURVE",
"406 501 OFFCURVE",
"504 487 CURVE",
"525 487 LINE SMOOTH",
"596 487 OFFCURVE",
"652 518 OFFCURVE",
"693 581 CURVE SMOOTH",
"707 604 OFFCURVE",
"714 628 OFFCURVE",
"714 651 CURVE SMOOTH",
"714 662 LINE SMOOTH",
"714 731 OFFCURVE",
"667 782 OFFCURVE",
"574 813 CURVE",
"565 818 OFFCURVE",
"553 820 OFFCURVE",
"536 820 CURVE SMOOTH",
"508 820 LINE SMOOTH",
"439 820 OFFCURVE",
"391 779 OFFCURVE",
"364 697 CURVE",
"359 674 OFFCURVE",
"357 653 OFFCURVE",
"357 634 CURVE SMOOTH"
);
}
);
width = 1167;
}
);
unicode = 0041;
},
{
glyphname = B;
layers = (
{
layerId = "B727121D-3B30-4656-AEE9-0CFAB48D4F65";
name = Regular;
paths = (
{
closed = 1;
nodes = (
"197 1423 LINE",
"326 1406 OFFCURVE",
"444 1377 OFFCURVE",
"549 1337 CURVE SMOOTH",
"750 1257 OFFCURVE",
"850 1158 OFFCURVE",
"850 1040 CURVE SMOOTH",
"850 965 OFFCURVE",
"811 895 OFFCURVE",
"732 829 CURVE",
"732 826 LINE",
"891 756 OFFCURVE",
"994 666 OFFCURVE",
"1043 556 CURVE",
"1062 519 OFFCURVE",
"1071 480 OFFCURVE",
"1071 439 CURVE SMOOTH",
"1071 390 LINE SMOOTH",
"1071 272 OFFCURVE",
"990 170 OFFCURVE",
"829 83 CURVE",
"693 28 OFFCURVE",
"569 0 OFFCURVE",
"456 0 CURVE SMOOTH",
"394 0 LINE SMOOTH",
"391 0 OFFCURVE",
"390 1 OFFCURVE",
"390 3 CURVE",
"388 3 OFFCURVE",
"387 2 OFFCURVE",
"387 0 CURVE",
"318 11 OFFCURVE",
"261 35 OFFCURVE",
"218 73 CURVE",
"73 190 OFFCURVE",
"0 408 OFFCURVE",
"0 726 CURVE SMOOTH",
"0 919 OFFCURVE",
"63 1151 OFFCURVE",
"190 1420 CURVE"
);
},
{
closed = 1;
nodes = (
"221 870 OFFCURVE",
"258 823 OFFCURVE",
"332 798 CURVE",
"357 793 OFFCURVE",
"374 791 OFFCURVE",
"383 791 CURVE SMOOTH",
"451 791 OFFCURVE",
"509 822 OFFCURVE",
"556 884 CURVE",
"570 910 OFFCURVE",
"577 934 OFFCURVE",
"577 957 CURVE SMOOTH",
"577 960 LINE SMOOTH",
"577 1028 OFFCURVE",
"532 1079 OFFCURVE",
"442 1112 CURVE",
"421 1117 OFFCURVE",
"403 1119 OFFCURVE",
"390 1119 CURVE SMOOTH",
"383 1119 LINE SMOOTH",
"309 1119 OFFCURVE",
"258 1081 OFFCURVE",
"231 1005 CURVE",
"227 986 OFFCURVE",
"224 964 OFFCURVE",
"221 940 CURVE"
);
},
{
closed = 1;
nodes = (
"439 380 LINE SMOOTH",
"439 305 OFFCURVE",
"487 260 OFFCURVE",
"584 245 CURVE",
"608 245 LINE SMOOTH",
"665 245 OFFCURVE",
"719 275 OFFCURVE",
"770 335 CURVE",
"784 364 OFFCURVE",
"791 388 OFFCURVE",
"791 408 CURVE SMOOTH",
"791 418 LINE SMOOTH",
"791 500 OFFCURVE",
"728 552 OFFCURVE",
"601 574 CURVE",
"596 571 OFFCURVE",
"593 570 OFFCURVE",
"591 570 CURVE",
"591 574 LINE",
"490 556 OFFCURVE",
"439 499 OFFCURVE",
"439 404 CURVE SMOOTH"
);
}
);
width = 1071;
}
);
unicode = 0042;
},
{
glyphname = C;
layers = (
{
layerId = "B727121D-3B30-4656-AEE9-0CFAB48D4F65";
name = Regular;
paths = (
{
closed = 1;
nodes = (
"947 1420 OFFCURVE",
"1047 1404 OFFCURVE",
"1047 1380 CURVE",
"1054 1369 OFFCURVE",
"1057 1353 OFFCURVE",
"1057 1332 CURVE",
"1049 1225 OFFCURVE",
"1026 1172 OFFCURVE",
"987 1172 CURVE",
"822 1133 OFFCURVE",
"715 1097 OFFCURVE",
"668 1064 CURVE",
"455 961 OFFCURVE",
"348 825 OFFCURVE",
"348 654 CURVE SMOOTH",
"348 629 LINE SMOOTH",
"348 455 OFFCURVE",
"448 338 OFFCURVE",
"647 278 CURVE SMOOTH",
"690 264 OFFCURVE",
"777 249 OFFCURVE",
"907 233 CURVE",
"907 229 LINE",
"882 149 OFFCURVE",
"843 92 OFFCURVE",
"789 59 CURVE",
"740 20 OFFCURVE",
"673 0 OFFCURVE",
"588 0 CURVE SMOOTH",
"563 0 LINE SMOOTH",
"386 0 OFFCURVE",
"268 35 OFFCURVE",
"209 104 CURVE",
"132 159 OFFCURVE",
"72 274 OFFCURVE",
"28 449 CURVE",
"9 544 OFFCURVE",
"0 627 OFFCURVE",
"0 699 CURVE SMOOTH",
"0 962 OFFCURVE",
"110 1176 OFFCURVE",
"330 1342 CURVE",
"432 1400 OFFCURVE",
"571 1429 OFFCURVE",
"748 1429 CURVE"
);
}
);
width = 1071;
}
);
unicode = 0043;
},
{
glyphname = D;
layers = (
{
layerId = "B727121D-3B30-4656-AEE9-0CFAB48D4F65";
name = Regular;
paths = (
{
closed = 1;
nodes = (
"230 1416 OFFCURVE",
"383 1354 OFFCURVE",
"551 1243 CURVE SMOOTH",
"862 1032 OFFCURVE",
"1018 760 OFFCURVE",
"1018 426 CURVE",
"1015 426 LINE",
"1015 423 OFFCURVE",
"1016 422 OFFCURVE",
"1018 422 CURVE",
"1018 277 OFFCURVE",
"941 165 OFFCURVE",
"786 87 CURVE SMOOTH",
"666 29 OFFCURVE",
"524 0 OFFCURVE",
"360 0 CURVE",
"304 2 OFFCURVE",
"273 3 OFFCURVE",
"267 3 CURVE",
"267 7 LINE",
"260 3 LINE",
"247 3 OFFCURVE",
"218 44 OFFCURVE",
"173 125 CURVE SMOOTH",
"58 334 OFFCURVE",
"0 526 OFFCURVE",
"0 703 CURVE SMOOTH",
"0 786 LINE SMOOTH",
"0 966 OFFCURVE",
"30 1178 OFFCURVE",
"90 1423 CURVE",
"92 1423 OFFCURVE",
"93 1424 OFFCURVE",
"93 1427 CURVE"
);
},
{
closed = 1;
nodes = (
"339 575 LINE SMOOTH",
"339 496 OFFCURVE",
"383 443 OFFCURVE",
"471 416 CURVE",
"492 416 LINE SMOOTH",
"561 416 OFFCURVE",
"622 457 OFFCURVE",
"675 540 CURVE",
"684 571 OFFCURVE",
"689 596 OFFCURVE",
"689 613 CURVE SMOOTH",
"689 676 OFFCURVE",
"650 721 OFFCURVE",
"571 748 CURVE",
"559 750 OFFCURVE",
"549 751 OFFCURVE",
"540 751 CURVE SMOOTH",
"512 751 LINE SMOOTH",
"431 751 OFFCURVE",
"375 711 OFFCURVE",
"343 630 CURVE",
"340 621 OFFCURVE",
"339 612 OFFCURVE",
"339 602 CURVE SMOOTH"
);
}
);
width = 1025;
}
);
unicode = 0044;
},
{
glyphname = E;
layers = (
{
layerId = "B727121D-3B30-4656-AEE9-0CFAB48D4F65";
name = Regular;
paths = (
{
closed = 1;
nodes = (
"343 1438 LINE SMOOTH",
"558 1438 OFFCURVE",
"728 1417 OFFCURVE",
"854 1375 CURVE",
"875 1344 OFFCURVE",
"892 1297 OFFCURVE",
"906 1235 CURVE SMOOTH",
"913 1206 OFFCURVE",
"917 1187 OFFCURVE",
"917 1179 CURVE",
"910 1175 LINE",
"815 1175 LINE SMOOTH",
"619 1175 OFFCURVE",
"477 1110 OFFCURVE",
"388 979 CURVE",
"363 936 OFFCURVE",
"350 895 OFFCURVE",
"350 857 CURVE SMOOTH",
"350 832 OFFCURVE",
"359 819 OFFCURVE",
"378 819 CURVE SMOOTH",
"626 819 LINE SMOOTH",
"738 819 OFFCURVE",
"794 812 OFFCURVE",
"794 798 CURVE",
"749 610 OFFCURVE",
"625 541 OFFCURVE",
"493 490 CURVE",
"428 469 OFFCURVE",
"388 457 OFFCURVE",
"374 455 CURVE",
"374 451 LINE",
"411 432 OFFCURVE",
"534 392 OFFCURVE",
"742 329 CURVE",
"873 282 OFFCURVE",
"938 243 OFFCURVE",
"938 210 CURVE",
"954 165 OFFCURVE",
"962 123 OFFCURVE",
"962 84 CURVE SMOOTH",
"962 35 LINE SMOOTH",
"962 18 OFFCURVE",
"859 6 OFFCURVE",
"654 0 CURVE SMOOTH",
"337 0 OFFCURVE",
"131 82 OFFCURVE",
"35 245 CURVE",
"12 296 OFFCURVE",
"0 343 OFFCURVE",
"0 385 CURVE SMOOTH",
"0 546 LINE SMOOTH",
"0 591 OFFCURVE",
"1 657 OFFCURVE",
"3 745 CURVE",
"7 745 LINE",
"7 748 OFFCURVE",
"6 749 OFFCURVE",
"3 749 CURVE",
"7 791 LINE",
"7 822 LINE SMOOTH",
"7 825 OFFCURVE",
"8 826 OFFCURVE",
"10 826 CURVE",
"10 828 OFFCURVE",
"9 829 OFFCURVE",
"7 829 CURVE",
"10 847 LINE",
"10 958 OFFCURVE",
"29 1138 OFFCURVE",
"66 1385 CURVE",
"134 1420 OFFCURVE",
"223 1438 OFFCURVE",
"332 1438 CURVE SMOOTH"
);
}
);
width = 969;
}
);
unicode = 0045;
},
{
glyphname = F;
layers = (
{
layerId = "B727121D-3B30-4656-AEE9-0CFAB48D4F65";
name = Regular;
paths = (
{
closed = 1;
nodes = (
"453 1428 LINE SMOOTH",
"606 1428 OFFCURVE",
"692 1412 OFFCURVE",
"709 1380 CURVE",
"754 1323 OFFCURVE",
"780 1279 OFFCURVE",
"785 1248 CURVE",
"778 1243 OFFCURVE",
"733 1224 OFFCURVE",
"650 1193 CURVE",
"503 1117 OFFCURVE",
"405 1019 OFFCURVE",
"356 899 CURVE",
"345 864 OFFCURVE",
"339 843 OFFCURVE",
"339 837 CURVE",
"654 830 LINE",
"654 806 LINE SMOOTH",
"654 679 OFFCURVE",
"571 603 OFFCURVE",
"405 578 CURVE",
"398 575 OFFCURVE",
"384 574 OFFCURVE",
"363 574 CURVE SMOOTH",
"342 574 LINE",
"342 536 LINE SMOOTH",
"342 497 OFFCURVE",
"340 327 OFFCURVE",
"335 28 CURVE SMOOTH",
"335 17 LINE SMOOTH",
"335 11 OFFCURVE",
"286 5 OFFCURVE",
"187 0 CURVE",
"93 10 OFFCURVE",
"44 26 OFFCURVE",
"41 48 CURVE SMOOTH",
"14 259 OFFCURVE",
"0 486 OFFCURVE",
"0 730 CURVE SMOOTH",
"0 830 LINE SMOOTH",
"0 1005 OFFCURVE",
"12 1187 OFFCURVE",
"35 1376 CURVE",
"135 1411 OFFCURVE",
"251 1428 OFFCURVE",
"384 1428 CURVE SMOOTH"
);
}
);
width = 785;
}
);
unicode = 0046;
},
{
glyphname = G;
layers = (
{
layerId = "B727121D-3B30-4656-AEE9-0CFAB48D4F65";
name = Regular;
paths = (
{
closed = 1;
nodes = (
"595 1426 LINE",
"602 1429 LINE",
"678 1429 LINE SMOOTH",
"681 1429 OFFCURVE",
"682 1428 OFFCURVE",
"682 1426 CURVE",
"684 1426 OFFCURVE",
"685 1427 OFFCURVE",
"685 1429 CURVE",
"780 1422 OFFCURVE",
"827 1413 OFFCURVE",
"827 1402 CURVE",
"854 1384 OFFCURVE",
"881 1352 OFFCURVE",
"907 1305 CURVE",
"937 1223 OFFCURVE",
"952 1162 OFFCURVE",
"952 1121 CURVE",
"945 1118 LINE",
"813 1118 LINE",
"796 1114 LINE",
"796 1118 LINE",
"791 1116 OFFCURVE",
"779 1114 OFFCURVE",
"758 1111 CURVE",
"758 1114 LINE",
"663 1101 OFFCURVE",
"583 1080 OFFCURVE",
"516 1052 CURVE",
"459 1021 OFFCURVE",
"407 976 OFFCURVE",
"360 917 CURVE",
"316 830 OFFCURVE",
"294 748 OFFCURVE",
"294 671 CURVE",
"291 671 LINE",
"291 669 OFFCURVE",
"292 668 OFFCURVE",
"294 668 CURVE",
"291 644 LINE",
"291 609 LINE SMOOTH",
"291 535 OFFCURVE",
"315 473 OFFCURVE",
"363 422 CURVE",
"424 371 OFFCURVE",
"494 346 OFFCURVE",
"571 346 CURVE",
"592 350 LINE",
"613 350 LINE SMOOTH",
"615 350 OFFCURVE",
"616 349 OFFCURVE",
"616 346 CURVE",
"621 349 OFFCURVE",
"624 350 OFFCURVE",
"626 350 CURVE SMOOTH",
"671 350 OFFCURVE",
"696 354 OFFCURVE",
"703 363 CURVE",
"700 368 OFFCURVE",
"699 371 OFFCURVE",
"699 374 CURVE SMOOTH",
"699 398 OFFCURVE",
"697 423 OFFCURVE",
"692 450 CURVE",
"696 450 LINE",
"694 455 OFFCURVE",
"690 482 OFFCURVE",
"685 533 CURVE",
"689 533 LINE",
"686 538 OFFCURVE",
"685 541 OFFCURVE",
"685 543 CURVE SMOOTH",
"685 567 OFFCURVE",
"683 592 OFFCURVE",
"678 619 CURVE",
"685 623 LINE",
"685 619 LINE",
"688 619 OFFCURVE",
"689 620 OFFCURVE",
"689 623 CURVE",
"786 614 OFFCURVE",
"875 584 OFFCURVE",
"955 533 CURVE",
"964 520 OFFCURVE",
"969 510 OFFCURVE",
"969 502 CURVE SMOOTH",
"969 460 LINE SMOOTH",
"969 458 OFFCURVE",
"968 457 OFFCURVE",
"966 457 CURVE",
"969 450 LINE",
"958 374 OFFCURVE",
"944 314 OFFCURVE",
"927 270 CURVE",
"904 192 OFFCURVE",
"858 131 OFFCURVE",
"789 87 CURVE",
"706 29 OFFCURVE",
"590 0 OFFCURVE",
"440 0 CURVE SMOOTH",
"257 0 OFFCURVE",
"129 111 OFFCURVE",
"55 332 CURVE",
"34 382 OFFCURVE",
"17 459 OFFCURVE",
"3 564 CURVE",
"3 580 OFFCURVE",
"2 594 OFFCURVE",
"0 606 CURVE",
"3 606 LINE",
"0 613 LINE",
"0 730 LINE SMOOTH",
"0 919 OFFCURVE",
"62 1090 OFFCURVE",
"187 1242 CURVE",
"263 1312 LINE",
"353 1377 OFFCURVE",
"440 1412 OFFCURVE",
"523 1419 CURVE",
"545 1424 OFFCURVE",
"569 1427 OFFCURVE",
"595 1429 CURVE"
);
}
);
width = 972;
}
);
unicode = 0047;
},
{
glyphname = H;
layers = (
{
layerId = "B727121D-3B30-4656-AEE9-0CFAB48D4F65";
name = Regular;
paths = (
{
closed = 1;
nodes = (
"443 805 LINE",
"476 802 LINE",
"514 802 LINE SMOOTH",
"631 802 OFFCURVE",
"698 839 OFFCURVE",
"715 912 CURVE",
"715 1161 LINE SMOOTH",
"715 1258 OFFCURVE",
"723 1316 OFFCURVE",
"738 1336 CURVE",
"771 1385 OFFCURVE",
"831 1410 OFFCURVE",
"919 1410 CURVE SMOOTH",
"973 1410 OFFCURVE",
"1000 1405 OFFCURVE",
"1000 1394 CURVE",
"1015 1254 OFFCURVE",
"1029 1107 OFFCURVE",
"1042 954 CURVE",
"1038 954 LINE",
"1053 809 OFFCURVE",
"1061 663 OFFCURVE",
"1061 518 CURVE SMOOTH",
"1061 472 LINE SMOOTH",
"1061 157 OFFCURVE",
"959 0 OFFCURVE",
"754 0 CURVE",
"739 27 OFFCURVE",
"714 120 OFFCURVE",
"679 281 CURVE",
"649 326 OFFCURVE",
"591 349 OFFCURVE",
"505 349 CURVE SMOOTH",
"464 349 OFFCURVE",
"443 345 OFFCURVE",
"443 336 CURVE SMOOTH",
"443 244 OFFCURVE",
"415 140 OFFCURVE",
"359 23 CURVE",
"330 20 OFFCURVE",
"311 19 OFFCURVE",
"304 19 CURVE SMOOTH",
"251 19 OFFCURVE",
"190 29 OFFCURVE",
"120 49 CURVE",
"40 378 OFFCURVE",
"0 649 OFFCURVE",
"0 860 CURVE SMOOTH",
"0 1036 OFFCURVE",
"15 1195 OFFCURVE",
"45 1336 CURVE",
"94 1403 OFFCURVE",
"205 1436 OFFCURVE",
"378 1436 CURVE"
);
}
);
width = 1068;
}
);
unicode = 0048;
},
{
glyphname = I;
layers = (
{
layerId = "B727121D-3B30-4656-AEE9-0CFAB48D4F65";
name = Regular;
paths = (
{
closed = 1;
nodes = (
"316 1437 OFFCURVE",
"343 1429 OFFCURVE",
"343 1412 CURVE",
"355 1302 OFFCURVE",
"361 1168 OFFCURVE",
"361 1009 CURVE SMOOTH",
"361 838 LINE SMOOTH",
"361 507 OFFCURVE",
"335 234 OFFCURVE",
"284 18 CURVE",
"243 6 OFFCURVE",
"189 0 OFFCURVE",
"123 0 CURVE",
"74 7 OFFCURVE",
"49 29 OFFCURVE",
"49 67 CURVE",
"16 238 OFFCURVE",
"0 399 OFFCURVE",
"0 550 CURVE SMOOTH",
"0 627 LINE SMOOTH",
"0 855 OFFCURVE",
"14 1084 OFFCURVE",
"42 1314 CURVE",
"73 1396 OFFCURVE",
"146 1437 OFFCURVE",
"263 1437 CURVE SMOOTH"
);
}
);
width = 361;
}
);
unicode = 0049;
},
{
glyphname = J;
layers = (
{
layerId = "B727121D-3B30-4656-AEE9-0CFAB48D4F65";
name = Regular;
paths = (
{
closed = 1;
nodes = (
"668 1401 OFFCURVE",
"681 1271 OFFCURVE",
"693 1043 CURVE",
"698 1043 OFFCURVE",
"700 970 OFFCURVE",
"700 823 CURVE SMOOTH",
"700 446 OFFCURVE",
"651 209 OFFCURVE",
"552 112 CURVE",
"427 37 OFFCURVE",
"278 0 OFFCURVE",
"105 0 CURVE SMOOTH",
"35 2 OFFCURVE",
"0 7 OFFCURVE",
"0 14 CURVE SMOOTH",
"0 22 LINE",
"80 135 OFFCURVE",
"162 213 OFFCURVE",
"245 256 CURVE",
"245 258 OFFCURVE",
"268 272 OFFCURVE",
"314 299 CURVE",
"326 299 OFFCURVE",
"332 542 OFFCURVE",
"332 1028 CURVE SMOOTH",
"332 1274 LINE SMOOTH",
"332 1382 OFFCURVE",
"456 1408 OFFCURVE",
"653 1432 CURVE"
);
}
);
width = 700;
}
);
unicode = 004A;
},
{
glyphname = K;
layers = (
{
layerId = "B727121D-3B30-4656-AEE9-0CFAB48D4F65";
name = Regular;
paths = (
{
closed = 1;
nodes = (
"221 1421 OFFCURVE",
"256 1405 OFFCURVE",
"256 1385 CURVE",
"281 1363 OFFCURVE",
"294 1220 OFFCURVE",
"294 955 CURVE SMOOTH",
"294 832 LINE",
"337 861 OFFCURVE",
"434 932 OFFCURVE",
"585 1047 CURVE SMOOTH",
"638 1087 OFFCURVE",
"676 1107 OFFCURVE",
"699 1107 CURVE SMOOTH",
"748 1107 OFFCURVE",
"772 1048 OFFCURVE",
"772 930 CURVE SMOOTH",
"772 895 LINE",
"440 588 LINE",
"440 585 LINE",
"783 428 OFFCURVE",
"955 278 OFFCURVE",
"955 133 CURVE SMOOTH",
"955 126 LINE SMOOTH",
"955 74 OFFCURVE",
"942 35 OFFCURVE",
"917 9 CURVE",
"914 9 LINE",
"304 348 LINE",
"304 168 OFFCURVE",
"254 55 OFFCURVE",
"155 9 CURVE",
"145 3 OFFCURVE",
"131 0 OFFCURVE",
"114 0 CURVE",
"93 30 OFFCURVE",
"70 104 OFFCURVE",
"47 221 CURVE SMOOTH",
"16 404 OFFCURVE",
"0 580 OFFCURVE",
"0 749 CURVE SMOOTH",
"0 947 OFFCURVE",
"35 1164 OFFCURVE",
"104 1401 CURVE",
"115 1422 OFFCURVE",
"131 1433 OFFCURVE",
"152 1433 CURVE"
);
}
);
width = 955;
}
);
unicode = 004B;
},
{
glyphname = L;
layers = (
{
layerId = "B727121D-3B30-4656-AEE9-0CFAB48D4F65";
name = Regular;
paths = (
{
closed = 1;
nodes = (
"274 1436 LINE",
"319 1433 OFFCURVE",
"341 1425 OFFCURVE",
"341 1411 CURVE",
"317 1008 OFFCURVE",
"305 727 OFFCURVE",
"305 569 CURVE SMOOTH",
"305 428 OFFCURVE",
"329 341 OFFCURVE",
"376 309 CURVE",
"417 286 OFFCURVE",
"487 274 OFFCURVE",
"586 274 CURVE SMOOTH",
"621 274 OFFCURVE",
"669 276 OFFCURVE",
"730 281 CURVE",
"730 278 OFFCURVE",
"731 277 OFFCURVE",
"734 277 CURVE",
"654 92 OFFCURVE",
"587 0 OFFCURVE",
"534 0 CURVE SMOOTH",
"459 0 OFFCURVE",
"299 12 OFFCURVE",
"56 35 CURVE",
"19 408 OFFCURVE",
"0 697 OFFCURVE",
"0 902 CURVE SMOOTH",
"0 1022 LINE SMOOTH",
"6 1286 OFFCURVE",
"15 1418 OFFCURVE",
"28 1418 CURVE",
"79 1430 OFFCURVE",
"140 1436 OFFCURVE",
"211 1436 CURVE SMOOTH"
);
}
);
width = 743;
}
);
unicode = 004C;
},
{
glyphname = M;
layers = (
{
layerId = "B727121D-3B30-4656-AEE9-0CFAB48D4F65";
name = Regular;
paths = (
{
closed = 1;
nodes = (
"1194 1329 OFFCURVE",
"1252 1094 OFFCURVE",
"1252 731 CURVE SMOOTH",
"1237 272 OFFCURVE",
"1213 42 OFFCURVE",
"1179 42 CURVE",
"1156 21 OFFCURVE",
"1129 10 OFFCURVE",
"1098 10 CURVE SMOOTH",
"1031 10 OFFCURVE",
"997 22 OFFCURVE",
"997 45 CURVE",
"983 125 OFFCURVE",
"962 323 OFFCURVE",
"934 640 CURVE",
"931 640 OFFCURVE",
"925 673 OFFCURVE",
"916 738 CURVE",
"913 738 LINE",
"845 513 OFFCURVE",
"774 335 OFFCURVE",
"699 206 CURVE",
"683 167 OFFCURVE",
"649 125 OFFCURVE",
"598 80 CURVE",
"588 80 LINE",
"521 179 OFFCURVE",
"454 309 OFFCURVE",
"388 472 CURVE",
"353 581 LINE",
"350 581 LINE",
"350 570 LINE SMOOTH",
"350 290 OFFCURVE",
"332 108 OFFCURVE",
"297 24 CURVE",
"285 8 OFFCURVE",
"272 0 OFFCURVE",
"259 0 CURVE SMOOTH",
"241 0 LINE SMOOTH",
"166 0 OFFCURVE",
"129 7 OFFCURVE",
"129 21 CURVE",
"108 70 OFFCURVE",
"84 192 OFFCURVE",
"59 388 CURVE SMOOTH",
"20 775 OFFCURVE",
"0 1062 OFFCURVE",
"0 1249 CURVE",
"36 1260 OFFCURVE",
"79 1266 OFFCURVE",
"129 1266 CURVE SMOOTH",
"150 1266 LINE SMOOTH",
"246 1266 OFFCURVE",
"355 1153 OFFCURVE",
"476 927 CURVE SMOOTH",
"511 860 OFFCURVE",
"539 798 OFFCURVE",
"560 741 CURVE",
"567 741 LINE",
"612 857 OFFCURVE",
"674 982 OFFCURVE",
"755 1116 CURVE",
"811 1195 OFFCURVE",
"866 1263 OFFCURVE",
"920 1318 CURVE SMOOTH",
"985 1381 OFFCURVE",
"1038 1420 OFFCURVE",
"1077 1437 CURVE"
);
}
);
width = 1252;
}
);
unicode = 004D;
},
{
glyphname = N;
layers = (
{
layerId = "B727121D-3B30-4656-AEE9-0CFAB48D4F65";
name = Regular;
paths = (
{
closed = 1;
nodes = (
"783 1437 LINE",
"945 1406 OFFCURVE",
"1026 1341 OFFCURVE",
"1026 1242 CURVE",
"1049 1092 OFFCURVE",
"1061 956 OFFCURVE",
"1061 835 CURVE SMOOTH",
"1061 727 LINE SMOOTH",
"1061 460 OFFCURVE",
"1005 230 OFFCURVE",
"894 38 CURVE",
"891 38 LINE SMOOTH",
"845 38 OFFCURVE",
"744 112 OFFCURVE",
"588 261 CURVE",
"494 360 OFFCURVE",
"405 462 OFFCURVE",
"320 567 CURVE",
"309 200 OFFCURVE",
"295 17 OFFCURVE",
"278 17 CURVE",
"256 6 OFFCURVE",
"220 0 OFFCURVE",
"170 0 CURVE",
"162 2 OFFCURVE",
"152 3 OFFCURVE",
"139 3 CURVE SMOOTH",
"122 3 LINE SMOOTH",
"115 3 OFFCURVE",
"101 66 OFFCURVE",
"80 191 CURVE SMOOTH",
"27 500 OFFCURVE",
"0 736 OFFCURVE",
"0 901 CURVE SMOOTH",
"0 957 LINE",
"9 1143 OFFCURVE",
"22 1243 OFFCURVE",
"38 1256 CURVE",
"215 1200 OFFCURVE",
"519 1004 OFFCURVE",
"790 744 CURVE",
"790 748 LINE",
"776 1433 LINE"
);
}
);
width = 1061;
}
);
unicode = 004E;
},
{
glyphname = O;
lastChange = "2014-06-18 07:41:31 +0100";
layers = (
{
layerId = "B727121D-3B30-4656-AEE9-0CFAB48D4F65";
name = Regular;
paths = (
{
closed = 1;
nodes = (
"496 1446 LINE",
"503 1450 LINE",
"753 1450 OFFCURVE",
"911 1329 OFFCURVE",
"978 1088 CURVE",
"993 1020 OFFCURVE",
"1003 946 OFFCURVE",
"1010 866 CURVE",
"1010 863 OFFCURVE",
"1009 862 OFFCURVE",
"1007 862 CURVE",
"1009 841 OFFCURVE",
"1010 830 OFFCURVE",
"1010 827 CURVE SMOOTH",
"1010 716 OFFCURVE",
"1004 628 OFFCURVE",
"992 563 CURVE",
"992 561 OFFCURVE",
"993 560 OFFCURVE",
"996 560 CURVE",
"942 187 OFFCURVE",
"804 0 OFFCURVE",
"581 0 CURVE SMOOTH",
"570 0 LINE SMOOTH",
"409 0 OFFCURVE",
"274 67 OFFCURVE",
"165 201 CURVE SMOOTH",
"55 339 OFFCURVE",
"0 566 OFFCURVE",
"0 883 CURVE SMOOTH",
"0 1003 OFFCURVE",
"34 1123 OFFCURVE",
"102 1242 CURVE",
"171 1332 OFFCURVE",
"236 1387 OFFCURVE",
"299 1408 CURVE",
"366 1436 OFFCURVE",
"431 1450 OFFCURVE",
"496 1450 CURVE"
);
},
{
closed = 1;
nodes = (
"359 503 LINE SMOOTH",
"359 426 OFFCURVE",
"405 372 OFFCURVE",
"496 341 CURVE",
"522 339 OFFCURVE",
"544 338 OFFCURVE",
"563 338 CURVE SMOOTH",
"567 338 LINE SMOOTH",
"592 338 OFFCURVE",
"622 354 OFFCURVE",
"655 387 CURVE",
"680 422 OFFCURVE",
"693 463 OFFCURVE",
"693 510 CURVE SMOOTH",
"693 514 LINE SMOOTH",
"693 574 OFFCURVE",
"667 627 OFFCURVE",
"616 672 CURVE",
"584 693 OFFCURVE",
"556 704 OFFCURVE",
"531 704 CURVE SMOOTH",
"444 704 OFFCURVE",
"386 643 OFFCURVE",
"359 521 CURVE"
);
}
);
width = 1008;
}
);
unicode = 004F;
},
{
glyphname = P;
layers = (
{
layerId = "B727121D-3B30-4656-AEE9-0CFAB48D4F65";
name = Regular;
paths = (
{
closed = 1;
nodes = (
"738 1429 OFFCURVE",
"892 1367 OFFCURVE",
"941 1244 CURVE",
"948 1217 OFFCURVE",
"953 1184 OFFCURVE",
"955 1147 CURVE",
"955 1026 OFFCURVE",
"918 891 OFFCURVE",
"843 742 CURVE",
"772 631 OFFCURVE",
"666 552 OFFCURVE",
"523 505 CURVE",
"459 489 OFFCURVE",
"417 481 OFFCURVE",
"397 481 CURVE",
"397 476 OFFCURVE",
"398 458 OFFCURVE",
"401 429 CURVE",
"401 411 OFFCURVE",
"403 269 OFFCURVE",
"408 3 CURVE",
"401 0 LINE",
"394 0 LINE SMOOTH",
"238 0 OFFCURVE",
"160 9 OFFCURVE",
"160 28 CURVE",
"24 816 LINE SMOOTH",
"8 925 OFFCURVE",
"0 1020 OFFCURVE",
"0 1101 CURVE SMOOTH",
"0 1140 LINE SMOOTH",
"0 1194 OFFCURVE",
"8 1272 OFFCURVE",
"24 1373 CURVE",
"193 1410 OFFCURVE",
"344 1429 OFFCURVE",
"477 1429 CURVE SMOOTH"
);
},
{
closed = 1;
nodes = (
"328 969 LINE SMOOTH",
"328 895 OFFCURVE",
"365 840 OFFCURVE",
"439 805 CURVE",
"459 800 OFFCURVE",
"472 798 OFFCURVE",
"477 798 CURVE SMOOTH",
"552 798 OFFCURVE",
"613 841 OFFCURVE",
"662 927 CURVE SMOOTH",
"671 944 OFFCURVE",
"676 965 OFFCURVE",
"676 990 CURVE SMOOTH",
"676 1004 LINE SMOOTH",
"676 1067 OFFCURVE",
"640 1111 OFFCURVE",
"568 1136 CURVE",
"546 1141 OFFCURVE",
"529 1143 OFFCURVE",
"516 1143 CURVE SMOOTH",
"439 1143 OFFCURVE",
"378 1106 OFFCURVE",
"335 1032 CURVE",
"330 1011 OFFCURVE",
"328 995 OFFCURVE",
"328 986 CURVE SMOOTH"
);
}
);
width = 933;
}
);
unicode = 0050;
},
{
glyphname = Q;
layers = (
{
layerId = "B727121D-3B30-4656-AEE9-0CFAB48D4F65";
name = Regular;
paths = (
{
closed = 1;
nodes = (
"539 1715 LINE",
"545 1718 LINE",
"623 1718 LINE SMOOTH",
"625 1718 OFFCURVE",
"626 1717 OFFCURVE",
"626 1715 CURVE",
"627 1715 OFFCURVE",
"628 1716 OFFCURVE",
"628 1718 CURVE",
"695 1718 OFFCURVE",
"773 1698 OFFCURVE",
"863 1659 CURVE",
"908 1636 OFFCURVE",
"952 1601 OFFCURVE",
"993 1556 CURVE SMOOTH",
"1065 1476 OFFCURVE",
"1113 1367 OFFCURVE",
"1138 1230 CURVE SMOOTH",
"1143 1199 OFFCURVE",
"1150 1154 OFFCURVE",
"1157 1095 CURVE",
"1157 1093 OFFCURVE",
"1156 1092 OFFCURVE",
"1154 1092 CURVE",
"1160 1041 LINE",
"1157 1041 LINE",
"1160 1036 LINE",
"1160 1034 OFFCURVE",
"1159 1033 OFFCURVE",
"1157 1033 CURVE",
"1160 1028 LINE",
"1160 909 LINE SMOOTH",
"1160 907 OFFCURVE",
"1159 906 OFFCURVE",
"1157 906 CURVE",
"1160 901 LINE",
"1160 899 OFFCURVE",
"1159 898 OFFCURVE",
"1157 898 CURVE",
"1157 896 OFFCURVE",
"1158 895 OFFCURVE",
"1160 895 CURVE",
"1149 723 OFFCURVE",
"1133 601 OFFCURVE",
"1111 529 CURVE",
"1100 475 LINE",
"1111 468 OFFCURVE",
"1151 430 OFFCURVE",
"1219 361 CURVE SMOOTH",
"1262 318 OFFCURVE",
"1290 297 OFFCURVE",
"1303 297 CURVE",
"1334 278 OFFCURVE",
"1349 253 OFFCURVE",
"1349 221 CURVE SMOOTH",
"1349 169 OFFCURVE",
"1313 95 OFFCURVE",
"1241 0 CURVE",
"1212 0 OFFCURVE",
"1120 27 OFFCURVE",
"966 81 CURVE",
"966 83 OFFCURVE",
"942 97 OFFCURVE",
"893 124 CURVE",
"824 75 OFFCURVE",
"744 51 OFFCURVE",
"655 51 CURVE SMOOTH",
"471 51 OFFCURVE",
"315 129 OFFCURVE",
"186 286 CURVE",
"141 352 OFFCURVE",
"107 413 OFFCURVE",
"86 469 CURVE SMOOTH",
"31 625 OFFCURVE",
"3 783 OFFCURVE",
"3 944 CURVE SMOOTH",
"3 945 OFFCURVE",
"2 951 OFFCURVE",
"0 960 CURVE",
"3 960 LINE",
"0 966 LINE",
"0 1108 LINE SMOOTH",
"0 1110 OFFCURVE",
"1 1111 OFFCURVE",
"3 1111 CURVE",
"3 1113 OFFCURVE",
"2 1114 OFFCURVE",
"0 1114 CURVE",
"0 1152 OFFCURVE",
"16 1227 OFFCURVE",
"49 1340 CURVE",
"51 1340 OFFCURVE",
"59 1360 OFFCURVE",
"73 1400 CURVE",
"104 1467 OFFCURVE",
"154 1534 OFFCURVE",
"221 1599 CURVE",
"305 1663 OFFCURVE",
"394 1701 OFFCURVE",
"488 1713 CURVE",
"499 1713 OFFCURVE",
"516 1715 OFFCURVE",
"539 1718 CURVE"
);
},
{
closed = 1;
nodes = (
"332 524 OFFCURVE",
"383 445 OFFCURVE",
"485 386 CURVE",
"518 371 OFFCURVE",
"561 360 OFFCURVE",
"615 353 CURVE",
"615 352 OFFCURVE",
"617 351 OFFCURVE",
"620 351 CURVE",
"624 352 OFFCURVE",
"627 353 OFFCURVE",
"628 353 CURVE",
"628 351 LINE",
"634 353 LINE",
"653 353 LINE SMOOTH",
"654 353 OFFCURVE",
"655 352 OFFCURVE",
"655 351 CURVE",
"723 367 LINE",
"723 369 LINE",
"712 429 OFFCURVE",
"707 464 OFFCURVE",
"707 475 CURVE SMOOTH",
"707 569 LINE SMOOTH",
"707 606 OFFCURVE",
"721 644 OFFCURVE",
"750 685 CURVE",
"752 685 LINE",
"795 665 OFFCURVE",
"837 645 OFFCURVE",
"877 626 CURVE",
"877 628 LINE SMOOTH",
"877 732 OFFCURVE",
"837 819 OFFCURVE",
"758 890 CURVE",
"713 926 OFFCURVE",
"664 944 OFFCURVE",
"612 944 CURVE SMOOTH",
"596 944 LINE SMOOTH",
"533 944 OFFCURVE",
"474 913 OFFCURVE",
"418 850 CURVE",
"362 781 OFFCURVE",
"334 706 OFFCURVE",
"334 626 CURVE",
"333 626 OFFCURVE",
"332 625 OFFCURVE",
"332 623 CURVE SMOOTH"
);
}
);
width = 1354;
}
);
unicode = 0051;
},
{
glyphname = R;
layers = (
{
layerId = "B727121D-3B30-4656-AEE9-0CFAB48D4F65";
name = Regular;
paths = (
{
closed = 1;
nodes = (
"321 1446 LINE",
"403 1443 OFFCURVE",
"446 1438 OFFCURVE",
"451 1431 CURVE",
"454 1431 OFFCURVE",
"455 1432 OFFCURVE",
"455 1435 CURVE",
"744 1382 OFFCURVE",
"952 1206 OFFCURVE",
"952 973 CURVE SMOOTH",
"952 970 LINE SMOOTH",
"952 822 OFFCURVE",
"896 714 OFFCURVE",
"783 645 CURVE",
"783 642 LINE",
"886 603 OFFCURVE",
"983 502 OFFCURVE",
"1072 338 CURVE",
"1135 181 OFFCURVE",
"1167 72 OFFCURVE",
"1167 11 CURVE",
"1149 4 OFFCURVE",
"1123 0 OFFCURVE",
"1089 0 CURVE SMOOTH",
"938 0 LINE",
"933 1 OFFCURVE",
"911 48 OFFCURVE",
"871 141 CURVE",
"788 303 OFFCURVE",
"670 384 OFFCURVE",
"518 384 CURVE SMOOTH",
"453 384 OFFCURVE",
"411 351 OFFCURVE",
"391 286 CURVE",
"379 177 OFFCURVE",
"360 108 OFFCURVE",
"335 78 CURVE",
"300 29 OFFCURVE",
"247 4 OFFCURVE",
"176 4 CURVE",
"171 7 OFFCURVE",
"156 97 OFFCURVE",
"130 275 CURVE SMOOTH",
"46 742 OFFCURVE",
"4 1035 OFFCURVE",
"4 1153 CURVE SMOOTH",
"4 1160 LINE",
"0 1181 LINE",
"5 1228 OFFCURVE",
"8 1252 OFFCURVE",
"11 1252 CURVE",
"11 1254 OFFCURVE",
"10 1255 OFFCURVE",
"7 1255 CURVE",
"36 1471 OFFCURVE",
"198 1446 OFFCURVE",
"250 1446 CURVE SMOOTH"
);
},
{
closed = 1;
nodes = (
"289 910 LINE SMOOTH",
"289 828 OFFCURVE",
"328 777 OFFCURVE",
"405 758 CURVE SMOOTH",
"418 755 OFFCURVE",
"432 754 OFFCURVE",
"448 754 CURVE SMOOTH",
"526 754 OFFCURVE",
"588 792 OFFCURVE",
"635 867 CURVE",
"643 884 OFFCURVE",
"649 906 OFFCURVE",
"652 934 CURVE",
"652 967 OFFCURVE",
"633 1004 OFFCURVE",
"596 1047 CURVE",
"545 1078 OFFCURVE",
"498 1093 OFFCURVE",
"455 1093 CURVE SMOOTH",
"392 1093 OFFCURVE",
"342 1062 OFFCURVE",
"303 1001 CURVE",
"294 974 OFFCURVE",
"289 947 OFFCURVE",
"289 920 CURVE SMOOTH"
);
}
);
width = 1160;
}
);
unicode = 0052;
},
{
glyphname = S;
layers = (
{
layerId = "B727121D-3B30-4656-AEE9-0CFAB48D4F65";
name = Regular;
paths = (
{
closed = 1;
nodes = (
"567 1434 LINE",
"746 1421 OFFCURVE",
"838 1402 OFFCURVE",
"845 1377 CURVE",
"775 1269 OFFCURVE",
"713 1215 OFFCURVE",
"659 1215 CURVE",
"558 1188 OFFCURVE",
"507 1150 OFFCURVE",
"507 1099 CURVE SMOOTH",
"507 1095 LINE SMOOTH",
"507 1048 OFFCURVE",
"587 975 OFFCURVE",
"747 877 CURVE",
"928 744 OFFCURVE",
"1018 611 OFFCURVE",
"1018 476 CURVE SMOOTH",
"1018 249 OFFCURVE",
"876 98 OFFCURVE",
"592 25 CURVE SMOOTH",
"515 8 OFFCURVE",
"445 0 OFFCURVE",
"384 0 CURVE SMOOTH",
"282 0 LINE SMOOTH",
"279 0 OFFCURVE",
"278 1 OFFCURVE",
"278 4 CURVE",
"276 4 OFFCURVE",
"275 3 OFFCURVE",
"275 0 CURVE",
"179 10 OFFCURVE",
"113 21 OFFCURVE",
"77 32 CURVE",
"133 140 OFFCURVE",
"180 194 OFFCURVE",
"218 194 CURVE",
"413 257 OFFCURVE",
"511 328 OFFCURVE",
"511 405 CURVE SMOOTH",
"511 483 OFFCURVE",
"433 579 OFFCURVE",
"278 694 CURVE",
"206 739 OFFCURVE",
"146 785 OFFCURVE",
"99 831 CURVE",
"33 907 OFFCURVE",
"0 996 OFFCURVE",
"0 1099 CURVE SMOOTH",
"0 1250 OFFCURVE",
"82 1350 OFFCURVE",
"247 1398 CURVE SMOOTH",
"322 1422 OFFCURVE",
"409 1434 OFFCURVE",
"507 1434 CURVE SMOOTH"
);
}
);
width = 1011;
}
);
unicode = 0053;
},
{
glyphname = T;
layers = (
{
layerId = "B727121D-3B30-4656-AEE9-0CFAB48D4F65";
name = Regular;
paths = (
{
closed = 1;
nodes = (
"891 1429 OFFCURVE",
"1094 1419 OFFCURVE",
"1094 1398 CURVE",
"1113 1345 OFFCURVE",
"1122 1291 OFFCURVE",
"1122 1234 CURVE SMOOTH",
"1122 1223 LINE SMOOTH",
"1122 1205 OFFCURVE",
"1094 1188 OFFCURVE",
"1039 1171 CURVE",
"987 1150 OFFCURVE",
"882 1119 OFFCURVE",
"725 1077 CURVE",
"697 890 OFFCURVE",
"669 555 OFFCURVE",
"641 73 CURVE",
"639 52 OFFCURVE",
"638 28 OFFCURVE",
"638 3 CURVE",
"633 1 OFFCURVE",
"630 0 OFFCURVE",
"627 0 CURVE",
"516 14 OFFCURVE",
"455 34 OFFCURVE",
"443 59 CURVE",
"408 78 OFFCURVE",
"382 242 OFFCURVE",
"366 551 CURVE SMOOTH",
"363 612 OFFCURVE",
"362 683 OFFCURVE",
"362 763 CURVE SMOOTH",
"362 1094 LINE",
"139 1121 OFFCURVE",
"20 1138 OFFCURVE",
"3 1147 CURVE",
"0 1161 LINE",
"5 1324 OFFCURVE",
"16 1405 OFFCURVE",
"35 1405 CURVE",
"132 1421 OFFCURVE",
"282 1429 OFFCURVE",
"484 1429 CURVE SMOOTH"
);
}
);
width = 1131;
}
);
unicode = 0054;
},
{
glyphname = U;
layers = (
{
layerId = "B727121D-3B30-4656-AEE9-0CFAB48D4F65";
name = Regular;
paths = (
{
closed = 1;
nodes = (
"114 1454 LINE SMOOTH",
"155 1454 OFFCURVE",
"223 1394 OFFCURVE",
"318 1275 CURVE",
"318 1268 LINE",
"296 836 LINE",
"296 635 OFFCURVE",
"326 516 OFFCURVE",
"386 479 CURVE SMOOTH",
"409 464 OFFCURVE",
"432 457 OFFCURVE",
"457 457 CURVE SMOOTH",
"489 457 LINE SMOOTH",
"796 457 OFFCURVE",
"811 1067 OFFCURVE",
"811 1379 CURVE SMOOTH",
"811 1386 LINE SMOOTH",
"811 1424 OFFCURVE",
"822 1443 OFFCURVE",
"843 1443 CURVE SMOOTH",
"850 1443 LINE",
"936 1435 OFFCURVE",
"979 1424 OFFCURVE",
"979 1411 CURVE",
"1038 1303 OFFCURVE",
"1068 1173 OFFCURVE",
"1068 1022 CURVE SMOOTH",
"1068 478 OFFCURVE",
"945 148 OFFCURVE",
"700 32 CURVE SMOOTH",
"652 11 OFFCURVE",
"598 0 OFFCURVE",
"539 0 CURVE SMOOTH",
"532 0 LINE SMOOTH",
"296 0 OFFCURVE",
"141 92 OFFCURVE",
"68 275 CURVE SMOOTH",
"23 393 OFFCURVE",
"0 547 OFFCURVE",
"0 736 CURVE SMOOTH",
"0 933 OFFCURVE",
"26 1152 OFFCURVE",
"79 1393 CURVE",
"94 1432 OFFCURVE",
"104 1452 OFFCURVE",
"111 1454 CURVE"
);
}
);
width = 1075;
}
);
unicode = 0055;
},
{
glyphname = V;
layers = (
{
layerId = "B727121D-3B30-4656-AEE9-0CFAB48D4F65";
name = Regular;
paths = (
{
closed = 1;
nodes = (
"1136 1711 LINE",
"1301 1578 OFFCURVE",
"1384 1455 OFFCURVE",
"1384 1344 CURVE SMOOTH",
"1384 1189 OFFCURVE",
"1318 930 OFFCURVE",
"1187 565 CURVE",
"1064 281 OFFCURVE",
"928 93 OFFCURVE",
"779 0 CURVE",
"712 27 OFFCURVE",
"628 78 OFFCURVE",
"527 151 CURVE",
"355 292 OFFCURVE",
"219 451 OFFCURVE",
"166 735 CURVE",
"135 834 OFFCURVE",
"103 991 OFFCURVE",
"72 1206 CURVE SMOOTH",
"41 1474 OFFCURVE",
"17 1640 OFFCURVE",
"0 1705 CURVE",
"6 1708 LINE",
"19 1708 LINE SMOOTH",
"178 1708 OFFCURVE",
"301 1627 OFFCURVE",
"389 1466 CURVE",
"412 1433 OFFCURVE",
"489 1300 OFFCURVE",
"622 1067 CURVE SMOOTH",
"693 946 OFFCURVE",
"730 885 OFFCURVE",
"731 885 CURVE",
"982 1410 OFFCURVE",
"1116 1686 OFFCURVE",
"1133 1711 CURVE"
);
}
);
width = 1400;
}
);
unicode = 0056;
},
{
glyphname = W;
layers = (
{
layerId = "B727121D-3B30-4656-AEE9-0CFAB48D4F65";
name = Regular;
paths = (
{
closed = 1;
nodes = (
"1024 1436 LINE",
"1073 1431 OFFCURVE",
"1098 1410 OFFCURVE",
"1098 1373 CURVE",
"1161 1120 OFFCURVE",
"1193 802 OFFCURVE",
"1193 417 CURVE SMOOTH",
"1193 296 LINE",
"1186 141 OFFCURVE",
"1166 63 OFFCURVE",
"1135 63 CURVE",
"1119 56 OFFCURVE",
"1096 53 OFFCURVE",
"1066 53 CURVE SMOOTH",
"961 53 LINE SMOOTH",
"894 53 OFFCURVE",
"769 195 OFFCURVE",
"586 480 CURVE",
"575 486 LINE",
"540 357 OFFCURVE",
"502 247 OFFCURVE",
"459 158 CURVE",
"402 53 OFFCURVE",
"327 0 OFFCURVE",
"232 0 CURVE SMOOTH",
"77 0 OFFCURVE",
"0 178 OFFCURVE",
"0 533 CURVE SMOOTH",
"0 570 LINE",
"21 1042 OFFCURVE",
"51 1278 OFFCURVE",
"90 1278 CURVE",
"209 1256 OFFCURVE",
"269 1178 OFFCURVE",
"269 1045 CURVE SMOOTH",
"269 998 OFFCURVE",
"281 850 OFFCURVE",
"306 602 CURVE",
"311 602 LINE",
"350 803 OFFCURVE",
"387 936 OFFCURVE",
"422 1003 CURVE",
"476 1118 OFFCURVE",
"511 1176 OFFCURVE",
"528 1177 CURVE",
"675 1177 OFFCURVE",
"802 1010 OFFCURVE",
"908 676 CURVE",
"913 676 LINE",
"913 1035 LINE SMOOTH",
"913 1299 OFFCURVE",
"922 1431 OFFCURVE",
"940 1431 CURVE",
"970 1434 OFFCURVE",
"995 1436 OFFCURVE",
"1014 1436 CURVE SMOOTH"
);
}
);
width = 1202;
}
);
unicode = 0057;
},
{
glyphname = X;
layers = (
{
layerId = "B727121D-3B30-4656-AEE9-0CFAB48D4F65";
name = Regular;
paths = (
{
closed = 1;
nodes = (
"1106 1415 OFFCURVE",
"1182 1376 OFFCURVE",
"1241 1325 CURVE",
"1248 1325 OFFCURVE",
"1252 1313 OFFCURVE",
"1255 1290 CURVE",
"1255 1261 OFFCURVE",
"1186 1148 OFFCURVE",
"1049 951 CURVE",
"1049 944 OFFCURVE",
"971 830 OFFCURVE",
"815 608 CURVE",
"992 409 OFFCURVE",
"1080 257 OFFCURVE",
"1080 154 CURVE SMOOTH",
"1080 147 LINE",
"1077 116 OFFCURVE",
"1052 71 OFFCURVE",
"1007 14 CURVE",
"989 27 OFFCURVE",
"854 143 OFFCURVE",
"601 360 CURVE",
"375 122 OFFCURVE",
"236 3 OFFCURVE",
"185 3 CURVE",
"176 1 OFFCURVE",
"166 0 OFFCURVE",
"154 0 CURVE",
"93 4 OFFCURVE",
"63 13 OFFCURVE",
"63 28 CURVE",
"108 191 OFFCURVE",
"209 378 OFFCURVE",
"364 587 CURVE",
"185 836 OFFCURVE",
"66 1009 OFFCURVE",
"7 1108 CURVE SMOOTH",
"2 1117 OFFCURVE",
"0 1126 OFFCURVE",
"0 1133 CURVE",
"27 1224 OFFCURVE",
"77 1316 OFFCURVE",
"150 1409 CURVE",
"157 1409 LINE",
"184 1379 OFFCURVE",
"308 1218 OFFCURVE",
"528 926 CURVE",
"580 870 LINE",
"833 1209 OFFCURVE",
"977 1399 OFFCURVE",
"1014 1440 CURVE"
);
}
);
width = 1262;
}
);
unicode = 0058;
},
{
glyphname = Y;
layers = (
{
layerId = "B727121D-3B30-4656-AEE9-0CFAB48D4F65";
name = Regular;
paths = (
{
closed = 1;
nodes = (
"940 1717 LINE",
"1056 1700 OFFCURVE",
"1114 1653 OFFCURVE",
"1114 1576 CURVE SMOOTH",
"1114 1548 LINE SMOOTH",
"1114 1505 OFFCURVE",
"1021 1192 OFFCURVE",
"835 608 CURVE",
"884 383 OFFCURVE",
"919 186 OFFCURVE",
"940 19 CURVE",
"940 9 OFFCURVE",
"899 3 OFFCURVE",
"818 0 CURVE",
"777 0 LINE SMOOTH",
"672 0 OFFCURVE",
"619 7 OFFCURVE",
"619 22 CURVE",
"566 230 OFFCURVE",
"509 467 OFFCURVE",
"448 733 CURVE",
"205 1094 OFFCURVE",
"55 1370 OFFCURVE",
"0 1559 CURVE",
"0 1562 LINE",
"45 1588 OFFCURVE",
"93 1601 OFFCURVE",
"144 1601 CURVE SMOOTH",
"158 1601 LINE SMOOTH",
"243 1601 OFFCURVE",
"310 1559 OFFCURVE",
"357 1476 CURVE",
"445 1359 OFFCURVE",
"533 1231 OFFCURVE",
"622 1092 CURVE",
"757 1368 OFFCURVE",
"862 1576 OFFCURVE",
"937 1717 CURVE"
);
}
);
width = 1121;
}
);
unicode = 0059;
},
{
glyphname = Z;
layers = (
{
layerId = "B727121D-3B30-4656-AEE9-0CFAB48D4F65";
name = Regular;
paths = (
{
closed = 1;
nodes = (
"417 1429 LINE SMOOTH",
"637 1429 OFFCURVE",
"800 1376 OFFCURVE",
"907 1269 CURVE",
"933 1238 OFFCURVE",
"946 1202 OFFCURVE",
"946 1161 CURVE SMOOTH",
"946 1085 OFFCURVE",
"886 991 OFFCURVE",
"765 880 CURVE",
"605 718 OFFCURVE",
"525 565 OFFCURVE",
"525 421 CURVE SMOOTH",
"525 400 LINE SMOOTH",
"525 298 OFFCURVE",
"615 234 OFFCURVE",
"796 209 CURVE",
"836 202 OFFCURVE",
"915 192 OFFCURVE",
"1033 181 CURVE",
"1017 134 OFFCURVE",
"977 91 OFFCURVE",
"914 52 CURVE",
"847 17 OFFCURVE",
"771 0 OFFCURVE",
"688 0 CURVE SMOOTH",
"612 0 LINE SMOOTH",
"609 0 OFFCURVE",
"608 1 OFFCURVE",
"608 3 CURVE",
"606 3 OFFCURVE",
"605 2 OFFCURVE",
"605 0 CURVE",
"382 23 OFFCURVE",
"171 78 OFFCURVE",
"70 313 CURVE",
"61 349 OFFCURVE",
"54 383 OFFCURVE",
"49 414 CURVE",
"52 431 LINE",
"52 469 LINE SMOOTH",
"52 615 OFFCURVE",
"137 787 OFFCURVE",
"306 984 CURVE",
"395 1076 OFFCURVE",
"460 1135 OFFCURVE",
"501 1161 CURVE",
"501 1165 LINE",
"450 1181 OFFCURVE",
"352 1198 OFFCURVE",
"205 1217 CURVE",
"203 1217 OFFCURVE",
"202 1216 OFFCURVE",
"202 1213 CURVE",
"176 1215 OFFCURVE",
"163 1217 OFFCURVE",
"163 1220 CURVE",
"161 1220 OFFCURVE",
"160 1219 OFFCURVE",
"160 1217 CURVE",
"132 1219 OFFCURVE",
"118 1221 OFFCURVE",
"118 1224 CURVE",
"116 1224 OFFCURVE",
"115 1223 OFFCURVE",
"115 1220 CURVE",
"91 1225 OFFCURVE",
"54 1227 OFFCURVE",
"3 1227 CURVE",
"0 1234 LINE",
"83 1364 OFFCURVE",
"219 1429 OFFCURVE",
"410 1429 CURVE SMOOTH"
);
}
);
width = 1032;
}
);
unicode = 005A;
},
{
glyphname = underscore;
layers = (
{
layerId = "B727121D-3B30-4656-AEE9-0CFAB48D4F65";
name = Regular;
paths = (
{
closed = 1;
nodes = (
"983 41 OFFCURVE",
"992 -53 OFFCURVE",
"992 -202 CURVE",
"980 -210 LINE",
"968 -210 LINE",
"736 -250 LINE",
"687 -250 OFFCURVE",
"626 -257 OFFCURVE",
"552 -270 CURVE",
"520 -270 LINE",
"212 -290 LINE",
"40 -290 LINE",
"24 -278 LINE",
"28 -258 LINE",
"24 -70 LINE",
"16 -10 LINE",
"26 -2 OFFCURVE",
"38 2 OFFCURVE",
"52 2 CURVE SMOOTH",
"153 2 OFFCURVE",
"237 6 OFFCURVE",
"304 14 CURVE",
"308 10 LINE",
"312 10 LINE",
"328 15 OFFCURVE",
"400 19 OFFCURVE",
"528 22 CURVE",
"528 28 OFFCURVE",
"593 36 OFFCURVE",
"724 46 CURVE",
"724 52 OFFCURVE",
"761 57 OFFCURVE",
"836 62 CURVE",
"846 72 OFFCURVE",
"889 79 OFFCURVE",
"964 82 CURVE"
);
}
);
width = 1057;
}
);
unicode = 005F;
},
{
glyphname = a;
layers = (
{
layerId = "B727121D-3B30-4656-AEE9-0CFAB48D4F65";
name = Regular;
paths = (
{
closed = 1;
nodes = (
"726 881 OFFCURVE",
"827 661 OFFCURVE",
"895 360 CURVE SMOOTH",
"933 200 OFFCURVE",
"952 86 OFFCURVE",
"952 19 CURVE",
"942 14 LINE",
"878 14 OFFCURVE",
"804 58 OFFCURVE",
"720 147 CURVE",
"609 49 OFFCURVE",
"477 0 OFFCURVE",
"322 0 CURVE SMOOTH",
"166 0 OFFCURVE",
"65 71 OFFCURVE",
"19 213 CURVE",
"10 254 OFFCURVE",
"3 303 OFFCURVE",
"0 360 CURVE",
"0 668 OFFCURVE",
"148 876 OFFCURVE",
"445 985 CURVE",
"519 1007 OFFCURVE",
"568 1018 OFFCURVE",
"592 1018 CURVE"
);
},
{
closed = 1;
nodes = (
"218 291 OFFCURVE",
"267 248 OFFCURVE",
"365 237 CURVE",
"428 237 OFFCURVE",
"481 268 OFFCURVE",
"526 331 CURVE",
"540 384 LINE",
"540 458 OFFCURVE",
"488 507 OFFCURVE",
"384 530 CURVE",
"350 530 LINE SMOOTH",
"303 530 OFFCURVE",
"263 502 OFFCURVE",
"232 445 CURVE",
"223 404 OFFCURVE",
"218 378 OFFCURVE",
"218 365 CURVE SMOOTH"
);
}
);
width = 990;
}
);
unicode = 0061;
},
{
glyphname = b;
layers = (
{
layerId = "B727121D-3B30-4656-AEE9-0CFAB48D4F65";
name = Regular;
paths = (
{
closed = 1;
nodes = (
"205 1420 OFFCURVE",
"262 1400 OFFCURVE",
"262 1381 CURVE",
"275 1301 OFFCURVE",
"285 1204 OFFCURVE",
"292 1090 CURVE",
"288 1090 LINE",
"292 1082 LINE",
"292 1048 OFFCURVE",
"294 995 OFFCURVE",
"299 922 CURVE",
"456 895 OFFCURVE",
"578 866 OFFCURVE",
"663 834 CURVE SMOOTH",
"806 775 OFFCURVE",
"896 696 OFFCURVE",
"933 598 CURVE SMOOTH",
"952 547 OFFCURVE",
"962 502 OFFCURVE",
"962 463 CURVE",
"958 463 LINE",
"962 455 LINE",
"962 238 OFFCURVE",
"860 98 OFFCURVE",
"656 33 CURVE SMOOTH",
"579 11 OFFCURVE",
"494 0 OFFCURVE",
"401 0 CURVE SMOOTH",
"241 0 OFFCURVE",
"121 151 OFFCURVE",
"40 452 CURVE",
"21 565 OFFCURVE",
"11 625 OFFCURVE",
"11 630 CURVE",
"15 630 LINE",
"5 681 OFFCURVE",
"0 757 OFFCURVE",
"0 860 CURVE SMOOTH",
"0 871 LINE SMOOTH",
"0 1048 OFFCURVE",
"30 1238 OFFCURVE",
"91 1443 CURVE"
);
},
{
closed = 1;
nodes = (
"372 342 OFFCURVE",
"424 292 OFFCURVE",
"528 277 CURVE",
"575 277 OFFCURVE",
"622 292 OFFCURVE",
"667 321 CURVE",
"713 358 OFFCURVE",
"736 400 OFFCURVE",
"736 445 CURVE SMOOTH",
"736 455 LINE SMOOTH",
"736 524 OFFCURVE",
"687 576 OFFCURVE",
"590 609 CURVE",
"566 614 OFFCURVE",
"550 616 OFFCURVE",
"543 616 CURVE SMOOTH",
"464 616 OFFCURVE",
"410 576 OFFCURVE",
"383 496 CURVE",
"378 485 OFFCURVE",
"374 461 OFFCURVE",
"372 426 CURVE"
);
}
);
width = 962;
}
);
unicode = 0062;
},
{
glyphname = c;
layers = (
{
layerId = "B727121D-3B30-4656-AEE9-0CFAB48D4F65";
name = Regular;
paths = (
{
closed = 1;
nodes = (
"696 1029 OFFCURVE",
"774 1012 OFFCURVE",
"835 977 CURVE",
"835 918 LINE SMOOTH",
"835 887 OFFCURVE",
"825 872 OFFCURVE",
"806 872 CURVE",
"680 851 OFFCURVE",
"597 821 OFFCURVE",
"556 783 CURVE",
"457 700 OFFCURVE",
"408 613 OFFCURVE",
"408 520 CURVE SMOOTH",
"408 363 OFFCURVE",
"553 213 OFFCURVE",
"842 72 CURVE",
"842 66 LINE",
"776 22 OFFCURVE",
"693 0 OFFCURVE",
"592 0 CURVE SMOOTH",
"303 0 OFFCURVE",
"115 107 OFFCURVE",
"26 322 CURVE SMOOTH",
"9 367 OFFCURVE",
"0 412 OFFCURVE",
"0 457 CURVE SMOOTH",
"0 464 LINE SMOOTH",
"0 721 OFFCURVE",
"114 897 OFFCURVE",
"342 990 CURVE",
"426 1016 OFFCURVE",
"512 1029 OFFCURVE",
"599 1029 CURVE SMOOTH"
);
}
);
width = 849;
}
);
unicode = 0063;
},
{
glyphname = d;
layers = (
{
layerId = "B727121D-3B30-4656-AEE9-0CFAB48D4F65";
name = Regular;
paths = (
{
closed = 1;
nodes = (
"846 1436 OFFCURVE",
"867 1417 OFFCURVE",
"867 1378 CURVE",
"923 1141 OFFCURVE",
"951 895 OFFCURVE",
"951 641 CURVE SMOOTH",
"951 312 OFFCURVE",
"896 105 OFFCURVE",
"787 18 CURVE",
"765 6 OFFCURVE",
"740 0 OFFCURVE",
"711 0 CURVE SMOOTH",
"466 0 OFFCURVE",
"273 50 OFFCURVE",
"131 149 CURVE",
"44 222 OFFCURVE",
"0 321 OFFCURVE",
"0 445 CURVE SMOOTH",
"0 666 OFFCURVE",
"112 814 OFFCURVE",
"335 889 CURVE",
"424 914 OFFCURVE",
"502 926 OFFCURVE",
"569 926 CURVE SMOOTH",
"660 926 LINE",
"667 922 LINE",
"690 1257 OFFCURVE",
"707 1425 OFFCURVE",
"718 1425 CURVE",
"763 1432 OFFCURVE",
"792 1436 OFFCURVE",
"805 1436 CURVE SMOOTH"
);
},
{
closed = 1;
nodes = (
"284 401 LINE SMOOTH",
"284 333 OFFCURVE",
"324 286 OFFCURVE",
"405 259 CURVE",
"418 256 OFFCURVE",
"431 255 OFFCURVE",
"445 255 CURVE SMOOTH",
"518 255 OFFCURVE",
"579 295 OFFCURVE",
"627 375 CURVE",
"634 401 OFFCURVE",
"638 419 OFFCURVE",
"638 430 CURVE SMOOTH",
"638 486 OFFCURVE",
"603 539 OFFCURVE",
"532 590 CURVE",
"521 597 OFFCURVE",
"502 604 OFFCURVE",
"477 609 CURVE",
"405 609 OFFCURVE",
"343 559 OFFCURVE",
"292 459 CURVE",
"287 436 OFFCURVE",
"284 418 OFFCURVE",
"284 405 CURVE SMOOTH"
);
}
);
width = 962;
}
);
unicode = 0064;
},
{
glyphname = e;
layers = (
{
layerId = "B727121D-3B30-4656-AEE9-0CFAB48D4F65";
name = Regular;
paths = (
{
closed = 1;
nodes = (
"653 1018 OFFCURVE",
"767 966 OFFCURVE",
"824 862 CURVE",
"862 771 OFFCURVE",
"881 691 OFFCURVE",
"881 620 CURVE",
"625 546 OFFCURVE",
"497 450 OFFCURVE",
"497 331 CURVE SMOOTH",
"497 292 OFFCURVE",
"525 251 OFFCURVE",
"582 208 CURVE SMOOTH",
"615 182 OFFCURVE",
"705 152 OFFCURVE",
"852 118 CURVE",
"852 114 LINE",
"757 38 OFFCURVE",
"636 0 OFFCURVE",
"488 0 CURVE",
"488 5 LINE",
"485 5 OFFCURVE",
"483 3 OFFCURVE",
"483 0 CURVE",
"363 0 OFFCURVE",
"254 36 OFFCURVE",
"156 109 CURVE",
"52 200 OFFCURVE",
"0 346 OFFCURVE",
"0 545 CURVE SMOOTH",
"0 748 OFFCURVE",
"43 877 OFFCURVE",
"128 933 CURVE SMOOTH",
"168 960 OFFCURVE",
"234 984 OFFCURVE",
"327 1004 CURVE SMOOTH",
"350 1009 LINE",
"350 1004 LINE",
"378 1009 OFFCURVE",
"422 1014 OFFCURVE",
"483 1018 CURVE"
);
},
{
closed = 1;
nodes = (
"189 633 OFFCURVE",
"208 596 OFFCURVE",
"246 559 CURVE",
"274 543 OFFCURVE",
"304 535 OFFCURVE",
"336 535 CURVE SMOOTH",
"379 535 OFFCURVE",
"428 559 OFFCURVE",
"483 606 CURVE",
"502 645 OFFCURVE",
"511 674 OFFCURVE",
"511 691 CURVE SMOOTH",
"511 710 LINE",
"486 792 OFFCURVE",
"426 833 OFFCURVE",
"331 833 CURVE",
"236 820 OFFCURVE",
"189 766 OFFCURVE",
"189 672 CURVE SMOOTH"
);
}
);
width = 884;
}
);
unicode = 0065;
},
{
glyphname = f;
layers = (
{
layerId = "B727121D-3B30-4656-AEE9-0CFAB48D4F65";
name = Regular;
paths = (
{
closed = 1;
nodes = (
"372 1209 LINE SMOOTH",
"449 1209 OFFCURVE",
"522 1169 OFFCURVE",
"591 1089 CURVE",
"591 1083 OFFCURVE",
"562 1074 OFFCURVE",
"504 1061 CURVE",
"389 1023 OFFCURVE",
"310 966 OFFCURVE",
"268 889 CURVE",
"247 840 OFFCURVE",
"237 808 OFFCURVE",
"237 794 CURVE",
"483 794 LINE",
"487 793 OFFCURVE",
"489 791 OFFCURVE",
"489 787 CURVE",
"466 698 OFFCURVE",
"428 634 OFFCURVE",
"375 597 CURVE SMOOTH",
"322 562 OFFCURVE",
"283 544 OFFCURVE",
"258 544 CURVE",
"267 380 OFFCURVE",
"271 242 OFFCURVE",
"271 129 CURVE",
"269 72 OFFCURVE",
"268 35 OFFCURVE",
"268 18 CURVE",
"246 6 OFFCURVE",
"213 0 OFFCURVE",
"169 0 CURVE",
"95 4 OFFCURVE",
"58 11 OFFCURVE",
"58 22 CURVE",
"19 199 OFFCURVE",
"0 407 OFFCURVE",
"0 646 CURVE SMOOTH",
"0 680 LINE SMOOTH",
"1 951 OFFCURVE",
"27 1113 OFFCURVE",
"77 1166 CURVE",
"108 1195 OFFCURVE",
"199 1209 OFFCURVE",
"351 1209 CURVE SMOOTH"
);
}
);
width = 615;
}
);
unicode = 0066;
},
{
glyphname = g;
layers = (
{
layerId = "B727121D-3B30-4656-AEE9-0CFAB48D4F65";
name = Regular;
paths = (
{
closed = 1;
nodes = (
"503 1018 OFFCURVE",
"508 1017 OFFCURVE",
"513 1017 CURVE SMOOTH",
"562 1017 LINE SMOOTH",
"564 1017 OFFCURVE",
"565 1016 OFFCURVE",
"565 1013 CURVE",
"573 1017 LINE",
"592 1017 OFFCURVE",
"605 946 OFFCURVE",
"614 804 CURVE",
"617 804 OFFCURVE",
"618 801 OFFCURVE",
"618 796 CURVE",
"614 796 LINE",
"617 795 OFFCURVE",
"620 757 OFFCURVE",
"625 684 CURVE",
"622 684 LINE",
"625 677 LINE",
"625 651 LINE SMOOTH",
"625 633 OFFCURVE",
"626 605 OFFCURVE",
"629 568 CURVE",
"625 568 LINE",
"629 561 LINE",
"629 467 LINE SMOOTH",
"629 465 OFFCURVE",
"628 464 OFFCURVE",
"625 464 CURVE",
"629 456 LINE",
"629 453 OFFCURVE",
"628 452 OFFCURVE",
"625 452 CURVE",
"625 450 OFFCURVE",
"626 449 OFFCURVE",
"629 449 CURVE",
"625 422 LINE",
"625 385 LINE SMOOTH",
"625 382 OFFCURVE",
"624 381 OFFCURVE",
"622 381 CURVE",
"622 378 OFFCURVE",
"623 377 OFFCURVE",
"625 377 CURVE",
"604 152 OFFCURVE",
"559 22 OFFCURVE",
"491 -12 CURVE",
"469 -33 OFFCURVE",
"426 -49 OFFCURVE",
"363 -60 CURVE",
"363 -57 LINE",
"360 -59 OFFCURVE",
"344 -61 OFFCURVE",
"315 -64 CURVE",
"315 -60 LINE",
"307 -64 LINE",
"247 -64 LINE SMOOTH",
"245 -64 OFFCURVE",
"244 -63 OFFCURVE",
"244 -60 CURVE",
"241 -60 OFFCURVE",
"240 -61 OFFCURVE",
"240 -64 CURVE",
"193 -64 OFFCURVE",
"158 -48 OFFCURVE",
"135 -15 CURVE",
"135 6 OFFCURVE",
"156 28 OFFCURVE",
"199 52 CURVE",
"316 66 OFFCURVE",
"375 80 OFFCURVE",
"375 93 CURVE",
"402 106 OFFCURVE",
"422 131 OFFCURVE",
"434 168 CURVE",
"434 171 OFFCURVE",
"433 172 OFFCURVE",
"431 172 CURVE",
"434 190 LINE",
"434 228 LINE",
"375 224 LINE",
"299 224 OFFCURVE",
"217 255 OFFCURVE",
"128 318 CURVE",
"59 379 OFFCURVE",
"17 444 OFFCURVE",
"4 512 CURVE SMOOTH",
"-3 557 OFFCURVE",
"-7 602 OFFCURVE",
"-7 647 CURVE",
"-3 647 LINE",
"-3 650 OFFCURVE",
"-4 651 OFFCURVE",
"-7 651 CURVE",
"-7 726 OFFCURVE",
"13 799 OFFCURVE",
"53 868 CURVE",
"116 967 OFFCURVE",
"252 1017 OFFCURVE",
"461 1017 CURVE SMOOTH",
"483 1017 LINE SMOOTH",
"489 1017 OFFCURVE",
"494 1018 OFFCURVE",
"498 1021 CURVE"
);
},
{
closed = 1;
nodes = (
"214 606 LINE",
"214 603 OFFCURVE",
"213 599 OFFCURVE",
"210 594 CURVE",
"222 522 OFFCURVE",
"256 486 OFFCURVE",
"311 486 CURVE SMOOTH",
"318 486 LINE SMOOTH",
"375 486 OFFCURVE",
"418 511 OFFCURVE",
"449 561 CURVE",
"459 579 OFFCURVE",
"464 598 OFFCURVE",
"464 617 CURVE",
"445 687 OFFCURVE",
"397 722 OFFCURVE",
"318 722 CURVE SMOOTH",
"288 722 OFFCURVE",
"258 704 OFFCURVE",
"229 669 CURVE",
"223 658 OFFCURVE",
"217 639 OFFCURVE",
"210 613 CURVE"
);
}
);
width = 629;
}
);
unicode = 0067;
},
{
glyphname = h;
layers = (
{
layerId = "B727121D-3B30-4656-AEE9-0CFAB48D4F65";
name = Regular;
paths = (
{
closed = 1;
nodes = (
"169 1231 LINE SMOOTH",
"209 1231 OFFCURVE",
"229 1202 OFFCURVE",
"229 1144 CURVE",
"262 975 OFFCURVE",
"279 856 OFFCURVE",
"279 787 CURVE",
"284 787 LINE",
"316 796 OFFCURVE",
"340 801 OFFCURVE",
"357 801 CURVE SMOOTH",
"371 801 LINE SMOOTH",
"532 801 OFFCURVE",
"654 642 OFFCURVE",
"737 325 CURVE",
"743 279 OFFCURVE",
"747 232 OFFCURVE",
"750 183 CURVE",
"750 124 OFFCURVE",
"727 69 OFFCURVE",
"682 18 CURVE",
"668 18 LINE",
"528 302 OFFCURVE",
"424 444 OFFCURVE",
"357 444 CURVE SMOOTH",
"308 444 OFFCURVE",
"275 424 OFFCURVE",
"256 384 CURVE",
"215 92 LINE",
"194 31 OFFCURVE",
"167 0 OFFCURVE",
"133 0 CURVE SMOOTH",
"87 0 LINE SMOOTH",
"56 0 OFFCURVE",
"41 15 OFFCURVE",
"41 46 CURVE",
"14 129 OFFCURVE",
"0 222 OFFCURVE",
"0 325 CURVE SMOOTH",
"0 416 LINE SMOOTH",
"0 696 OFFCURVE",
"29 963 OFFCURVE",
"87 1217 CURVE",
"98 1226 OFFCURVE",
"112 1231 OFFCURVE",
"128 1231 CURVE SMOOTH"
);
}
);
width = 757;
}
);
unicode = 0068;
},
{
glyphname = i;
layers = (
{
layerId = "B727121D-3B30-4656-AEE9-0CFAB48D4F65";
name = Regular;
paths = (
{
closed = 1;
nodes = (
"125 1025 LINE SMOOTH",
"193 1025 OFFCURVE",
"227 1000 OFFCURVE",
"227 949 CURVE SMOOTH",
"227 878 OFFCURVE",
"209 843 OFFCURVE",
"174 843 CURVE SMOOTH",
"141 843 OFFCURVE",
"116 842 OFFCURVE",
"98 840 CURVE",
"38 845 OFFCURVE",
"8 866 OFFCURVE",
"8 904 CURVE",
"5 904 OFFCURVE",
"4 909 OFFCURVE",
"4 919 CURVE SMOOTH",
"4 983 LINE SMOOTH",
"4 1006 OFFCURVE",
"29 1020 OFFCURVE",
"79 1025 CURVE"
);
},
{
closed = 1;
nodes = (
"49 745 LINE",
"161 735 OFFCURVE",
"222 722 OFFCURVE",
"231 707 CURVE",
"231 613 LINE SMOOTH",
"220 243 OFFCURVE",
"202 51 OFFCURVE",
"178 38 CURVE",
"178 17 OFFCURVE",
"167 4 OFFCURVE",
"144 0 CURVE",
"129 0 LINE SMOOTH",
"56 0 OFFCURVE",
"19 26 OFFCURVE",
"19 79 CURVE",
"6 169 OFFCURVE",
"0 293 OFFCURVE",
"0 450 CURVE SMOOTH",
"0 688 LINE SMOOTH",
"0 726 OFFCURVE",
"13 745 OFFCURVE",
"38 745 CURVE SMOOTH"
);
}
);
width = 233;
}
);
unicode = 0069;
},
{
glyphname = j;
layers = (
{
layerId = "B727121D-3B30-4656-AEE9-0CFAB48D4F65";
name = Regular;
paths = (
{
closed = 1;
nodes = (
"321 1045 LINE SMOOTH",
"351 1045 OFFCURVE",
"380 1017 OFFCURVE",
"408 960 CURVE",
"408 940 LINE SMOOTH",
"408 898 OFFCURVE",
"377 871 OFFCURVE",
"314 858 CURVE",
"281 858 OFFCURVE",
"248 876 OFFCURVE",
"214 913 CURVE",
"207 929 OFFCURVE",
"204 941 OFFCURVE",
"204 948 CURVE SMOOTH",
"204 975 OFFCURVE",
"227 1003 OFFCURVE",
"274 1032 CURVE SMOOTH",
"289 1041 OFFCURVE",
"300 1045 OFFCURVE",
"309 1045 CURVE SMOOTH"
);
},
{
closed = 1;
nodes = (
"429 704 OFFCURVE",
"438 591 OFFCURVE",
"438 472 CURVE SMOOTH",
"438 403 LINE SMOOTH",
"438 213 OFFCURVE",
"412 79 OFFCURVE",
"361 0 CURVE",
"326 -33 OFFCURVE",
"272 -57 OFFCURVE",
"199 -70 CURVE",
"155 -80 OFFCURVE",
"111 -85 OFFCURVE",
"67 -85 CURVE SMOOTH",
"65 -85 LINE SMOOTH",
"22 -84 OFFCURVE",
"0 -81 OFFCURVE",
"0 -75 CURVE SMOOTH",
"0 -73 LINE",
"5 -56 OFFCURVE",
"39 -18 OFFCURVE",
"102 42 CURVE",
"136 66 OFFCURVE",
"168 86 OFFCURVE",
"197 102 CURVE",
"204 102 OFFCURVE",
"208 311 OFFCURVE",
"209 729 CURVE SMOOTH",
"209 758 OFFCURVE",
"246 782 OFFCURVE",
"321 801 CURVE",
"351 806 OFFCURVE",
"381 810 OFFCURVE",
"411 813 CURVE"
);
}
);
width = 446;
}
);
unicode = 006A;
},
{
glyphname = k;
layers = (
{
layerId = "B727121D-3B30-4656-AEE9-0CFAB48D4F65";
name = Regular;
paths = (
{
closed = 1;
nodes = (
"205 1174 OFFCURVE",
"229 1166 OFFCURVE",
"251 1149 CURVE",
"270 1130 OFFCURVE",
"284 1065 OFFCURVE",
"294 955 CURVE",
"293 955 LINE",
"294 951 LINE",
"300 849 LINE",
"298 849 LINE",
"300 846 LINE",
"300 738 LINE",
"415 812 OFFCURVE",
"504 865 OFFCURVE",
"567 898 CURVE",
"575 901 OFFCURVE",
"583 903 OFFCURVE",
"592 903 CURVE SMOOTH",
"600 903 LINE SMOOTH",
"679 903 OFFCURVE",
"693 768 OFFCURVE",
"693 723 CURVE SMOOTH",
"693 706 LINE SMOOTH",
"693 694 OFFCURVE",
"681 681 OFFCURVE",
"657 668 CURVE",
"512 555 OFFCURVE",
"426 489 OFFCURVE",
"399 470 CURVE",
"399 467 LINE",
"481 431 OFFCURVE",
"564 385 OFFCURVE",
"648 330 CURVE SMOOTH",
"765 249 OFFCURVE",
"824 179 OFFCURVE",
"824 118 CURVE SMOOTH",
"824 111 LINE SMOOTH",
"824 78 OFFCURVE",
"807 41 OFFCURVE",
"772 0 CURVE",
"770 0 LINE SMOOTH",
"766 0 OFFCURVE",
"687 39 OFFCURVE",
"533 118 CURVE SMOOTH",
"298 241 LINE",
"298 239 LINE SMOOTH",
"298 195 OFFCURVE",
"281 141 OFFCURVE",
"248 77 CURVE",
"213 27 OFFCURVE",
"168 2 OFFCURVE",
"111 2 CURVE",
"95 23 OFFCURVE",
"79 60 OFFCURVE",
"63 113 CURVE SMOOTH",
"21 263 OFFCURVE",
"0 429 OFFCURVE",
"0 612 CURVE SMOOTH",
"0 713 OFFCURVE",
"11 825 OFFCURVE",
"32 948 CURVE",
"56 1031 OFFCURVE",
"81 1092 OFFCURVE",
"106 1131 CURVE",
"121 1160 OFFCURVE",
"145 1174 OFFCURVE",
"180 1174 CURVE SMOOTH"
);
}
);
width = 817;
}
);
unicode = 006B;
},
{
glyphname = l;
layers = (
{
layerId = "B727121D-3B30-4656-AEE9-0CFAB48D4F65";
name = Regular;
paths = (
{
closed = 1;
nodes = (
"186 1144 LINE SMOOTH",
"188 1144 OFFCURVE",
"189 1143 OFFCURVE",
"189 1141 CURVE",
"191 1141 OFFCURVE",
"192 1142 OFFCURVE",
"192 1144 CURVE",
"223 1144 OFFCURVE",
"242 1125 OFFCURVE",
"247 1086 CURVE",
"245 1086 LINE",
"247 1080 LINE",
"246 1041 OFFCURVE",
"245 1012 OFFCURVE",
"245 993 CURVE",
"242 993 LINE",
"242 991 OFFCURVE",
"243 990 OFFCURVE",
"245 990 CURVE",
"241 949 OFFCURVE",
"239 907 OFFCURVE",
"239 862 CURVE",
"236 862 LINE",
"236 860 OFFCURVE",
"237 859 OFFCURVE",
"239 859 CURVE",
"236 844 LINE",
"236 809 OFFCURVE",
"234 727 OFFCURVE",
"230 597 CURVE",
"232 588 OFFCURVE",
"233 574 OFFCURVE",
"233 556 CURVE",
"230 556 LINE",
"232 552 OFFCURVE",
"233 549 OFFCURVE",
"233 547 CURVE SMOOTH",
"233 425 OFFCURVE",
"250 323 OFFCURVE",
"285 242 CURVE",
"310 203 OFFCURVE",
"331 183 OFFCURVE",
"349 183 CURVE",
"353 185 OFFCURVE",
"356 186 OFFCURVE",
"358 186 CURVE",
"361 181 LINE",
"361 175 LINE SMOOTH",
"361 80 OFFCURVE",
"327 22 OFFCURVE",
"259 3 CURVE",
"246 1 OFFCURVE",
"234 0 OFFCURVE",
"224 0 CURVE SMOOTH",
"105 0 OFFCURVE",
"32 89 OFFCURVE",
"6 268 CURVE",
"6 284 OFFCURVE",
"4 305 OFFCURVE",
"0 332 CURVE",
"3 332 LINE",
"1 336 OFFCURVE",
"0 339 OFFCURVE",
"0 341 CURVE SMOOTH",
"0 406 OFFCURVE",
"1 527 OFFCURVE",
"3 705 CURVE",
"6 705 LINE",
"6 706 OFFCURVE",
"5 707 OFFCURVE",
"3 707 CURVE",
"6 728 LINE",
"6 771 OFFCURVE",
"8 882 OFFCURVE",
"12 1063 CURVE",
"15 1063 LINE",
"12 1068 LINE",
"12 1074 LINE SMOOTH",
"12 1076 OFFCURVE",
"13 1077 OFFCURVE",
"15 1077 CURVE",
"12 1083 LINE",
"12 1116 OFFCURVE",
"55 1136 OFFCURVE",
"140 1144 CURVE"
);
}
);
width = 375;
}
);
unicode = 006C;
},
{
glyphname = m;
layers = (
{
layerId = "B727121D-3B30-4656-AEE9-0CFAB48D4F65";
name = Regular;
paths = (
{
closed = 1;
nodes = (
"154 1025 LINE SMOOTH",
"239 1025 OFFCURVE",
"329 939 OFFCURVE",
"423 768 CURVE",
"453 707 OFFCURVE",
"481 635 OFFCURVE",
"507 550 CURVE SMOOTH",
"509 543 OFFCURVE",
"510 538 OFFCURVE",
"510 535 CURVE",
"512 535 OFFCURVE",
"520 568 OFFCURVE",
"535 634 CURVE SMOOTH",
"600 893 OFFCURVE",
"694 1023 OFFCURVE",
"817 1023 CURVE SMOOTH",
"876 1023 OFFCURVE",
"923 970 OFFCURVE",
"956 865 CURVE",
"971 803 OFFCURVE",
"979 744 OFFCURVE",
"979 687 CURVE",
"986 612 OFFCURVE",
"989 545 OFFCURVE",
"989 487 CURVE SMOOTH",
"989 472 LINE SMOOTH",
"989 233 OFFCURVE",
"959 80 OFFCURVE",
"898 15 CURVE",
"876 10 OFFCURVE",
"857 7 OFFCURVE",
"842 7 CURVE SMOOTH",
"818 7 OFFCURVE",
"801 170 OFFCURVE",
"792 495 CURVE",
"792 497 LINE",
"791 497 LINE",
"737 382 OFFCURVE",
"677 279 OFFCURVE",
"611 188 CURVE",
"571 143 OFFCURVE",
"536 108 OFFCURVE",
"507 84 CURVE",
"505 84 LINE",
"450 127 OFFCURVE",
"398 175 OFFCURVE",
"347 228 CURVE",
"298 285 OFFCURVE",
"254 345 OFFCURVE",
"215 406 CURVE",
"213 406 LINE",
"213 404 LINE",
"223 243 OFFCURVE",
"228 130 OFFCURVE",
"228 63 CURVE SMOOTH",
"228 21 OFFCURVE",
"195 0 OFFCURVE",
"129 0 CURVE SMOOTH",
"120 0 LINE",
"103 5 OFFCURVE",
"82 37 OFFCURVE",
"58 97 CURVE",
"19 212 OFFCURVE",
"0 357 OFFCURVE",
"0 530 CURVE SMOOTH",
"0 548 LINE SMOOTH",
"0 705 OFFCURVE",
"26 841 OFFCURVE",
"78 957 CURVE",
"103 1002 OFFCURVE",
"127 1025 OFFCURVE",
"149 1025 CURVE SMOOTH"
);
}
);
width = 1011;
}
);
unicode = 006D;
},
{
glyphname = n;
layers = (
{
layerId = "B727121D-3B30-4656-AEE9-0CFAB48D4F65";
name = Regular;
paths = (
{
closed = 1;
nodes = (
"124 996 OFFCURVE",
"192 964 OFFCURVE",
"233 923 CURVE",
"332 986 OFFCURVE",
"447 1018 OFFCURVE",
"580 1018 CURVE SMOOTH",
"725 1018 OFFCURVE",
"822 929 OFFCURVE",
"871 752 CURVE SMOOTH",
"890 677 OFFCURVE",
"899 591 OFFCURVE",
"899 495 CURVE SMOOTH",
"899 326 OFFCURVE",
"872 161 OFFCURVE",
"818 0 CURVE",
"675 0 LINE SMOOTH",
"669 0 OFFCURVE",
"666 3 OFFCURVE",
"666 10 CURVE SMOOTH",
"666 43 LINE",
"690 385 LINE",
"690 390 LINE SMOOTH",
"690 555 OFFCURVE",
"641 637 OFFCURVE",
"542 637 CURVE SMOOTH",
"538 637 LINE SMOOTH",
"385 637 OFFCURVE",
"287 545 OFFCURVE",
"243 362 CURVE",
"233 280 OFFCURVE",
"228 220 OFFCURVE",
"228 181 CURVE",
"235 119 OFFCURVE",
"238 73 OFFCURVE",
"238 43 CURVE SMOOTH",
"238 38 LINE SMOOTH",
"238 16 OFFCURVE",
"227 5 OFFCURVE",
"205 5 CURVE SMOOTH",
"190 5 LINE SMOOTH",
"84 5 OFFCURVE",
"22 198 OFFCURVE",
"5 585 CURVE",
"5 627 OFFCURVE",
"3 665 OFFCURVE",
"0 699 CURVE",
"7 866 OFFCURVE",
"16 972 OFFCURVE",
"29 1018 CURVE"
);
}
);
width = 919;
}
);
unicode = 006E;
},
{
glyphname = o;
layers = (
{
layerId = "B727121D-3B30-4656-AEE9-0CFAB48D4F65";
name = Regular;
paths = (
{
closed = 1;
nodes = (
"662 1025 OFFCURVE",
"777 947 OFFCURVE",
"833 790 CURVE",
"849 730 OFFCURVE",
"857 673 OFFCURVE",
"857 618 CURVE SMOOTH",
"857 370 OFFCURVE",
"788 182 OFFCURVE",
"651 53 CURVE",
"604 18 OFFCURVE",
"552 0 OFFCURVE",
"493 0 CURVE SMOOTH",
"257 0 OFFCURVE",
"101 107 OFFCURVE",
"24 321 CURVE",
"8 382 OFFCURVE",
"0 433 OFFCURVE",
"0 474 CURVE SMOOTH",
"0 752 OFFCURVE",
"53 915 OFFCURVE",
"158 963 CURVE",
"229 1004 OFFCURVE",
"339 1025 OFFCURVE",
"489 1025 CURVE SMOOTH"
);
},
{
closed = 1;
nodes = (
"326 314 OFFCURVE",
"371 268 OFFCURVE",
"441 268 CURVE SMOOTH",
"513 268 OFFCURVE",
"570 318 OFFCURVE",
"613 417 CURVE",
"613 445 LINE SMOOTH",
"613 512 OFFCURVE",
"567 561 OFFCURVE",
"474 594 CURVE",
"441 594 LINE",
"352 565 OFFCURVE",
"307 502 OFFCURVE",
"307 407 CURVE"
);
}
);
width = 863;
}
);
unicode = 006F;
},
{
glyphname = p;
layers = (
{
layerId = "B727121D-3B30-4656-AEE9-0CFAB48D4F65";
name = Regular;
paths = (
{
closed = 1;
nodes = (
"16 1018 LINE",
"73 1012 OFFCURVE",
"117 1009 OFFCURVE",
"147 1009 CURVE",
"272 1014 OFFCURVE",
"341 1016 OFFCURVE",
"356 1016 CURVE SMOOTH",
"383 1016 LINE SMOOTH",
"560 1016 OFFCURVE",
"678 951 OFFCURVE",
"739 821 CURVE",
"752 784 OFFCURVE",
"759 753 OFFCURVE",
"759 726 CURVE SMOOTH",
"759 662 LINE SMOOTH",
"759 466 OFFCURVE",
"679 325 OFFCURVE",
"519 238 CURVE",
"470 215 OFFCURVE",
"403 200 OFFCURVE",
"317 191 CURVE",
"288 189 OFFCURVE",
"274 187 OFFCURVE",
"274 184 CURVE",
"303 47 OFFCURVE",
"317 -40 OFFCURVE",
"317 -77 CURVE SMOOTH",
"317 -83 LINE",
"305 -98 OFFCURVE",
"279 -106 OFFCURVE",
"238 -106 CURVE SMOOTH",
"199 -106 LINE SMOOTH",
"139 -106 OFFCURVE",
"109 -98 OFFCURVE",
"109 -83 CURVE",
"36 236 OFFCURVE",
"0 536 OFFCURVE",
"0 819 CURVE SMOOTH",
"0 823 LINE SMOOTH",
"0 953 OFFCURVE",
"5 1018 OFFCURVE",
"14 1018 CURVE SMOOTH"
);
},
{
closed = 1;
nodes = (
"317 528 OFFCURVE",
"350 497 OFFCURVE",
"417 490 CURVE",
"424 490 LINE SMOOTH",
"479 490 OFFCURVE",
"519 516 OFFCURVE",
"546 567 CURVE",
"549 578 OFFCURVE",
"551 587 OFFCURVE",
"551 594 CURVE SMOOTH",
"551 603 LINE SMOOTH",
"551 648 OFFCURVE",
"521 680 OFFCURVE",
"462 701 CURVE",
"452 704 OFFCURVE",
"440 706 OFFCURVE",
"426 708 CURVE",
"372 708 OFFCURVE",
"337 680 OFFCURVE",
"322 624 CURVE",
"319 603 OFFCURVE",
"317 589 OFFCURVE",
"317 583 CURVE SMOOTH"
);
}
);
width = 771;
}
);
unicode = 0070;
},
{
glyphname = q;
layers = (
{
layerId = "B727121D-3B30-4656-AEE9-0CFAB48D4F65";
name = Regular;
paths = (
{
closed = 1;
nodes = (
"629 1010 LINE",
"633 942 OFFCURVE",
"636 872 OFFCURVE",
"637 799 CURVE SMOOTH",
"637 515 OFFCURVE",
"599 214 OFFCURVE",
"524 -103 CURVE",
"496 -110 OFFCURVE",
"462 -114 OFFCURVE",
"421 -114 CURVE",
"390 -111 OFFCURVE",
"374 -105 OFFCURVE",
"374 -97 CURVE SMOOTH",
"374 -94 LINE SMOOTH",
"374 -15 OFFCURVE",
"382 76 OFFCURVE",
"398 177 CURVE",
"339 185 OFFCURVE",
"294 195 OFFCURVE",
"261 206 CURVE",
"163 243 OFFCURVE",
"94 302 OFFCURVE",
"54 382 CURVE",
"13 454 OFFCURVE",
"-7 555 OFFCURVE",
"-7 684 CURVE SMOOTH",
"-7 691 LINE SMOOTH",
"-7 899 OFFCURVE",
"97 1010 OFFCURVE",
"297 1010 CURVE",
"522 998 OFFCURVE",
"528 1001 OFFCURVE",
"628 1013 CURVE"
);
},
{
closed = 1;
nodes = (
"195 608 LINE SMOOTH",
"195 559 OFFCURVE",
"222 517 OFFCURVE",
"276 480 CURVE",
"301 469 OFFCURVE",
"321 463 OFFCURVE",
"337 463 CURVE SMOOTH",
"385 463 OFFCURVE",
"420 492 OFFCURVE",
"443 551 CURVE",
"446 562 OFFCURVE",
"447 573 OFFCURVE",
"447 584 CURVE SMOOTH",
"447 597 LINE SMOOTH",
"447 642 OFFCURVE",
"428 681 OFFCURVE",
"389 715 CURVE",
"369 730 OFFCURVE",
"349 737 OFFCURVE",
"330 737 CURVE SMOOTH",
"275 737 OFFCURVE",
"233 708 OFFCURVE",
"204 649 CURVE SMOOTH",
"198 636 OFFCURVE",
"195 624 OFFCURVE",
"195 611 CURVE SMOOTH"
);
}
);
width = 644;
}
);
unicode = 0071;
},
{
glyphname = r;
layers = (
{
layerId = "B727121D-3B30-4656-AEE9-0CFAB48D4F65";
name = Regular;
paths = (
{
closed = 1;
nodes = (
"80 1010 OFFCURVE",
"138 985 OFFCURVE",
"205 942 CURVE",
"205 937 LINE",
"374 991 OFFCURVE",
"501 1018 OFFCURVE",
"585 1018 CURVE",
"585 1013 LINE",
"595 1018 LINE",
"623 1018 LINE SMOOTH",
"626 1018 OFFCURVE",
"628 1016 OFFCURVE",
"628 1013 CURVE",
"631 1013 OFFCURVE",
"633 1015 OFFCURVE",
"633 1018 CURVE",
"666 1014 OFFCURVE",
"686 1009 OFFCURVE",
"695 1004 CURVE",
"695 909 OFFCURVE",
"671 861 OFFCURVE",
"623 861 CURVE",
"404 766 OFFCURVE",
"295 640 OFFCURVE",
"295 485 CURVE SMOOTH",
"295 480 LINE SMOOTH",
"295 435 OFFCURVE",
"308 321 OFFCURVE",
"333 138 CURVE",
"328 138 LINE",
"333 128 LINE",
"333 67 LINE SMOOTH",
"333 60 OFFCURVE",
"335 53 OFFCURVE",
"338 48 CURVE",
"338 16 OFFCURVE",
"281 0 OFFCURVE",
"166 0 CURVE SMOOTH",
"111 0 OFFCURVE",
"80 51 OFFCURVE",
"71 152 CURVE",
"28 357 OFFCURVE",
"6 530 OFFCURVE",
"5 671 CURVE",
"0 690 LINE",
"5 690 LINE",
"0 699 LINE",
"0 761 LINE SMOOTH",
"4 932 OFFCURVE",
"14 1018 OFFCURVE",
"29 1018 CURVE"
);
}
);
width = 692;
}
);
unicode = 0072;
},
{
glyphname = s;
layers = (
{
layerId = "B727121D-3B30-4656-AEE9-0CFAB48D4F65";
name = Regular;
paths = (
{
closed = 1;
nodes = (
"577 1025 OFFCURVE",
"655 987 OFFCURVE",
"701 911 CURVE",
"701 906 LINE",
"516 890 OFFCURVE",
"424 844 OFFCURVE",
"424 768 CURVE SMOOTH",
"424 716 OFFCURVE",
"512 627 OFFCURVE",
"687 501 CURVE",
"747 440 OFFCURVE",
"777 383 OFFCURVE",
"777 329 CURVE SMOOTH",
"777 315 LINE SMOOTH",
"777 208 OFFCURVE",
"696 115 OFFCURVE",
"534 38 CURVE",
"452 13 OFFCURVE",
"369 0 OFFCURVE",
"286 0 CURVE",
"286 5 LINE",
"283 5 OFFCURVE",
"281 3 OFFCURVE",
"281 0 CURVE",
"94 25 OFFCURVE",
"0 63 OFFCURVE",
"0 114 CURVE SMOOTH",
"0 119 LINE SMOOTH",
"0 128 OFFCURVE",
"16 135 OFFCURVE",
"48 138 CURVE",
"48 133 LINE",
"261 155 OFFCURVE",
"367 219 OFFCURVE",
"367 324 CURVE SMOOTH",
"367 383 OFFCURVE",
"316 445 OFFCURVE",
"215 510 CURVE",
"91 621 OFFCURVE",
"29 693 OFFCURVE",
"29 725 CURVE",
"20 734 OFFCURVE",
"15 749 OFFCURVE",
"14 772 CURVE",
"14 810 LINE SMOOTH",
"14 879 OFFCURVE",
"82 940 OFFCURVE",
"219 992 CURVE",
"298 1014 OFFCURVE",
"380 1025 OFFCURVE",
"467 1025 CURVE SMOOTH"
);
}
);
width = 785;
}
);
unicode = 0073;
},
{
glyphname = t;
layers = (
{
layerId = "B727121D-3B30-4656-AEE9-0CFAB48D4F65";
name = Regular;
paths = (
{
closed = 1;
nodes = (
"209 1083 OFFCURVE",
"248 1068 OFFCURVE",
"248 1048 CURVE",
"252 1020 LINE",
"255 865 OFFCURVE",
"256 767 OFFCURVE",
"256 724 CURVE",
"259 685 OFFCURVE",
"260 664 OFFCURVE",
"260 660 CURVE",
"264 660 LINE SMOOTH",
"363 660 OFFCURVE",
"412 617 OFFCURVE",
"412 532 CURVE",
"415 532 OFFCURVE",
"416 523 OFFCURVE",
"416 504 CURVE SMOOTH",
"416 500 LINE SMOOTH",
"416 493 OFFCURVE",
"381 484 OFFCURVE",
"312 472 CURVE",
"277 461 OFFCURVE",
"260 441 OFFCURVE",
"260 412 CURVE",
"257 402 OFFCURVE",
"256 390 OFFCURVE",
"256 376 CURVE SMOOTH",
"256 289 OFFCURVE",
"281 231 OFFCURVE",
"332 200 CURVE",
"401 189 OFFCURVE",
"447 179 OFFCURVE",
"472 172 CURVE",
"493 172 OFFCURVE",
"509 124 OFFCURVE",
"520 28 CURVE",
"520 12 OFFCURVE",
"509 4 OFFCURVE",
"488 4 CURVE SMOOTH",
"461 4 OFFCURVE",
"407 3 OFFCURVE",
"324 0 CURVE",
"185 0 OFFCURVE",
"95 40 OFFCURVE",
"52 120 CURVE",
"17 200 OFFCURVE",
"0 315 OFFCURVE",
"0 464 CURVE SMOOTH",
"0 722 OFFCURVE",
"25 925 OFFCURVE",
"76 1072 CURVE",
"93 1085 OFFCURVE",
"111 1092 OFFCURVE",
"132 1092 CURVE"
);
}
);
width = 530;
}
);
unicode = 0074;
},
{
glyphname = u;
layers = (
{
layerId = "B727121D-3B30-4656-AEE9-0CFAB48D4F65";
name = Regular;
paths = (
{
closed = 1;
nodes = (
"215 1023 LINE SMOOTH",
"240 1023 OFFCURVE",
"272 1009 OFFCURVE",
"311 980 CURVE",
"256 817 OFFCURVE",
"229 686 OFFCURVE",
"229 588 CURVE SMOOTH",
"229 545 LINE SMOOTH",
"229 437 OFFCURVE",
"275 376 OFFCURVE",
"368 363 CURVE",
"406 363 LINE SMOOTH",
"493 363 OFFCURVE",
"557 438 OFFCURVE",
"598 588 CURVE",
"631 817 OFFCURVE",
"658 932 OFFCURVE",
"679 932 CURVE",
"695 957 OFFCURVE",
"724 970 OFFCURVE",
"765 970 CURVE SMOOTH",
"806 970 OFFCURVE",
"827 916 OFFCURVE",
"827 808 CURVE",
"822 808 LINE",
"827 798 LINE",
"827 722 LINE SMOOTH",
"827 491 OFFCURVE",
"763 256 OFFCURVE",
"636 19 CURVE",
"576 35 OFFCURVE",
"542 43 OFFCURVE",
"535 43 CURVE",
"476 14 OFFCURVE",
"415 0 OFFCURVE",
"354 0 CURVE SMOOTH",
"118 0 OFFCURVE",
"0 174 OFFCURVE",
"0 521 CURVE",
"2 572 OFFCURVE",
"5 598 OFFCURVE",
"10 598 CURVE",
"10 601 OFFCURVE",
"8 602 OFFCURVE",
"5 602 CURVE",
"5 664 OFFCURVE",
"40 772 OFFCURVE",
"110 927 CURVE",
"141 976 OFFCURVE",
"166 1008 OFFCURVE",
"186 1023 CURVE"
);
}
);
width = 834;
}
);
unicode = 0075;
},
{
glyphname = v;
layers = (
{
layerId = "B727121D-3B30-4656-AEE9-0CFAB48D4F65";
name = Regular;
paths = (
{
closed = 1;
nodes = (
"872 1039 LINE",
"891 1020 OFFCURVE",
"906 949 OFFCURVE",
"916 826 CURVE",
"918 811 OFFCURVE",
"919 798 OFFCURVE",
"919 789 CURVE SMOOTH",
"919 519 OFFCURVE",
"844 299 OFFCURVE",
"693 130 CURVE",
"618 54 OFFCURVE",
"561 11 OFFCURVE",
"523 0 CURVE",
"446 19 OFFCURVE",
"361 68 OFFCURVE",
"270 147 CURVE",
"90 327 OFFCURVE",
"0 560 OFFCURVE",
"0 846 CURVE",
"2 903 OFFCURVE",
"9 933 OFFCURVE",
"20 936 CURVE",
"27 936 LINE",
"61 933 OFFCURVE",
"132 860 OFFCURVE",
"240 719 CURVE SMOOTH",
"379 531 OFFCURVE",
"450 437 OFFCURVE",
"453 436 CURVE",
"456 436 LINE",
"497 502 OFFCURVE",
"635 703 OFFCURVE",
"869 1039 CURVE"
);
}
);
width = 919;
}
);
unicode = 0076;
},
{
glyphname = w;
layers = (
{
layerId = "B727121D-3B30-4656-AEE9-0CFAB48D4F65";
name = Regular;
paths = (
{
closed = 1;
nodes = (
"35 1054 LINE SMOOTH",
"126 1054 OFFCURVE",
"199 954 OFFCURVE",
"255 755 CURVE",
"281 640 OFFCURVE",
"294 567 OFFCURVE",
"294 534 CURVE",
"297 534 LINE",
"350 674 OFFCURVE",
"418 764 OFFCURVE",
"502 804 CURVE",
"521 808 OFFCURVE",
"535 810 OFFCURVE",
"546 810 CURVE SMOOTH",
"645 810 OFFCURVE",
"725 708 OFFCURVE",
"787 505 CURVE",
"793 505 LINE",
"793 541 OFFCURVE",
"825 644 OFFCURVE",
"890 813 CURVE",
"919 880 OFFCURVE",
"967 951 OFFCURVE",
"1036 1028 CURVE",
"1056 972 OFFCURVE",
"1066 878 OFFCURVE",
"1066 746 CURVE SMOOTH",
"1066 559 OFFCURVE",
"1023 348 OFFCURVE",
"937 115 CURVE",
"899 38 OFFCURVE",
"867 0 OFFCURVE",
"840 0 CURVE SMOOTH",
"837 0 LINE SMOOTH",
"732 0 OFFCURVE",
"634 117 OFFCURVE",
"543 352 CURVE",
"540 352 LINE",
"511 281 OFFCURVE",
"461 206 OFFCURVE",
"388 129 CURVE",
"305 56 OFFCURVE",
"243 18 OFFCURVE",
"200 15 CURVE",
"67 194 OFFCURVE",
"0 433 OFFCURVE",
"0 731 CURVE SMOOTH",
"0 798 OFFCURVE",
"9 906 OFFCURVE",
"26 1054 CURVE"
);
}
);
width = 1078;
}
);
unicode = 0077;
},
{
glyphname = x;
layers = (
{
layerId = "B727121D-3B30-4656-AEE9-0CFAB48D4F65";
name = Regular;
paths = (
{
closed = 1;
nodes = (
"193 1022 OFFCURVE",
"232 994 OFFCURVE",
"277 939 CURVE",
"298 909 OFFCURVE",
"354 822 OFFCURVE",
"445 678 CURVE",
"542 831 OFFCURVE",
"609 935 OFFCURVE",
"646 990 CURVE",
"655 1002 OFFCURVE",
"665 1008 OFFCURVE",
"676 1008 CURVE",
"847 995 OFFCURVE",
"933 982 OFFCURVE",
"933 971 CURVE SMOOTH",
"933 969 LINE",
"925 950 OFFCURVE",
"895 901 OFFCURVE",
"844 824 CURVE",
"772 703 OFFCURVE",
"698 586 OFFCURVE",
"623 472 CURVE",
"623 467 OFFCURVE",
"699 366 OFFCURVE",
"850 170 CURVE SMOOTH",
"889 120 OFFCURVE",
"909 85 OFFCURVE",
"909 65 CURVE SMOOTH",
"909 61 LINE SMOOTH",
"909 34 OFFCURVE",
"871 15 OFFCURVE",
"795 2 CURVE",
"786 2 OFFCURVE",
"780 1 OFFCURVE",
"775 0 CURVE",
"728 0 OFFCURVE",
"689 18 OFFCURVE",
"658 55 CURVE",
"561 150 OFFCURVE",
"494 223 OFFCURVE",
"457 275 CURVE",
"457 277 OFFCURVE",
"455 279 OFFCURVE",
"451 281 CURVE",
"362 172 OFFCURVE",
"290 81 OFFCURVE",
"233 6 CURVE",
"229 6 LINE",
"198 40 OFFCURVE",
"182 89 OFFCURVE",
"182 152 CURVE SMOOTH",
"182 233 OFFCURVE",
"214 341 OFFCURVE",
"279 478 CURVE",
"0 957 LINE",
"0 959 LINE",
"23 982 OFFCURVE",
"60 1000 OFFCURVE",
"111 1014 CURVE SMOOTH",
"129 1019 OFFCURVE",
"145 1022 OFFCURVE",
"160 1022 CURVE SMOOTH"
);
}
);
width = 926;
}
);
unicode = 0078;
},
{
glyphname = y;
layers = (
{
layerId = "B727121D-3B30-4656-AEE9-0CFAB48D4F65";
name = Regular;
paths = (
{
closed = 1;
nodes = (
"705 1039 OFFCURVE",
"733 1023 OFFCURVE",
"750 992 CURVE",
"755 978 OFFCURVE",
"757 966 OFFCURVE",
"757 956 CURVE SMOOTH",
"757 949 LINE SMOOTH",
"757 897 OFFCURVE",
"714 753 OFFCURVE",
"627 516 CURVE SMOOTH",
"576 374 OFFCURVE",
"519 248 OFFCURVE",
"454 138 CURVE SMOOTH",
"393 42 OFFCURVE",
"344 -26 OFFCURVE",
"307 -66 CURVE",
"280 -88 OFFCURVE",
"252 -99 OFFCURVE",
"225 -99 CURVE SMOOTH",
"196 -99 LINE SMOOTH",
"167 -99 OFFCURVE",
"140 -91 OFFCURVE",
"113 -75 CURVE",
"116 -64 OFFCURVE",
"159 11 OFFCURVE",
"241 152 CURVE",
"244 153 OFFCURVE",
"265 188 OFFCURVE",
"305 258 CURVE",
"139 500 OFFCURVE",
"44 689 OFFCURVE",
"21 824 CURVE SMOOTH",
"16 859 OFFCURVE",
"14 885 OFFCURVE",
"14 902 CURVE",
"19 904 LINE",
"71 904 LINE SMOOTH",
"152 904 OFFCURVE",
"201 875 OFFCURVE",
"217 817 CURVE",
"222 812 OFFCURVE",
"279 706 OFFCURVE",
"386 497 CURVE",
"390 497 LINE",
"433 645 OFFCURVE",
"481 800 OFFCURVE",
"535 963 CURVE",
"546 1001 OFFCURVE",
"561 1020 OFFCURVE",
"580 1020 CURVE",
"604 1033 OFFCURVE",
"632 1039 OFFCURVE",
"665 1039 CURVE SMOOTH"
);
}
);
width = 771;
}
);
unicode = 0079;
},
{
glyphname = z;
layers = (
{
layerId = "B727121D-3B30-4656-AEE9-0CFAB48D4F65";
name = Regular;
paths = (
{
closed = 1;
nodes = (
"303 1028 LINE SMOOTH",
"440 1028 OFFCURVE",
"555 990 OFFCURVE",
"649 913 CURVE",
"678 883 OFFCURVE",
"692 849 OFFCURVE",
"692 811 CURVE SMOOTH",
"692 743 OFFCURVE",
"638 655 OFFCURVE",
"530 547 CURVE",
"471 475 OFFCURVE",
"442 406 OFFCURVE",
"442 339 CURVE SMOOTH",
"442 263 OFFCURVE",
"477 213 OFFCURVE",
"547 188 CURVE",
"589 175 OFFCURVE",
"658 168 OFFCURVE",
"755 168 CURVE",
"765 164 OFFCURVE",
"770 160 OFFCURVE",
"771 155 CURVE",
"759 112 OFFCURVE",
"715 73 OFFCURVE",
"639 36 CURVE",
"584 12 OFFCURVE",
"523 0 OFFCURVE",
"455 0 CURVE SMOOTH",
"451 0 LINE SMOOTH",
"210 0 OFFCURVE",
"66 47 OFFCURVE",
"20 142 CURVE",
"7 173 OFFCURVE",
"0 207 OFFCURVE",
"0 244 CURVE SMOOTH",
"0 368 OFFCURVE",
"89 509 OFFCURVE",
"267 666 CURVE",
"304 703 OFFCURVE",
"323 735 OFFCURVE",
"323 764 CURVE",
"310 817 OFFCURVE",
"258 843 OFFCURVE",
"168 843 CURVE",
"168 846 OFFCURVE",
"155 847 OFFCURVE",
"129 847 CURVE SMOOTH",
"118 847 OFFCURVE",
"79 845 OFFCURVE",
"10 840 CURVE",
"7 847 LINE",
"90 968 OFFCURVE",
"177 1028 OFFCURVE",
"267 1028 CURVE SMOOTH"
);
}
);
width = 792;
}
);
unicode = 007A;
},
{
glyphname = copyright;
layers = (
{
layerId = "B727121D-3B30-4656-AEE9-0CFAB48D4F65";
name = Regular;
paths = (
{
closed = 1;
nodes = (
"916 1805 LINE",
"1039 1794 OFFCURVE",
"1120 1782 OFFCURVE",
"1160 1769 CURVE",
"1175 1769 OFFCURVE",
"1202 1762 OFFCURVE",
"1240 1749 CURVE SMOOTH",
"1341 1715 OFFCURVE",
"1417 1678 OFFCURVE",
"1468 1637 CURVE",
"1539 1596 OFFCURVE",
"1612 1523 OFFCURVE",
"1688 1417 CURVE",
"1748 1285 LINE SMOOTH",
"1775 1226 OFFCURVE",
"1793 1123 OFFCURVE",
"1804 977 CURVE",
"1793 838 OFFCURVE",
"1781 752 OFFCURVE",
"1768 717 CURVE",
"1768 704 OFFCURVE",
"1761 681 OFFCURVE",
"1748 649 CURVE",
"1727 577 OFFCURVE",
"1685 496 OFFCURVE",
"1624 405 CURVE",
"1558 325 OFFCURVE",
"1499 268 OFFCURVE",
"1448 233 CURVE SMOOTH",
"1380 189 LINE SMOOTH",
"1333 157 OFFCURVE",
"1278 132 OFFCURVE",
"1216 113 CURVE",
"1207 105 OFFCURVE",
"1188 100 OFFCURVE",
"1160 97 CURVE",
"1160 88 OFFCURVE",
"1133 81 OFFCURVE",
"1080 77 CURVE",
"1080 66 OFFCURVE",
"1037 60 OFFCURVE",
"952 57 CURVE",
"952 53 OFFCURVE",
"925 49 OFFCURVE",
"872 45 CURVE",
"860 49 LINE",
"824 45 LINE",
"816 45 LINE",
"664 61 LINE",
"605 74 OFFCURVE",
"560 88 OFFCURVE",
"528 101 CURVE",
"463 117 OFFCURVE",
"359 178 OFFCURVE",
"244 277 CURVE",
"147 384 OFFCURVE",
"91 470 OFFCURVE",
"76 533 CURVE",
"70 533 OFFCURVE",
"61 554 OFFCURVE",
"48 597 CURVE SMOOTH",
"32 653 LINE",
"24 653 OFFCURVE",
"13 728 OFFCURVE",
"0 877 CURVE",
"8 961 LINE",
"4 965 LINE",
"4 969 LINE",
"14 994 OFFCURVE",
"21 1034 OFFCURVE",
"24 1089 CURVE",
"35 1096 OFFCURVE",
"40 1117 OFFCURVE",
"40 1153 CURVE",
"52 1170 OFFCURVE",
"61 1194 OFFCURVE",
"68 1225 CURVE",
"73 1227 OFFCURVE",
"81 1244 OFFCURVE",
"92 1277 CURVE",
"128 1347 OFFCURVE",
"157 1396 OFFCURVE",
"180 1425 CURVE",
"202 1460 OFFCURVE",
"241 1504 OFFCURVE",
"296 1557 CURVE SMOOTH",
"349 1609 OFFCURVE",
"393 1644 OFFCURVE",
"428 1661 CURVE",
"460 1686 OFFCURVE",
"519 1715 OFFCURVE",
"604 1749 CURVE SMOOTH",
"656 1769 LINE",
"756 1789 LINE"
);
},
{
closed = 1;
nodes = (
"281 747 OFFCURVE",
"293 679 OFFCURVE",
"304 661 CURVE",
"319 592 OFFCURVE",
"360 516 OFFCURVE",
"428 433 CURVE",
"471 394 OFFCURVE",
"503 370 OFFCURVE",
"524 361 CURVE",
"524 354 OFFCURVE",
"533 348 OFFCURVE",
"552 345 CURVE",
"573 327 OFFCURVE",
"606 312 OFFCURVE",
"652 301 CURVE",
"652 293 OFFCURVE",
"697 282 OFFCURVE",
"788 269 CURVE",
"836 265 LINE",
"840 269 LINE",
"844 269 LINE",
"916 261 LINE",
"940 265 LINE",
"944 261 LINE",
"948 261 LINE",
"1014 266 OFFCURVE",
"1066 276 OFFCURVE",
"1104 289 CURVE SMOOTH",
"1257 342 OFFCURVE",
"1373 450 OFFCURVE",
"1452 613 CURVE SMOOTH",
"1468 644 OFFCURVE",
"1480 678 OFFCURVE",
"1488 717 CURVE",
"1495 717 OFFCURVE",
"1501 744 OFFCURVE",
"1508 797 CURVE",
"1517 797 OFFCURVE",
"1522 846 OFFCURVE",
"1524 945 CURVE SMOOTH",
"1524 1032 OFFCURVE",
"1516 1097 OFFCURVE",
"1500 1141 CURVE",
"1500 1162 OFFCURVE",
"1472 1222 OFFCURVE",
"1416 1321 CURVE",
"1411 1321 OFFCURVE",
"1391 1341 OFFCURVE",
"1356 1381 CURVE",
"1283 1440 OFFCURVE",
"1224 1476 OFFCURVE",
"1180 1489 CURVE",
"1088 1521 LINE",
"980 1541 LINE",
"824 1541 LINE",
"761 1537 OFFCURVE",
"687 1512 OFFCURVE",
"604 1465 CURVE",
"569 1449 OFFCURVE",
"517 1406 OFFCURVE",
"448 1337 CURVE",
"418 1304 OFFCURVE",
"389 1260 OFFCURVE",
"360 1205 CURVE",
"339 1171 OFFCURVE",
"321 1132 OFFCURVE",
"308 1089 CURVE",
"295 1052 OFFCURVE",
"285 1008 OFFCURVE",
"280 957 CURVE",
"274 957 OFFCURVE",
"270 926 OFFCURVE",
"268 865 CURVE"
);
},
{
closed = 1;
nodes = (
"988 1433 LINE",
"1055 1433 OFFCURVE",
"1088 1421 OFFCURVE",
"1088 1397 CURVE SMOOTH",
"1092 1201 LINE",
"1092 1157 LINE",
"1096 1137 LINE",
"1080 1125 LINE",
"1076 1125 LINE",
"1076 1136 OFFCURVE",
"1033 1148 OFFCURVE",
"948 1161 CURVE",
"940 1161 LINE SMOOTH",
"884 1161 OFFCURVE",
"829 1137 OFFCURVE",
"776 1089 CURVE",
"739 1046 OFFCURVE",
"716 1004 OFFCURVE",
"708 961 CURVE",
"708 865 LINE",
"725 786 OFFCURVE",
"749 734 OFFCURVE",
"780 709 CURVE",
"818 676 OFFCURVE",
"867 656 OFFCURVE",
"928 649 CURVE",
"1004 649 LINE",
"1073 665 OFFCURVE",
"1113 682 OFFCURVE",
"1124 701 CURVE",
"1128 705 LINE",
"1148 705 LINE SMOOTH",
"1162 705 OFFCURVE",
"1170 670 OFFCURVE",
"1172 601 CURVE",
"1177 601 OFFCURVE",
"1183 569 OFFCURVE",
"1188 505 CURVE",
"1188 437 LINE SMOOTH",
"1188 427 OFFCURVE",
"1172 420 OFFCURVE",
"1140 417 CURVE",
"1140 406 OFFCURVE",
"1112 399 OFFCURVE",
"1056 397 CURVE",
"1048 389 OFFCURVE",
"1031 385 OFFCURVE",
"1004 385 CURVE SMOOTH",
"815 385 OFFCURVE",
"679 438 OFFCURVE",
"596 545 CURVE",
"581 554 OFFCURVE",
"559 584 OFFCURVE",
"532 637 CURVE SMOOTH",
"511 680 OFFCURVE",
"493 745 OFFCURVE",
"480 833 CURVE",
"480 925 LINE",
"493 1033 OFFCURVE",
"516 1114 OFFCURVE",
"548 1169 CURVE",
"599 1272 OFFCURVE",
"678 1345 OFFCURVE",
"784 1389 CURVE",
"801 1402 OFFCURVE",
"835 1414 OFFCURVE",
"888 1425 CURVE"
);
}
);
width = 1897;
}
);
unicode = 00A9;
},
{
glyphname = registered;
layers = (
{
layerId = "B727121D-3B30-4656-AEE9-0CFAB48D4F65";
name = Regular;
paths = (
{
closed = 1;
nodes = (
"907 1794 LINE",
"947 1794 LINE",
"1127 1774 LINE",
"1127 1767 OFFCURVE",
"1155 1759 OFFCURVE",
"1211 1750 CURVE",
"1211 1745 OFFCURVE",
"1231 1738 OFFCURVE",
"1271 1730 CURVE",
"1271 1725 OFFCURVE",
"1288 1719 OFFCURVE",
"1323 1710 CURVE",
"1323 1704 OFFCURVE",
"1336 1699 OFFCURVE",
"1363 1694 CURVE",
"1439 1646 LINE SMOOTH",
"1535 1587 OFFCURVE",
"1618 1506 OFFCURVE",
"1687 1402 CURVE",
"1723 1336 OFFCURVE",
"1751 1267 OFFCURVE",
"1771 1194 CURVE",
"1779 1185 OFFCURVE",
"1784 1150 OFFCURVE",
"1787 1090 CURVE",
"1792 1090 OFFCURVE",
"1796 1067 OFFCURVE",
"1799 1022 CURVE",
"1799 1014 LINE",
"1795 1014 LINE",
"1799 974 LINE",
"1799 890 LINE",
"1775 734 LINE",
"1768 728 OFFCURVE",
"1762 705 OFFCURVE",
"1759 666 CURVE",
"1753 663 OFFCURVE",
"1745 640 OFFCURVE",
"1735 598 CURVE",
"1730 598 OFFCURVE",
"1724 582 OFFCURVE",
"1715 550 CURVE",
"1655 438 LINE",
"1568 313 OFFCURVE",
"1466 219 OFFCURVE",
"1351 158 CURVE",
"1347 154 LINE",
"1262 111 OFFCURVE",
"1210 90 OFFCURVE",
"1191 90 CURVE",
"1167 77 OFFCURVE",
"1134 67 OFFCURVE",
"1091 62 CURVE",
"1091 56 OFFCURVE",
"1043 48 OFFCURVE",
"947 38 CURVE",
"947 33 OFFCURVE",
"934 30 OFFCURVE",
"907 30 CURVE SMOOTH",
"755 30 LINE",
"648 43 OFFCURVE",
"557 66 OFFCURVE",
"483 98 CURVE",
"483 104 OFFCURVE",
"470 109 OFFCURVE",
"443 114 CURVE",
"343 174 LINE",
"215 282 LINE",
"126 395 OFFCURVE",
"79 468 OFFCURVE",
"75 502 CURVE",
"59 516 OFFCURVE",
"51 536 OFFCURVE",
"51 562 CURVE",
"40 562 OFFCURVE",
"27 610 OFFCURVE",
"11 706 CURVE SMOOTH",
"-5 786 LINE",
"-5 922 LINE",
"8 1019 OFFCURVE",
"22 1095 OFFCURVE",
"39 1150 CURVE",
"50 1169 OFFCURVE",
"55 1189 OFFCURVE",
"55 1210 CURVE",
"60 1213 OFFCURVE",
"83 1257 OFFCURVE",
"123 1342 CURVE",
"156 1396 OFFCURVE",
"206 1463 OFFCURVE",
"275 1542 CURVE",
"333 1591 OFFCURVE",
"390 1634 OFFCURVE",
"447 1670 CURVE",
"559 1730 OFFCURVE",
"638 1761 OFFCURVE",
"683 1762 CURVE",
"683 1771 OFFCURVE",
"738 1781 OFFCURVE",
"847 1790 CURVE SMOOTH"
);
},
{
closed = 1;
nodes = (
"263 822 LINE SMOOTH",
"263 756 OFFCURVE",
"284 668 OFFCURVE",
"327 558 CURVE",
"352 510 OFFCURVE",
"381 466 OFFCURVE",
"415 426 CURVE",
"494 351 OFFCURVE",
"565 305 OFFCURVE",
"627 290 CURVE",
"627 285 OFFCURVE",
"648 278 OFFCURVE",
"691 270 CURVE",
"691 262 OFFCURVE",
"766 253 OFFCURVE",
"915 242 CURVE",
"1051 258 LINE",
"1086 271 OFFCURVE",
"1112 278 OFFCURVE",
"1127 278 CURVE",
"1140 294 OFFCURVE",
"1157 302 OFFCURVE",
"1179 302 CURVE",
"1247 350 LINE SMOOTH",
"1304 389 OFFCURVE",
"1349 435 OFFCURVE",
"1383 490 CURVE",
"1396 504 OFFCURVE",
"1412 529 OFFCURVE",
"1431 566 CURVE",
"1479 672 OFFCURVE",
"1503 745 OFFCURVE",
"1503 786 CURVE",
"1512 786 OFFCURVE",
"1517 838 OFFCURVE",
"1519 942 CURVE SMOOTH",
"1519 1026 OFFCURVE",
"1511 1090 OFFCURVE",
"1495 1134 CURVE",
"1495 1155 OFFCURVE",
"1448 1274 OFFCURVE",
"1347 1374 CURVE",
"1270 1439 OFFCURVE",
"1191 1480 OFFCURVE",
"1111 1498 CURVE",
"1111 1504 OFFCURVE",
"1083 1511 OFFCURVE",
"1027 1518 CURVE",
"1027 1525 OFFCURVE",
"1011 1529 OFFCURVE",
"979 1530 CURVE SMOOTH",
"819 1530 LINE",
"720 1515 OFFCURVE",
"638 1484 OFFCURVE",
"571 1438 CURVE SMOOTH",
"478 1371 OFFCURVE",
"408 1297 OFFCURVE",
"363 1214 CURVE SMOOTH",
"337 1168 OFFCURVE",
"318 1128 OFFCURVE",
"307 1094 CURVE",
"291 1056 OFFCURVE",
"276 993 OFFCURVE",
"263 906 CURVE"
);
},
{
closed = 1;
nodes = (
"983 1354 LINE",
"1068 1342 OFFCURVE",
"1123 1330 OFFCURVE",
"1147 1318 CURVE",
"1159 1318 OFFCURVE",
"1176 1311 OFFCURVE",
"1199 1298 CURVE",
"1263 1271 OFFCURVE",
"1308 1225 OFFCURVE",
"1335 1158 CURVE",
"1343 1126 LINE",
"1343 1058 LINE",
"1322 964 OFFCURVE",
"1284 896 OFFCURVE",
"1231 854 CURVE",
"1213 831 OFFCURVE",
"1190 814 OFFCURVE",
"1163 802 CURVE",
"1140 782 OFFCURVE",
"1097 759 OFFCURVE",
"1035 734 CURVE",
"999 726 LINE",
"999 722 LINE",
"1046 680 OFFCURVE",
"1101 641 OFFCURVE",
"1163 606 CURVE",
"1195 590 LINE",
"1195 586 OFFCURVE",
"1208 579 OFFCURVE",
"1235 570 CURVE",
"1237 565 OFFCURVE",
"1249 559 OFFCURVE",
"1271 554 CURVE",
"1275 550 LINE",
"1275 542 LINE",
"1227 499 OFFCURVE",
"1166 451 OFFCURVE",
"1091 398 CURVE",
"1087 398 LINE",
"975 479 OFFCURVE",
"878 575 OFFCURVE",
"795 686 CURVE",
"795 690 LINE",
"787 690 LINE",
"783 686 LINE",
"779 686 LINE",
"783 650 LINE",
"769 505 OFFCURVE",
"760 429 OFFCURVE",
"755 422 CURVE",
"747 414 LINE",
"680 425 OFFCURVE",
"624 430 OFFCURVE",
"579 430 CURVE SMOOTH",
"571 430 LINE SMOOTH",
"557 430 OFFCURVE",
"549 434 OFFCURVE",
"547 442 CURVE",
"559 550 LINE",
"555 554 LINE",
"568 627 OFFCURVE",
"575 748 OFFCURVE",
"575 918 CURVE SMOOTH",
"575 1010 OFFCURVE",
"568 1107 OFFCURVE",
"555 1210 CURVE",
"555 1266 LINE SMOOTH",
"555 1277 OFFCURVE",
"580 1291 OFFCURVE",
"631 1306 CURVE",
"631 1311 OFFCURVE",
"658 1318 OFFCURVE",
"711 1326 CURVE",
"711 1334 OFFCURVE",
"790 1343 OFFCURVE",
"947 1354 CURVE"
);
},
{
closed = 1;
nodes = (
"767 1118 LINE",
"778 1081 OFFCURVE",
"783 1022 OFFCURVE",
"783 942 CURVE SMOOTH",
"783 866 LINE",
"791 858 LINE",
"839 858 LINE",
"1014 887 OFFCURVE",
"1095 970 OFFCURVE",
"1095 1078 CURVE",
"1074 1129 OFFCURVE",
"1042 1154 OFFCURVE",
"999 1154 CURVE",
"999 1162 OFFCURVE",
"978 1167 OFFCURVE",
"935 1170 CURVE",
"919 1170 LINE SMOOTH",
"877 1170 OFFCURVE",
"826 1154 OFFCURVE",
"767 1122 CURVE"
);
}
);
width = 1897;
}
);
unicode = 00AE;
},
{
glyphname = Aring;
lastChange = "2014-06-29 20:31:36 +0100";
layers = (
{
layerId = "B727121D-3B30-4656-AEE9-0CFAB48D4F65";
name = Regular;
paths = (
{
closed = 1;
nodes = (
"446 1271 LINE SMOOTH",
"540 1271 OFFCURVE",
"666 1131 OFFCURVE",
"825 850 CURVE",
"965 551 OFFCURVE",
"1036 284 OFFCURVE",
"1036 47 CURVE SMOOTH",
"1036 28 LINE SMOOTH",
"1036 12 OFFCURVE",
"1032 2 OFFCURVE",
"1023 0 CURVE",
"1013 0 LINE SMOOTH",
"965 0 OFFCURVE",
"849 88 OFFCURVE",
"664 266 CURVE",
"470 122 OFFCURVE",
"229 18 OFFCURVE",
"90 18 CURVE SMOOTH",
"84 18 LINE",
"30 30 OFFCURVE",
"3 77 OFFCURVE",
"3 159 CURVE",
"1 159 OFFCURVE",
"0 172 OFFCURVE",
"0 198 CURVE SMOOTH",
"0 365 OFFCURVE",
"62 622 OFFCURVE",
"186 964 CURVE",
"274 1169 OFFCURVE",
"359 1271 OFFCURVE",
"437 1271 CURVE SMOOTH"
);
},
{
closed = 1;
nodes = (
"316 558 LINE SMOOTH",
"316 486 OFFCURVE",
"360 444 OFFCURVE",
"446 432 CURVE",
"465 432 LINE SMOOTH",
"527 432 OFFCURVE",
"577 459 OFFCURVE",
"613 514 CURVE SMOOTH",
"626 535 OFFCURVE",
"632 556 OFFCURVE",
"632 576 CURVE SMOOTH",
"632 586 LINE SMOOTH",
"632 647 OFFCURVE",
"590 692 OFFCURVE",
"508 720 CURVE",
"500 724 OFFCURVE",
"489 726 OFFCURVE",
"474 726 CURVE SMOOTH",
"450 726 LINE SMOOTH",
"388 726 OFFCURVE",
"346 689 OFFCURVE",
"322 617 CURVE",
"317 597 OFFCURVE",
"316 578 OFFCURVE",
"316 561 CURVE SMOOTH"
);
},
{
closed = 1;
nodes = (
"341 1334 LINE SMOOTH",
"341 1299 OFFCURVE",
"362 1279 OFFCURVE",
"404 1273 CURVE",
"413 1273 LINE SMOOTH",
"442 1273 OFFCURVE",
"467 1286 OFFCURVE",
"484 1313 CURVE SMOOTH",
"490 1323 OFFCURVE",
"493 1333 OFFCURVE",
"493 1343 CURVE SMOOTH",
"493 1348 LINE SMOOTH",
"493 1377 OFFCURVE",
"473 1398 OFFCURVE",
"434 1412 CURVE",
"429 1415 OFFCURVE",
"424 1415 OFFCURVE",
"417 1415 CURVE SMOOTH",
"405 1415 LINE SMOOTH",
"375 1415 OFFCURVE",
"355 1398 OFFCURVE",
"343 1363 CURVE",
"341 1353 OFFCURVE",
"341 1344 OFFCURVE",
"341 1335 CURVE SMOOTH"
);
},
{
closed = 1;
nodes = (
"165 1336 OFFCURVE",
"167 1363 OFFCURVE",
"174 1391 CURVE",
"208 1493 OFFCURVE",
"267 1545 OFFCURVE",
"354 1545 CURVE SMOOTH",
"388 1545 LINE SMOOTH",
"409 1545 OFFCURVE",
"425 1542 OFFCURVE",
"436 1537 CURVE",
"552 1497 OFFCURVE",
"611 1434 OFFCURVE",
"611 1347 CURVE SMOOTH",
"611 1333 LINE SMOOTH",
"611 1305 OFFCURVE",
"603 1275 OFFCURVE",
"585 1246 CURVE SMOOTH",
"535 1169 OFFCURVE",
"466 1130 OFFCURVE",
"376 1130 CURVE SMOOTH",
"349 1130 LINE",
"227 1147 OFFCURVE",
"165 1206 OFFCURVE",
"165 1308 CURVE SMOOTH",
"165 1312 LINE SMOOTH"
);
}
);
width = 1540;
}
);
unicode = 00C5;
},
{
glyphname = AE;
lastChange = "2014-06-29 20:32:15 +0100";
layers = (
{
layerId = "B727121D-3B30-4656-AEE9-0CFAB48D4F65";
name = Regular;
paths = (
{
closed = 1;
nodes = (
"504 1436 LINE SMOOTH",
"610 1436 OFFCURVE",
"753 1277 OFFCURVE",
"932 960 CURVE",
"1091 623 OFFCURVE",
"1170 321 OFFCURVE",
"1170 53 CURVE SMOOTH",
"1170 32 LINE SMOOTH",
"1170 14 OFFCURVE",
"1165 3 OFFCURVE",
"1156 0 CURVE",
"1145 0 LINE SMOOTH",
"1091 0 OFFCURVE",
"959 100 OFFCURVE",
"750 301 CURVE",
"530 138 OFFCURVE",
"259 21 OFFCURVE",
"102 21 CURVE SMOOTH",
"95 21 LINE",
"34 34 OFFCURVE",
"4 87 OFFCURVE",
"4 179 CURVE",
"1 179 OFFCURVE",
"0 194 OFFCURVE",
"0 224 CURVE SMOOTH",
"0 413 OFFCURVE",
"70 702 OFFCURVE",
"210 1089 CURVE",
"310 1320 OFFCURVE",
"405 1436 OFFCURVE",
"494 1436 CURVE SMOOTH"
);
},
{
closed = 1;
nodes = (
"357 630 LINE SMOOTH",
"357 549 OFFCURVE",
"406 501 OFFCURVE",
"504 487 CURVE",
"525 487 LINE SMOOTH",
"596 487 OFFCURVE",
"652 518 OFFCURVE",
"693 581 CURVE SMOOTH",
"707 604 OFFCURVE",
"714 628 OFFCURVE",
"714 651 CURVE SMOOTH",
"714 662 LINE SMOOTH",
"714 731 OFFCURVE",
"667 782 OFFCURVE",
"574 813 CURVE",
"565 818 OFFCURVE",
"553 820 OFFCURVE",
"536 820 CURVE SMOOTH",
"508 820 LINE SMOOTH",
"439 820 OFFCURVE",
"391 779 OFFCURVE",
"364 697 CURVE",
"359 674 OFFCURVE",
"357 653 OFFCURVE",
"357 634 CURVE SMOOTH"
);
},
{
closed = 1;
nodes = (
"1060 1413 LINE SMOOTH",
"1275 1413 OFFCURVE",
"1445 1392 OFFCURVE",
"1571 1350 CURVE",
"1592 1319 OFFCURVE",
"1609 1272 OFFCURVE",
"1623 1210 CURVE SMOOTH",
"1630 1181 OFFCURVE",
"1634 1162 OFFCURVE",
"1634 1154 CURVE",
"1627 1150 LINE",
"1532 1150 LINE SMOOTH",
"1336 1150 OFFCURVE",
"1194 1085 OFFCURVE",
"1105 954 CURVE",
"1080 911 OFFCURVE",
"1067 870 OFFCURVE",
"1067 832 CURVE SMOOTH",
"1067 807 OFFCURVE",
"1076 794 OFFCURVE",
"1095 794 CURVE SMOOTH",
"1343 794 LINE SMOOTH",
"1455 794 OFFCURVE",
"1511 787 OFFCURVE",
"1511 773 CURVE",
"1466 585 OFFCURVE",
"1342 516 OFFCURVE",
"1210 465 CURVE",
"1145 444 OFFCURVE",
"1105 432 OFFCURVE",
"1091 430 CURVE",
"1091 426 LINE",
"1128 407 OFFCURVE",
"1251 367 OFFCURVE",
"1459 304 CURVE",
"1590 257 OFFCURVE",
"1655 218 OFFCURVE",
"1655 185 CURVE",
"1671 140 OFFCURVE",
"1679 98 OFFCURVE",
"1679 59 CURVE SMOOTH",
"1679 10 LINE SMOOTH",
"1679 -7 OFFCURVE",
"1576 -19 OFFCURVE",
"1371 -25 CURVE SMOOTH",
"1054 -25 OFFCURVE",
"848 57 OFFCURVE",
"752 220 CURVE",
"729 271 OFFCURVE",
"717 318 OFFCURVE",
"717 360 CURVE SMOOTH",
"717 521 LINE SMOOTH",
"717 566 OFFCURVE",
"718 632 OFFCURVE",
"720 720 CURVE",
"724 720 LINE",
"724 723 OFFCURVE",
"723 724 OFFCURVE",
"720 724 CURVE",
"724 766 LINE",
"724 797 LINE SMOOTH",
"724 800 OFFCURVE",
"725 801 OFFCURVE",
"727 801 CURVE",
"727 803 OFFCURVE",
"726 804 OFFCURVE",
"724 804 CURVE",
"727 822 LINE",
"727 933 OFFCURVE",
"746 1113 OFFCURVE",
"783 1360 CURVE",
"851 1395 OFFCURVE",
"940 1413 OFFCURVE",
"1049 1413 CURVE SMOOTH"
);
}
);
width = 2118;
}
);
unicode = 00C6;
},
{
glyphname = multiply;
layers = (
{
layerId = "B727121D-3B30-4656-AEE9-0CFAB48D4F65";
name = Regular;
paths = (
{
closed = 1;
nodes = (
"507 618 LINE",
"260 371 LINE",
"161 470 LINE",
"408 717 LINE",
"161 965 LINE",
"260 1063 LINE",
"507 816 LINE",
"755 1063 LINE",
"853 964 LINE",
"606 717 LINE",
"853 470 LINE",
"754 371 LINE"
);
}
);
width = 1014;
}
);
unicode = 00D7;
},
{
glyphname = Oslash;
lastChange = "2014-06-18 07:47:23 +0100";
layers = (
{
layerId = "B727121D-3B30-4656-AEE9-0CFAB48D4F65";
name = Regular;
paths = (
{
closed = 1;
nodes = (
"801 1407 LINE",
"812 1409 LINE",
"1115 1409 OFFCURVE",
"1308 1292 OFFCURVE",
"1393 1061 CURVE",
"1410 991 OFFCURVE",
"1422 921 OFFCURVE",
"1428 841 CURVE",
"1428 839 OFFCURVE",
"1428 839 OFFCURVE",
"1427 839 CURVE",
"1428 818 OFFCURVE",
"1428 807 OFFCURVE",
"1428 804 CURVE SMOOTH",
"1428 697 OFFCURVE",
"1422 612 OFFCURVE",
"1410 547 CURVE",
"1410 547 OFFCURVE",
"1410 543 OFFCURVE",
"1416 543 CURVE",
"1347 185 OFFCURVE",
"1181 2 OFFCURVE",
"907 2 CURVE SMOOTH",
"890 2 LINE SMOOTH",
"694 2 OFFCURVE",
"533 67 OFFCURVE",
"398 197 CURVE SMOOTH",
"263 329 OFFCURVE",
"195 553 OFFCURVE",
"195 859 CURVE SMOOTH",
"195 974 OFFCURVE",
"236 1091 OFFCURVE",
"318 1209 CURVE",
"403 1296 OFFCURVE",
"483 1348 OFFCURVE",
"560 1368 CURVE",
"644 1395 OFFCURVE",
"723 1409 OFFCURVE",
"801 1409 CURVE"
);
},
{
closed = 1;
nodes = (
"634 489 LINE SMOOTH",
"634 413 OFFCURVE",
"690 364 OFFCURVE",
"801 334 CURVE",
"834 329 OFFCURVE",
"861 329 OFFCURVE",
"884 329 CURVE SMOOTH",
"886 329 LINE SMOOTH",
"919 329 OFFCURVE",
"957 347 OFFCURVE",
"996 377 CURVE",
"1029 410 OFFCURVE",
"1046 451 OFFCURVE",
"1046 497 CURVE SMOOTH",
"1046 498 LINE SMOOTH",
"1046 560 OFFCURVE",
"1025 612 OFFCURVE",
"962 653 CURVE",
"923 674 OFFCURVE",
"877 686 OFFCURVE",
"844 686 CURVE SMOOTH",
"738 686 OFFCURVE",
"666 624 OFFCURVE",
"634 508 CURVE"
);
},
{
closed = 1;
nodes = (
"950 423 LINE",
"598 2 LINE",
"236 83 LINE",
"768 555 LINE",
"1339 1357 LINE",
"1580 1234 LINE SMOOTH"
);
}
);
width = 1614;
}
);
unicode = 00D8;
},
{
glyphname = aring;
lastChange = "2014-06-29 20:33:54 +0100";
layers = (
{
layerId = "B727121D-3B30-4656-AEE9-0CFAB48D4F65";
name = Regular;
paths = (
{
closed = 1;
nodes = (
"726 881 OFFCURVE",
"827 661 OFFCURVE",
"895 360 CURVE SMOOTH",
"933 200 OFFCURVE",
"952 86 OFFCURVE",
"952 19 CURVE",
"942 14 LINE",
"878 14 OFFCURVE",
"804 58 OFFCURVE",
"720 147 CURVE",
"609 49 OFFCURVE",
"477 0 OFFCURVE",
"322 0 CURVE SMOOTH",
"166 0 OFFCURVE",
"65 71 OFFCURVE",
"19 213 CURVE",
"10 254 OFFCURVE",
"3 303 OFFCURVE",
"0 360 CURVE",
"0 668 OFFCURVE",
"148 876 OFFCURVE",
"445 985 CURVE",
"519 1007 OFFCURVE",
"568 1018 OFFCURVE",
"592 1018 CURVE"
);
},
{
closed = 1;
nodes = (
"218 291 OFFCURVE",
"267 248 OFFCURVE",
"365 237 CURVE",
"428 237 OFFCURVE",
"481 268 OFFCURVE",
"526 331 CURVE",
"540 384 LINE",
"540 458 OFFCURVE",
"488 507 OFFCURVE",
"384 530 CURVE",
"350 530 LINE SMOOTH",
"303 530 OFFCURVE",
"263 502 OFFCURVE",
"232 445 CURVE",
"223 404 OFFCURVE",
"218 378 OFFCURVE",
"218 365 CURVE SMOOTH"
);
},
{
closed = 0;
nodes = (
"435 1113 LINE SMOOTH",
"444 1113 LINE SMOOTH"
);
},
{
closed = 1;
nodes = (
"339 1176 LINE SMOOTH",
"339 1141 OFFCURVE",
"360 1121 OFFCURVE",
"402 1115 CURVE",
"411 1115 LINE SMOOTH",
"440 1115 OFFCURVE",
"465 1128 OFFCURVE",
"482 1155 CURVE SMOOTH",
"488 1165 OFFCURVE",
"491 1175 OFFCURVE",
"491 1185 CURVE SMOOTH",
"491 1190 LINE SMOOTH",
"491 1219 OFFCURVE",
"471 1240 OFFCURVE",
"432 1254 CURVE",
"427 1257 OFFCURVE",
"422 1257 OFFCURVE",
"415 1257 CURVE SMOOTH",
"403 1257 LINE SMOOTH",
"373 1257 OFFCURVE",
"353 1240 OFFCURVE",
"341 1205 CURVE",
"339 1195 OFFCURVE",
"339 1186 OFFCURVE",
"339 1177 CURVE SMOOTH"
);
},
{
closed = 1;
nodes = (
"163 1178 OFFCURVE",
"165 1205 OFFCURVE",
"172 1233 CURVE",
"206 1335 OFFCURVE",
"265 1387 OFFCURVE",
"352 1387 CURVE SMOOTH",
"386 1387 LINE SMOOTH",
"407 1387 OFFCURVE",
"423 1384 OFFCURVE",
"434 1379 CURVE",
"550 1339 OFFCURVE",
"609 1276 OFFCURVE",
"609 1189 CURVE SMOOTH",
"609 1175 LINE SMOOTH",
"609 1147 OFFCURVE",
"601 1117 OFFCURVE",
"583 1088 CURVE SMOOTH",
"533 1011 OFFCURVE",
"464 972 OFFCURVE",
"374 972 CURVE SMOOTH",
"347 972 LINE",
"225 989 OFFCURVE",
"163 1048 OFFCURVE",
"163 1150 CURVE SMOOTH",
"163 1154 LINE SMOOTH"
);
}
);
width = 922;
}
);
unicode = 00E5;
},
{
glyphname = ae;
lastChange = "2014-06-29 20:32:51 +0100";
layers = (
{
layerId = "B727121D-3B30-4656-AEE9-0CFAB48D4F65";
name = Regular;
paths = (
{
closed = 1;
nodes = (
"726 881 OFFCURVE",
"827 661 OFFCURVE",
"895 360 CURVE SMOOTH",
"933 200 OFFCURVE",
"952 86 OFFCURVE",
"952 19 CURVE",
"942 14 LINE",
"878 14 OFFCURVE",
"804 58 OFFCURVE",
"720 147 CURVE",
"609 49 OFFCURVE",
"477 0 OFFCURVE",
"322 0 CURVE SMOOTH",
"166 0 OFFCURVE",
"65 71 OFFCURVE",
"19 213 CURVE",
"10 254 OFFCURVE",
"3 303 OFFCURVE",
"0 360 CURVE",
"0 668 OFFCURVE",
"148 876 OFFCURVE",
"445 985 CURVE",
"519 1007 OFFCURVE",
"568 1018 OFFCURVE",
"592 1018 CURVE"
);
},
{
closed = 1;
nodes = (
"218 291 OFFCURVE",
"267 248 OFFCURVE",
"365 237 CURVE",
"428 237 OFFCURVE",
"481 268 OFFCURVE",
"526 331 CURVE",
"540 384 LINE",
"540 458 OFFCURVE",
"488 507 OFFCURVE",
"384 530 CURVE",
"350 530 LINE SMOOTH",
"303 530 OFFCURVE",
"263 502 OFFCURVE",
"232 445 CURVE",
"223 404 OFFCURVE",
"218 378 OFFCURVE",
"218 365 CURVE SMOOTH"
);
},
{
closed = 1;
nodes = (
"1246 1030 OFFCURVE",
"1360 978 OFFCURVE",
"1417 874 CURVE",
"1455 783 OFFCURVE",
"1474 703 OFFCURVE",
"1474 632 CURVE",
"1218 558 OFFCURVE",
"1090 462 OFFCURVE",
"1090 343 CURVE SMOOTH",
"1090 304 OFFCURVE",
"1118 263 OFFCURVE",
"1175 220 CURVE SMOOTH",
"1208 194 OFFCURVE",
"1298 164 OFFCURVE",
"1445 130 CURVE",
"1445 126 LINE",
"1350 50 OFFCURVE",
"1229 12 OFFCURVE",
"1081 12 CURVE",
"1081 17 LINE",
"1078 17 OFFCURVE",
"1076 15 OFFCURVE",
"1076 12 CURVE",
"956 12 OFFCURVE",
"847 48 OFFCURVE",
"749 121 CURVE",
"645 212 OFFCURVE",
"593 358 OFFCURVE",
"593 557 CURVE SMOOTH",
"593 760 OFFCURVE",
"636 889 OFFCURVE",
"721 945 CURVE SMOOTH",
"761 972 OFFCURVE",
"827 996 OFFCURVE",
"920 1016 CURVE SMOOTH",
"943 1021 LINE",
"943 1016 LINE",
"971 1021 OFFCURVE",
"1015 1026 OFFCURVE",
"1076 1030 CURVE"
);
},
{
closed = 1;
nodes = (
"782 645 OFFCURVE",
"801 608 OFFCURVE",
"839 571 CURVE",
"867 555 OFFCURVE",
"897 547 OFFCURVE",
"929 547 CURVE SMOOTH",
"972 547 OFFCURVE",
"1021 571 OFFCURVE",
"1076 618 CURVE",
"1095 657 OFFCURVE",
"1104 686 OFFCURVE",
"1104 703 CURVE SMOOTH",
"1104 722 LINE",
"1079 804 OFFCURVE",
"1019 845 OFFCURVE",
"924 845 CURVE",
"829 832 OFFCURVE",
"782 778 OFFCURVE",
"782 684 CURVE SMOOTH"
);
}
);
width = 1454;
}
);
unicode = 00E6;
},
{
glyphname = divide;
layers = (
{
layerId = "B727121D-3B30-4656-AEE9-0CFAB48D4F65";
name = Regular;
paths = (
{
closed = 1;
nodes = (
"87 647 LINE",
"87 787 LINE",
"926 787 LINE",
"927 786 LINE",
"927 647 LINE"
);
},
{
closed = 1;
nodes = (
"480 492 LINE",
"490 501 OFFCURVE",
"500 506 OFFCURVE",
"509 506 CURVE SMOOTH",
"518 506 OFFCURVE",
"528 501 OFFCURVE",
"540 490 CURVE",
"620 404 LINE",
"628 393 OFFCURVE",
"632 384 OFFCURVE",
"632 375 CURVE SMOOTH",
"632 365 OFFCURVE",
"627 355 OFFCURVE",
"618 344 CURVE",
"538 256 LINE",
"525 243 OFFCURVE",
"515 236 OFFCURVE",
"509 236 CURVE SMOOTH",
"498 236 OFFCURVE",
"489 241 OFFCURVE",
"480 250 CURVE",
"392 351 LINE",
"385 360 OFFCURVE",
"382 368 OFFCURVE",
"382 377 CURVE SMOOTH",
"382 387 OFFCURVE",
"387 397 OFFCURVE",
"398 408 CURVE SMOOTH"
);
},
{
closed = 1;
nodes = (
"480 1185 LINE",
"490 1194 OFFCURVE",
"500 1199 OFFCURVE",
"509 1199 CURVE SMOOTH",
"518 1199 OFFCURVE",
"528 1194 OFFCURVE",
"540 1183 CURVE",
"620 1097 LINE",
"628 1086 OFFCURVE",
"632 1077 OFFCURVE",
"632 1068 CURVE SMOOTH",
"632 1058 OFFCURVE",
"627 1048 OFFCURVE",
"618 1037 CURVE",
"538 949 LINE",
"525 936 OFFCURVE",
"515 929 OFFCURVE",
"509 929 CURVE SMOOTH",
"498 929 OFFCURVE",
"489 934 OFFCURVE",
"480 943 CURVE",
"392 1044 LINE",
"385 1053 OFFCURVE",
"382 1061 OFFCURVE",
"382 1070 CURVE SMOOTH",
"382 1080 OFFCURVE",
"387 1090 OFFCURVE",
"398 1101 CURVE SMOOTH"
);
}
);
width = 1014;
}
);
unicode = 00F7;
},
{
glyphname = oslash;
lastChange = "2014-06-18 07:45:22 +0100";
layers = (
{
layerId = "B727121D-3B30-4656-AEE9-0CFAB48D4F65";
name = Regular;
paths = (
{
closed = 1;
nodes = (
"345 1006 LINE",
"350 1008 LINE",
"524 1008 OFFCURVE",
"633 924 OFFCURVE",
"680 757 CURVE",
"690 709 OFFCURVE",
"697 658 OFFCURVE",
"702 602 CURVE",
"702 600 OFFCURVE",
"702 599 OFFCURVE",
"700 599 CURVE",
"702 585 OFFCURVE",
"702 577 OFFCURVE",
"702 575 CURVE SMOOTH",
"702 498 OFFCURVE",
"698 437 OFFCURVE",
"690 391 CURVE",
"690 390 OFFCURVE",
"690 389 OFFCURVE",
"693 389 CURVE",
"655 130 OFFCURVE",
"559 0 OFFCURVE",
"404 0 CURVE SMOOTH",
"396 0 LINE SMOOTH",
"284 0 OFFCURVE",
"191 47 OFFCURVE",
"115 140 CURVE SMOOTH",
"38 236 OFFCURVE",
"0 394 OFFCURVE",
"0 614 CURVE SMOOTH",
"0 697 OFFCURVE",
"24 781 OFFCURVE",
"71 864 CURVE",
"119 926 OFFCURVE",
"164 964 OFFCURVE",
"208 979 CURVE",
"255 999 OFFCURVE",
"300 1008 OFFCURVE",
"345 1008 CURVE"
);
},
{
closed = 1;
nodes = (
"250 350 LINE SMOOTH",
"250 296 OFFCURVE",
"282 259 OFFCURVE",
"345 237 CURVE",
"363 236 OFFCURVE",
"378 235 OFFCURVE",
"391 235 CURVE SMOOTH",
"394 235 LINE SMOOTH",
"412 235 OFFCURVE",
"433 246 OFFCURVE",
"455 269 CURVE",
"473 293 OFFCURVE",
"482 322 OFFCURVE",
"482 355 CURVE SMOOTH",
"482 357 LINE SMOOTH",
"482 399 OFFCURVE",
"472 436 OFFCURVE",
"437 467 CURVE",
"414 482 OFFCURVE",
"387 490 OFFCURVE",
"369 490 CURVE SMOOTH",
"309 490 OFFCURVE",
"268 447 OFFCURVE",
"250 362 CURVE"
);
},
{
closed = 1;
nodes = (
"428 303 LINE",
"229 0 LINE",
"24 59 LINE",
"326 395 LINE",
"650 970 LINE",
"787 882 LINE SMOOTH"
);
}
);
width = 1010;
}
);
unicode = 00F8;
},
{
glyphname = dotlessi;
layers = (
{
layerId = "B727121D-3B30-4656-AEE9-0CFAB48D4F65";
name = Regular;
paths = (
{
closed = 1;
nodes = (
"328 223 LINE SMOOTH",
"328 108 OFFCURVE",
"361 50 OFFCURVE",
"428 50 CURVE SMOOTH",
"474 50 LINE",
"474 0 LINE",
"32 0 LINE",
"32 50 LINE",
"78 50 LINE SMOOTH",
"145 50 OFFCURVE",
"178 108 OFFCURVE",
"178 223 CURVE SMOOTH",
"178 655 LINE SMOOTH",
"178 706 OFFCURVE",
"141 732 OFFCURVE",
"67 732 CURVE SMOOTH",
"19 732 LINE",
"19 776 LINE",
"167 822 OFFCURVE",
"254 883 OFFCURVE",
"280 958 CURVE",
"328 958 LINE"
);
}
);
width = 514;
}
);
unicode = 0131;
},
{
glyphname = circumflex;
layers = (
{
layerId = "B727121D-3B30-4656-AEE9-0CFAB48D4F65";
name = Regular;
paths = (
{
closed = 1;
nodes = (
"221 1079 LINE",
"453 1434 LINE",
"571 1434 LINE",
"803 1079 LINE",
"745 1079 LINE",
"512 1295 LINE",
"279 1079 LINE"
);
}
);
width = 1024;
}
);
unicode = 02C6;
},
{
glyphname = caron;
layers = (
{
layerId = "B727121D-3B30-4656-AEE9-0CFAB48D4F65";
name = Regular;
paths = (
{
closed = 1;
nodes = (
"221 1434 LINE",
"279 1434 LINE",
"512 1220 LINE",
"745 1434 LINE",
"803 1434 LINE",
"571 1078 LINE",
"453 1078 LINE"
);
}
);
width = 1024;
}
);
unicode = 02C7;
},
{
glyphname = uni02C9;
layers = (
{
layerId = "B727121D-3B30-4656-AEE9-0CFAB48D4F65";
name = Regular;
paths = (
{
closed = 1;
nodes = (
"254 1195 LINE",
"254 1320 LINE",
"770 1320 LINE",
"770 1195 LINE"
);
}
);
width = 1024;
}
);
unicode = 02C9;
},
{
glyphname = breve;
layers = (
{
layerId = "B727121D-3B30-4656-AEE9-0CFAB48D4F65";
name = Regular;
paths = (
{
closed = 1;
nodes = (
"270 1349 LINE",
"293 1252 OFFCURVE",
"367 1208 OFFCURVE",
"512 1208 CURVE SMOOTH",
"657 1208 OFFCURVE",
"729 1250 OFFCURVE",
"752 1349 CURVE",
"803 1349 LINE",
"776 1172 OFFCURVE",
"676 1079 OFFCURVE",
"512 1079 CURVE SMOOTH",
"349 1079 OFFCURVE",
"247 1173 OFFCURVE",
"219 1349 CURVE"
);
}
);
width = 1024;
}
);
unicode = 02D8;
},
{
glyphname = dotaccent;
layers = (
{
layerId = "B727121D-3B30-4656-AEE9-0CFAB48D4F65";
name = Regular;
paths = (
{
closed = 1;
nodes = (
"491 1361 LINE SMOOTH",
"499 1369 OFFCURVE",
"509 1373 OFFCURVE",
"518 1373 CURVE SMOOTH",
"526 1373 OFFCURVE",
"535 1369 OFFCURVE",
"543 1361 CURVE SMOOTH",
"614 1285 LINE",
"621 1280 OFFCURVE",
"623 1272 OFFCURVE",
"623 1261 CURVE",
"622 1249 OFFCURVE",
"620 1242 OFFCURVE",
"612 1234 CURVE SMOOTH",
"541 1158 LINE",
"533 1151 OFFCURVE",
"528 1146 OFFCURVE",
"525 1145 CURVE",
"522 1143 OFFCURVE",
"520 1142 OFFCURVE",
"518 1142 CURVE SMOOTH",
"505 1142 OFFCURVE",
"496 1145 OFFCURVE",
"491 1153 CURVE",
"416 1240 LINE",
"411 1245 OFFCURVE",
"408 1252 OFFCURVE",
"408 1263 CURVE SMOOTH",
"408 1271 OFFCURVE",
"411 1280 OFFCURVE",
"422 1289 CURVE"
);
}
);
width = 1024;
}
);
unicode = 02D9;
},
{
glyphname = ring;
layers = (
{
layerId = "B727121D-3B30-4656-AEE9-0CFAB48D4F65";
name = Regular;
paths = (
{
closed = 1;
nodes = (
"411 1201 OFFCURVE",
"455 1157 OFFCURVE",
"511 1157 CURVE SMOOTH",
"567 1157 OFFCURVE",
"611 1201 OFFCURVE",
"611 1257 CURVE SMOOTH",
"611 1310 OFFCURVE",
"566 1356 OFFCURVE",
"511 1356 CURVE SMOOTH",
"456 1356 OFFCURVE",
"411 1310 OFFCURVE",
"411 1257 CURVE SMOOTH"
);
},
{
closed = 1;
nodes = (
"335 1357 OFFCURVE",
"412 1434 OFFCURVE",
"511 1434 CURVE SMOOTH",
"612 1434 OFFCURVE",
"690 1356 OFFCURVE",
"690 1257 CURVE SMOOTH",
"690 1157 OFFCURVE",
"612 1079 OFFCURVE",
"511 1079 CURVE SMOOTH",
"412 1079 OFFCURVE",
"335 1157 OFFCURVE",
"335 1257 CURVE SMOOTH"
);
}
);
width = 1024;
}
);
unicode = 02DA;
},
{
glyphname = ogonek;
layers = (
{
layerId = "B727121D-3B30-4656-AEE9-0CFAB48D4F65";
name = Regular;
paths = (
{
closed = 1;
nodes = (
"640 0 LINE",
"545 -83 OFFCURVE",
"490 -159 OFFCURVE",
"490 -232 CURVE SMOOTH",
"490 -295 OFFCURVE",
"529 -335 OFFCURVE",
"590 -335 CURVE SMOOTH",
"643 -335 OFFCURVE",
"682 -315 OFFCURVE",
"709 -271 CURVE",
"737 -287 LINE",
"689 -371 OFFCURVE",
"614 -418 OFFCURVE",
"527 -418 CURVE SMOOTH",
"434 -418 OFFCURVE",
"369 -365 OFFCURVE",
"369 -292 CURVE SMOOTH",
"369 -191 OFFCURVE",
"456 -73 OFFCURVE",
"591 0 CURVE"
);
}
);
width = 1024;
}
);
unicode = 02DB;
},
{
glyphname = tilde;
layers = (
{
layerId = "B727121D-3B30-4656-AEE9-0CFAB48D4F65";
name = Regular;
paths = (
{
closed = 1;
nodes = (
"808 1382 LINE",
"781 1245 OFFCURVE",
"717 1177 OFFCURVE",
"613 1177 CURVE SMOOTH",
"609 1177 LINE SMOOTH",
"576 1177 OFFCURVE",
"538 1185 OFFCURVE",
"496 1200 CURVE SMOOTH",
"452 1216 OFFCURVE",
"414 1224 OFFCURVE",
"382 1224 CURVE SMOOTH",
"330 1224 OFFCURVE",
"304 1200 OFFCURVE",
"288 1132 CURVE",
"234 1132 LINE",
"259 1273 OFFCURVE",
"324 1343 OFFCURVE",
"431 1343 CURVE SMOOTH",
"462 1342 OFFCURVE",
"499 1334 OFFCURVE",
"544 1319 CURVE SMOOTH",
"587 1304 OFFCURVE",
"624 1296 OFFCURVE",
"656 1296 CURVE SMOOTH",
"660 1296 LINE SMOOTH",
"708 1296 OFFCURVE",
"735 1321 OFFCURVE",
"754 1382 CURVE"
);
}
);
width = 1024;
}
);
unicode = 02DC;
},
{
glyphname = hungarumlaut;
layers = (
{
layerId = "B727121D-3B30-4656-AEE9-0CFAB48D4F65";
name = Regular;
paths = (
{
closed = 1;
nodes = (
"217 1079 LINE",
"361 1352 LINE SMOOTH",
"393 1411 OFFCURVE",
"420 1434 OFFCURVE",
"453 1434 CURVE SMOOTH",
"490 1434 OFFCURVE",
"521 1403 OFFCURVE",
"521 1367 CURVE SMOOTH",
"521 1346 OFFCURVE",
"507 1320 OFFCURVE",
"480 1291 CURVE SMOOTH",
"275 1079 LINE"
);
},
{
closed = 1;
nodes = (
"502 1079 LINE",
"646 1352 LINE SMOOTH",
"678 1411 OFFCURVE",
"705 1434 OFFCURVE",
"738 1434 CURVE SMOOTH",
"775 1434 OFFCURVE",
"806 1403 OFFCURVE",
"806 1367 CURVE SMOOTH",
"806 1346 OFFCURVE",
"792 1320 OFFCURVE",
"765 1291 CURVE SMOOTH",
"560 1079 LINE"
);
}
);
width = 1024;
}
);
unicode = 02DD;
},
{
glyphname = endash;
layers = (
{
layerId = "B727121D-3B30-4656-AEE9-0CFAB48D4F65";
name = Regular;
paths = (
{
closed = 1;
nodes = (
"56 419 LINE",
"56 539 LINE",
"1052 539 LINE",
"1052 419 LINE"
);
}
);
width = 1108;
}
);
unicode = 2013;
},
{
glyphname = emdash;
layers = (
{
layerId = "B727121D-3B30-4656-AEE9-0CFAB48D4F65";
name = Regular;
paths = (
{
closed = 1;
nodes = (
"0 419 LINE",
"0 539 LINE",
"2048 539 LINE",
"2048 419 LINE"
);
}
);
width = 2048;
}
);
unicode = 2014;
},
{
glyphname = quoteleft;
layers = (
{
layerId = "B727121D-3B30-4656-AEE9-0CFAB48D4F65";
name = Regular;
paths = (
{
closed = 1;
nodes = (
"319 1016 LINE",
"260 1016 OFFCURVE",
"186 1118 OFFCURVE",
"186 1233 CURVE SMOOTH",
"186 1378 OFFCURVE",
"305 1577 OFFCURVE",
"396 1577 CURVE",
"396 1534 LINE",
"347 1505 OFFCURVE",
"318 1442 OFFCURVE",
"309 1344 CURVE",
"309 1265 OFFCURVE",
"352 1211 OFFCURVE",
"438 1183 CURVE",
"438 1141 LINE"
);
}
);
width = 557;
}
);
unicode = 2018;
},
{
glyphname = quoteright;
layers = (
{
layerId = "B727121D-3B30-4656-AEE9-0CFAB48D4F65";
name = Regular;
paths = (
{
closed = 1;
nodes = (
"238 1577 LINE",
"297 1577 OFFCURVE",
"371 1475 OFFCURVE",
"371 1360 CURVE SMOOTH",
"371 1215 OFFCURVE",
"252 1016 OFFCURVE",
"161 1016 CURVE",
"161 1059 LINE",
"210 1088 OFFCURVE",
"239 1151 OFFCURVE",
"248 1249 CURVE",
"248 1328 OFFCURVE",
"205 1382 OFFCURVE",
"119 1410 CURVE",
"119 1452 LINE"
);
}
);
width = 557;
}
);
unicode = 2019;
},
{
glyphname = quotesinglbase;
layers = (
{
layerId = "B727121D-3B30-4656-AEE9-0CFAB48D4F65";
name = Regular;
paths = (
{
closed = 1;
nodes = (
"238 281 LINE",
"297 281 OFFCURVE",
"371 179 OFFCURVE",
"371 64 CURVE SMOOTH",
"371 -81 OFFCURVE",
"252 -280 OFFCURVE",
"161 -280 CURVE",
"161 -237 LINE",
"210 -208 OFFCURVE",
"239 -145 OFFCURVE",
"248 -47 CURVE",
"248 32 OFFCURVE",
"205 86 OFFCURVE",
"119 114 CURVE",
"119 156 LINE"
);
}
);
width = 557;
}
);
unicode = 201A;
},
{
glyphname = quotedblleft;
layers = (
{
layerId = "B727121D-3B30-4656-AEE9-0CFAB48D4F65";
name = Regular;
paths = (
{
closed = 1;
nodes = (
"319 1016 LINE",
"260 1016 OFFCURVE",
"186 1118 OFFCURVE",
"186 1233 CURVE SMOOTH",
"186 1378 OFFCURVE",
"305 1577 OFFCURVE",
"396 1577 CURVE",
"396 1534 LINE",
"347 1505 OFFCURVE",
"318 1442 OFFCURVE",
"309 1344 CURVE",
"309 1265 OFFCURVE",
"352 1211 OFFCURVE",
"438 1183 CURVE",
"438 1141 LINE"
);
},
{
closed = 1;
nodes = (
"672 1016 LINE",
"613 1016 OFFCURVE",
"539 1118 OFFCURVE",
"539 1233 CURVE SMOOTH",
"539 1378 OFFCURVE",
"658 1577 OFFCURVE",
"749 1577 CURVE",
"749 1534 LINE",
"700 1505 OFFCURVE",
"671 1442 OFFCURVE",
"662 1344 CURVE",
"662 1265 OFFCURVE",
"705 1211 OFFCURVE",
"791 1183 CURVE",
"791 1141 LINE"
);
}
);
width = 910;
}
);
unicode = 201C;
},
{
glyphname = quotedblright;
layers = (
{
layerId = "B727121D-3B30-4656-AEE9-0CFAB48D4F65";
name = Regular;
paths = (
{
closed = 1;
nodes = (
"238 1577 LINE",
"297 1577 OFFCURVE",
"371 1475 OFFCURVE",
"371 1360 CURVE SMOOTH",
"371 1215 OFFCURVE",
"252 1016 OFFCURVE",
"161 1016 CURVE",
"161 1059 LINE",
"210 1088 OFFCURVE",
"239 1151 OFFCURVE",
"248 1249 CURVE",
"248 1328 OFFCURVE",
"205 1382 OFFCURVE",
"119 1410 CURVE",
"119 1452 LINE"
);
},
{
closed = 1;
nodes = (
"591 1577 LINE",
"650 1577 OFFCURVE",
"724 1475 OFFCURVE",
"724 1360 CURVE SMOOTH",
"724 1215 OFFCURVE",
"605 1016 OFFCURVE",
"514 1016 CURVE",
"514 1059 LINE",
"563 1088 OFFCURVE",
"592 1151 OFFCURVE",
"601 1249 CURVE",
"601 1328 OFFCURVE",
"558 1382 OFFCURVE",
"472 1410 CURVE",
"472 1452 LINE"
);
}
);
width = 910;
}
);
unicode = 201D;
},
{
glyphname = quotedblbase;
layers = (
{
layerId = "B727121D-3B30-4656-AEE9-0CFAB48D4F65";
name = Regular;
paths = (
{
closed = 1;
nodes = (
"238 281 LINE",
"297 281 OFFCURVE",
"371 179 OFFCURVE",
"371 64 CURVE SMOOTH",
"371 -81 OFFCURVE",
"252 -280 OFFCURVE",
"161 -280 CURVE",
"161 -237 LINE",
"210 -208 OFFCURVE",
"239 -145 OFFCURVE",
"248 -47 CURVE",
"248 32 OFFCURVE",
"205 86 OFFCURVE",
"119 114 CURVE",
"119 156 LINE"
);
},
{
closed = 1;
nodes = (
"591 281 LINE",
"650 281 OFFCURVE",
"724 179 OFFCURVE",
"724 64 CURVE SMOOTH",
"724 -81 OFFCURVE",
"605 -280 OFFCURVE",
"514 -280 CURVE",
"514 -237 LINE",
"563 -208 OFFCURVE",
"592 -145 OFFCURVE",
"601 -47 CURVE",
"601 32 OFFCURVE",
"558 86 OFFCURVE",
"472 114 CURVE",
"472 156 LINE"
);
}
);
width = 910;
}
);
unicode = 201E;
},
{
glyphname = dagger;
layers = (
{
layerId = "B727121D-3B30-4656-AEE9-0CFAB48D4F65";
name = Regular;
paths = (
{
closed = 1;
nodes = (
"481 1087 OFFCURVE",
"463 1146 OFFCURVE",
"432 1200 CURVE SMOOTH",
"394 1267 OFFCURVE",
"375 1310 OFFCURVE",
"375 1329 CURVE SMOOTH",
"375 1394 OFFCURVE",
"427 1437 OFFCURVE",
"507 1437 CURVE SMOOTH",
"583 1437 OFFCURVE",
"639 1397 OFFCURVE",
"639 1338 CURVE SMOOTH",
"639 1317 OFFCURVE",
"621 1271 OFFCURVE",
"584 1201 CURVE SMOOTH",
"553 1144 OFFCURVE",
"535 1085 OFFCURVE",
"529 1022 CURVE",
"593 1027 OFFCURVE",
"652 1045 OFFCURVE",
"706 1076 CURVE SMOOTH",
"773 1114 OFFCURVE",
"816 1133 OFFCURVE",
"835 1133 CURVE SMOOTH",
"900 1133 OFFCURVE",
"944 1081 OFFCURVE",
"944 1001 CURVE SMOOTH",
"944 925 OFFCURVE",
"904 869 OFFCURVE",
"844 869 CURVE SMOOTH",
"823 869 OFFCURVE",
"777 887 OFFCURVE",
"708 924 CURVE SMOOTH",
"651 955 OFFCURVE",
"592 974 OFFCURVE",
"529 981 CURVE",
"534 864 OFFCURVE",
"571 771 OFFCURVE",
"639 704 CURVE",
"568 397 OFFCURVE",
"531 73 OFFCURVE",
"527 -270 CURVE",
"489 -270 LINE",
"485 73 OFFCURVE",
"447 397 OFFCURVE",
"375 704 CURVE",
"443 771 OFFCURVE",
"480 864 OFFCURVE",
"486 981 CURVE",
"422 974 OFFCURVE",
"363 956 OFFCURVE",
"308 926 CURVE SMOOTH",
"241 888 OFFCURVE",
"198 869 OFFCURVE",
"179 869 CURVE SMOOTH",
"114 869 OFFCURVE",
"71 921 OFFCURVE",
"71 1001 CURVE SMOOTH",
"71 1077 OFFCURVE",
"111 1133 OFFCURVE",
"170 1133 CURVE SMOOTH",
"191 1133 OFFCURVE",
"237 1114 OFFCURVE",
"307 1077 CURVE SMOOTH",
"364 1046 OFFCURVE",
"423 1028 OFFCURVE",
"486 1022 CURVE"
);
}
);
width = 1014;
}
);
unicode = 2020;
},
{
glyphname = daggerdbl;
layers = (
{
layerId = "B727121D-3B30-4656-AEE9-0CFAB48D4F65";
name = Regular;
paths = (
{
closed = 1;
nodes = (
"591 193 OFFCURVE",
"650 212 OFFCURVE",
"707 243 CURVE SMOOTH",
"776 280 OFFCURVE",
"822 298 OFFCURVE",
"843 298 CURVE SMOOTH",
"903 298 OFFCURVE",
"943 242 OFFCURVE",
"943 166 CURVE SMOOTH",
"943 86 OFFCURVE",
"899 34 OFFCURVE",
"834 34 CURVE SMOOTH",
"815 34 OFFCURVE",
"772 53 OFFCURVE",
"705 91 CURVE SMOOTH",
"651 122 OFFCURVE",
"592 140 OFFCURVE",
"528 145 CURVE",
"534 82 OFFCURVE",
"552 23 OFFCURVE",
"583 -34 CURVE SMOOTH",
"620 -104 OFFCURVE",
"638 -150 OFFCURVE",
"638 -171 CURVE SMOOTH",
"638 -230 OFFCURVE",
"582 -270 OFFCURVE",
"506 -270 CURVE SMOOTH",
"426 -270 OFFCURVE",
"374 -227 OFFCURVE",
"374 -162 CURVE SMOOTH",
"374 -143 OFFCURVE",
"393 -100 OFFCURVE",
"431 -33 CURVE SMOOTH",
"462 21 OFFCURVE",
"480 80 OFFCURVE",
"485 145 CURVE",
"422 139 OFFCURVE",
"363 121 OFFCURVE",
"306 90 CURVE SMOOTH",
"236 53 OFFCURVE",
"190 34 OFFCURVE",
"169 34 CURVE SMOOTH",
"110 34 OFFCURVE",
"70 90 OFFCURVE",
"70 166 CURVE SMOOTH",
"70 246 OFFCURVE",
"113 298 OFFCURVE",
"178 298 CURVE SMOOTH",
"197 298 OFFCURVE",
"240 279 OFFCURVE",
"307 241 CURVE SMOOTH",
"362 211 OFFCURVE",
"421 193 OFFCURVE",
"485 186 CURVE",
"479 337 OFFCURVE",
"442 469 OFFCURVE",
"374 584 CURVE",
"442 698 OFFCURVE",
"479 830 OFFCURVE",
"485 981 CURVE",
"421 974 OFFCURVE",
"362 956 OFFCURVE",
"307 926 CURVE SMOOTH",
"240 888 OFFCURVE",
"197 869 OFFCURVE",
"178 869 CURVE SMOOTH",
"113 869 OFFCURVE",
"70 921 OFFCURVE",
"70 1001 CURVE SMOOTH",
"70 1077 OFFCURVE",
"110 1133 OFFCURVE",
"169 1133 CURVE SMOOTH",
"190 1133 OFFCURVE",
"236 1114 OFFCURVE",
"306 1077 CURVE SMOOTH",
"363 1046 OFFCURVE",
"422 1028 OFFCURVE",
"485 1022 CURVE",
"480 1087 OFFCURVE",
"462 1146 OFFCURVE",
"431 1200 CURVE SMOOTH",
"393 1267 OFFCURVE",
"374 1310 OFFCURVE",
"374 1329 CURVE SMOOTH",
"374 1394 OFFCURVE",
"426 1437 OFFCURVE",
"506 1437 CURVE SMOOTH",
"582 1437 OFFCURVE",
"638 1397 OFFCURVE",
"638 1338 CURVE SMOOTH",
"638 1317 OFFCURVE",
"620 1271 OFFCURVE",
"583 1201 CURVE SMOOTH",
"552 1144 OFFCURVE",
"534 1085 OFFCURVE",
"528 1022 CURVE",
"592 1027 OFFCURVE",
"651 1045 OFFCURVE",
"705 1076 CURVE SMOOTH",
"772 1114 OFFCURVE",
"815 1133 OFFCURVE",
"834 1133 CURVE SMOOTH",
"899 1133 OFFCURVE",
"943 1081 OFFCURVE",
"943 1001 CURVE SMOOTH",
"943 925 OFFCURVE",
"903 869 OFFCURVE",
"843 869 CURVE SMOOTH",
"822 869 OFFCURVE",
"776 887 OFFCURVE",
"707 924 CURVE SMOOTH",
"650 955 OFFCURVE",
"591 974 OFFCURVE",
"528 981 CURVE",
"533 830 OFFCURVE",
"570 698 OFFCURVE",
"638 584 CURVE",
"570 469 OFFCURVE",
"533 337 OFFCURVE",
"528 186 CURVE"
);
}
);
width = 1014;
}
);
unicode = 2021;
},
{
glyphname = bullet;
layers = (
{
layerId = "B727121D-3B30-4656-AEE9-0CFAB48D4F65";
name = Regular;
paths = (
{
closed = 1;
nodes = (
"216 882 OFFCURVE",
"349 1013 OFFCURVE",
"513 1013 CURVE SMOOTH",
"676 1013 OFFCURVE",
"808 881 OFFCURVE",
"808 718 CURVE SMOOTH",
"808 555 OFFCURVE",
"674 421 OFFCURVE",
"511 421 CURVE SMOOTH",
"347 421 OFFCURVE",
"216 554 OFFCURVE",
"216 718 CURVE SMOOTH"
);
}
);
width = 1024;
}
);
unicode = 2022;
},
{
glyphname = ellipsis;
layers = (
{
layerId = "B727121D-3B30-4656-AEE9-0CFAB48D4F65";
name = Regular;
paths = (
{
closed = 1;
nodes = (
"227 251 LINE",
"237 260 OFFCURVE",
"247 265 OFFCURVE",
"256 265 CURVE SMOOTH",
"265 265 OFFCURVE",
"275 260 OFFCURVE",
"287 249 CURVE",
"367 163 LINE",
"375 152 OFFCURVE",
"379 143 OFFCURVE",
"379 134 CURVE SMOOTH",
"379 124 OFFCURVE",
"374 114 OFFCURVE",
"365 103 CURVE",
"285 15 LINE",
"272 2 OFFCURVE",
"262 -5 OFFCURVE",
"256 -5 CURVE SMOOTH",
"245 -5 OFFCURVE",
"236 0 OFFCURVE",
"227 9 CURVE",
"139 110 LINE",
"132 119 OFFCURVE",
"129 127 OFFCURVE",
"129 136 CURVE SMOOTH",
"129 146 OFFCURVE",
"134 156 OFFCURVE",
"145 167 CURVE SMOOTH"
);
},
{
closed = 1;
nodes = (
"910 251 LINE",
"920 260 OFFCURVE",
"930 265 OFFCURVE",
"939 265 CURVE SMOOTH",
"948 265 OFFCURVE",
"958 260 OFFCURVE",
"970 249 CURVE",
"1050 163 LINE",
"1058 152 OFFCURVE",
"1062 143 OFFCURVE",
"1062 134 CURVE SMOOTH",
"1062 124 OFFCURVE",
"1057 114 OFFCURVE",
"1048 103 CURVE",
"968 15 LINE",
"955 2 OFFCURVE",
"945 -5 OFFCURVE",
"939 -5 CURVE SMOOTH",
"928 -5 OFFCURVE",
"919 0 OFFCURVE",
"910 9 CURVE",
"822 110 LINE",
"815 119 OFFCURVE",
"812 127 OFFCURVE",
"812 136 CURVE SMOOTH",
"812 146 OFFCURVE",
"817 156 OFFCURVE",
"828 167 CURVE SMOOTH"
);
},
{
closed = 1;
nodes = (
"1593 251 LINE",
"1603 260 OFFCURVE",
"1613 265 OFFCURVE",
"1622 265 CURVE SMOOTH",
"1631 265 OFFCURVE",
"1641 260 OFFCURVE",
"1653 249 CURVE",
"1733 163 LINE",
"1741 152 OFFCURVE",
"1745 143 OFFCURVE",
"1745 134 CURVE SMOOTH",
"1745 124 OFFCURVE",
"1740 114 OFFCURVE",
"1731 103 CURVE",
"1651 15 LINE",
"1638 2 OFFCURVE",
"1628 -5 OFFCURVE",
"1622 -5 CURVE SMOOTH",
"1611 -5 OFFCURVE",
"1602 0 OFFCURVE",
"1593 9 CURVE",
"1505 110 LINE",
"1498 119 OFFCURVE",
"1495 127 OFFCURVE",
"1495 136 CURVE SMOOTH",
"1495 146 OFFCURVE",
"1500 156 OFFCURVE",
"1511 167 CURVE SMOOTH"
);
}
);
width = 2048;
}
);
unicode = 2026;
},
{
glyphname = guilsinglleft;
layers = (
{
layerId = "B727121D-3B30-4656-AEE9-0CFAB48D4F65";
name = Regular;
paths = (
{
closed = 1;
nodes = (
"174 479 LINE",
"516 782 LINE",
"530 782 LINE",
"530 745 LINE",
"325 479 LINE",
"530 213 LINE",
"530 176 LINE",
"516 176 LINE"
);
}
);
width = 631;
}
);
unicode = 2039;
},
{
glyphname = guilsinglright;
layers = (
{
layerId = "B727121D-3B30-4656-AEE9-0CFAB48D4F65";
name = Regular;
paths = (
{
closed = 1;
nodes = (
"115 176 LINE",
"101 176 LINE",
"101 213 LINE",
"306 479 LINE",
"101 745 LINE",
"101 782 LINE",
"115 782 LINE",
"457 479 LINE"
);
}
);
width = 631;
}
);
unicode = 203A;
},
{
glyphname = fraction;
layers = (
{
layerId = "B727121D-3B30-4656-AEE9-0CFAB48D4F65";
name = Regular;
paths = (
{
closed = 1;
nodes = (
"-342 -29 LINE",
"598 1432 LINE",
"682 1432 LINE",
"-256 -29 LINE"
);
}
);
width = 342;
}
);
unicode = 2044;
},
{
glyphname = franc;
layers = (
{
layerId = "B727121D-3B30-4656-AEE9-0CFAB48D4F65";
name = Regular;
paths = (
{
closed = 1;
nodes = (
"247 357 LINE",
"53 357 LINE",
"53 417 LINE",
"247 417 LINE",
"247 1149 LINE SMOOTH",
"247 1306 OFFCURVE",
"213 1384 OFFCURVE",
"144 1384 CURVE SMOOTH",
"48 1384 LINE",
"48 1434 LINE",
"963 1434 LINE",
"1066 1203 LINE",
"1017 1203 LINE",
"978 1324 OFFCURVE",
"914 1385 OFFCURVE",
"827 1385 CURVE SMOOTH",
"511 1384 LINE SMOOTH",
"443 1384 OFFCURVE",
"409 1306 OFFCURVE",
"409 1149 CURVE SMOOTH",
"409 797 LINE",
"770 797 LINE SMOOTH",
"837 797 OFFCURVE",
"870 818 OFFCURVE",
"870 860 CURVE SMOOTH",
"870 918 LINE",
"920 918 LINE",
"920 576 LINE",
"870 576 LINE",
"870 636 LINE SMOOTH",
"870 677 OFFCURVE",
"837 698 OFFCURVE",
"770 698 CURVE SMOOTH",
"409 698 LINE",
"409 417 LINE",
"603 417 LINE",
"603 357 LINE",
"409 357 LINE",
"409 285 LINE SMOOTH",
"409 128 OFFCURVE",
"443 50 OFFCURVE",
"511 50 CURVE SMOOTH",
"608 50 LINE",
"608 0 LINE",
"48 0 LINE",
"48 50 LINE",
"144 50 LINE SMOOTH",
"213 50 OFFCURVE",
"247 128 OFFCURVE",
"247 285 CURVE SMOOTH"
);
}
);
width = 1014;
}
);
unicode = 20A3;
},
{
glyphname = lira;
layers = (
{
layerId = "B727121D-3B30-4656-AEE9-0CFAB48D4F65";
name = Regular;
paths = (
{
closed = 1;
nodes = (
"700 1368 OFFCURVE",
"647 1378 OFFCURVE",
"588 1378 CURVE SMOOTH",
"586 1378 LINE SMOOTH",
"453 1378 OFFCURVE",
"312 1233 OFFCURVE",
"312 1036 CURVE SMOOTH",
"312 1026 OFFCURVE",
"312 1016 OFFCURVE",
"313 1006 CURVE",
"313 935 OFFCURVE",
"324 864 OFFCURVE",
"346 793 CURVE",
"726 793 LINE",
"726 733 LINE",
"366 733 LINE",
"374 713 OFFCURVE",
"383 693 OFFCURVE",
"392 673 CURVE",
"744 673 LINE",
"744 613 LINE",
"423 613 LINE",
"446 571 OFFCURVE",
"458 525 OFFCURVE",
"458 475 CURVE SMOOTH",
"458 368 OFFCURVE",
"404 243 OFFCURVE",
"296 100 CURVE",
"698 100 LINE SMOOTH",
"785 100 OFFCURVE",
"848 144 OFFCURVE",
"887 232 CURVE",
"936 231 LINE",
"833 0 LINE",
"114 0 LINE",
"115 50 LINE",
"240 209 OFFCURVE",
"302 348 OFFCURVE",
"302 468 CURVE SMOOTH",
"302 519 OFFCURVE",
"291 567 OFFCURVE",
"268 611 CURVE",
"266 613 LINE",
"94 613 LINE",
"94 673 LINE",
"237 673 LINE",
"228 694 OFFCURVE",
"219 714 OFFCURVE",
"211 733 CURVE",
"76 733 LINE",
"76 793 LINE",
"189 793 LINE",
"165 864 OFFCURVE",
"153 929 OFFCURVE",
"153 986 CURVE SMOOTH",
"153 1287 OFFCURVE",
"338 1454 OFFCURVE",
"587 1454 CURVE SMOOTH",
"687 1454 OFFCURVE",
"883 1433 OFFCURVE",
"883 1406 CURVE SMOOTH",
"883 1245 LINE",
"825 1245 LINE",
"822 1286 OFFCURVE",
"796 1320 OFFCURVE",
"748 1347 CURVE"
);
}
);
width = 1014;
}
);
unicode = 20A4;
},
{
glyphname = peseta;
layers = (
{
layerId = "B727121D-3B30-4656-AEE9-0CFAB48D4F65";
name = Regular;
paths = (
{
closed = 1;
nodes = (
"409 1384 LINE",
"409 722 LINE",
"411 716 OFFCURVE",
"413 710 OFFCURVE",
"416 705 CURVE",
"471 569 OFFCURVE",
"561 508 OFFCURVE",
"640 508 CURVE SMOOTH",
"647 508 OFFCURVE",
"653 508 OFFCURVE",
"659 509 CURVE",
"750 520 OFFCURVE",
"836 614 OFFCURVE",
"873 761 CURVE SMOOTH",
"888 819 OFFCURVE",
"895 879 OFFCURVE",
"895 940 CURVE SMOOTH",
"895 956 OFFCURVE",
"895 972 OFFCURVE",
"894 987 CURVE SMOOTH",
"885 1142 OFFCURVE",
"824 1294 OFFCURVE",
"736 1350 CURVE SMOOTH",
"699 1373 OFFCURVE",
"661 1385 OFFCURVE",
"624 1385 CURVE SMOOTH",
"617 1385 OFFCURVE",
"610 1385 OFFCURVE",
"603 1384 CURVE"
);
},
{
closed = 1;
nodes = (
"1496 908 LINE",
"1317 908 LINE",
"1317 223 LINE SMOOTH",
"1317 115 OFFCURVE",
"1361 75 OFFCURVE",
"1432 67 CURVE",
"1361 259 LINE",
"1410 260 LINE",
"1483 87 OFFCURVE",
"1558 42 OFFCURVE",
"1651 42 CURVE SMOOTH",
"1658 42 LINE SMOOTH",
"1781 42 OFFCURVE",
"1868 119 OFFCURVE",
"1868 230 CURVE SMOOTH",
"1868 298 OFFCURVE",
"1782 373 OFFCURVE",
"1609 456 CURVE SMOOTH",
"1474 525 OFFCURVE",
"1422 600 OFFCURVE",
"1422 713 CURVE SMOOTH",
"1422 794 OFFCURVE",
"1446 858 OFFCURVE",
"1495 907 CURVE SMOOTH"
);
},
{
closed = 1;
nodes = (
"1039 910 LINE",
"1030 775 OFFCURVE",
"971 623 OFFCURVE",
"850 539 CURVE SMOOTH",
"789 496 OFFCURVE",
"726 475 OFFCURVE",
"660 475 CURVE SMOOTH",
"593 475 OFFCURVE",
"530 496 OFFCURVE",
"469 539 CURVE SMOOTH",
"447 554 OFFCURVE",
"427 571 OFFCURVE",
"409 590 CURVE",
"409 285 LINE SMOOTH",
"409 128 OFFCURVE",
"443 50 OFFCURVE",
"511 50 CURVE SMOOTH",
"608 50 LINE",
"608 0 LINE",
"48 0 LINE",
"48 50 LINE",
"144 50 LINE SMOOTH",
"213 50 OFFCURVE",
"247 128 OFFCURVE",
"247 285 CURVE SMOOTH",
"247 1149 LINE SMOOTH",
"247 1306 OFFCURVE",
"213 1384 OFFCURVE",
"144 1384 CURVE SMOOTH",
"48 1384 LINE",
"48 1434 LINE",
"666 1434 LINE SMOOTH",
"789 1431 OFFCURVE",
"921 1348 OFFCURVE",
"990 1195 CURVE SMOOTH",
"1023 1120 OFFCURVE",
"1040 1041 OFFCURVE",
"1041 958 CURVE",
"1051 958 LINE SMOOTH",
"1195 958 OFFCURVE",
"1267 1076 OFFCURVE",
"1267 1313 CURVE",
"1317 1313 LINE",
"1317 958 LINE",
"1576 958 LINE",
"1604 971 OFFCURVE",
"1641 977 OFFCURVE",
"1686 978 CURVE SMOOTH",
"1688 978 LINE SMOOTH",
"1760 978 OFFCURVE",
"1901 958 OFFCURVE",
"1901 931 CURVE SMOOTH",
"1901 772 LINE",
"1859 772 LINE",
"1854 860 OFFCURVE",
"1756 922 OFFCURVE",
"1660 922 CURVE SMOOTH",
"1575 922 OFFCURVE",
"1519 869 OFFCURVE",
"1519 789 CURVE SMOOTH",
"1519 717 OFFCURVE",
"1597 644 OFFCURVE",
"1754 569 CURVE SMOOTH",
"1917 496 OFFCURVE",
"1967 419 OFFCURVE",
"1967 298 CURVE SMOOTH",
"1967 205 OFFCURVE",
"1939 128 OFFCURVE",
"1884 67 CURVE",
"1816 11 OFFCURVE",
"1740 -18 OFFCURVE",
"1656 -19 CURVE SMOOTH",
"1617 -19 OFFCURVE",
"1582 -15 OFFCURVE",
"1551 -8 CURVE SMOOTH",
"1532 -4 OFFCURVE",
"1514 -2 OFFCURVE",
"1495 -2 CURVE SMOOTH",
"1483 -2 OFFCURVE",
"1471 -3 OFFCURVE",
"1459 -5 CURVE SMOOTH",
"1440 -8 OFFCURVE",
"1421 -10 OFFCURVE",
"1400 -10 CURVE SMOOTH",
"1235 -10 OFFCURVE",
"1180 64 OFFCURVE",
"1169 223 CURVE",
"1168 223 LINE",
"1168 910 LINE"
);
}
);
width = 2028;
}
);
unicode = 20A7;
},
{
glyphname = Euro;
layers = (
{
layerId = "B727121D-3B30-4656-AEE9-0CFAB48D4F65";
name = Regular;
paths = (
{
closed = 1;
nodes = (
"99 462 OFFCURVE",
"73 556 OFFCURVE",
"64 653 CURVE",
"-44 653 LINE",
"-27 713 LINE",
"60 713 LINE",
"60 742 LINE SMOOTH",
"60 753 OFFCURVE",
"60 763 OFFCURVE",
"61 773 CURVE",
"-10 773 LINE",
"7 833 LINE",
"65 833 LINE",
"84 1026 OFFCURVE",
"174 1260 OFFCURVE",
"367 1388 CURVE SMOOTH",
"464 1452 OFFCURVE",
"563 1484 OFFCURVE",
"665 1484 CURVE SMOOTH",
"694 1484 OFFCURVE",
"723 1481 OFFCURVE",
"752 1476 CURVE",
"779 1469 OFFCURVE",
"806 1460 OFFCURVE",
"834 1447 CURVE",
"839 1443 OFFCURVE",
"845 1441 OFFCURVE",
"850 1441 CURVE SMOOTH",
"863 1441 OFFCURVE",
"875 1456 OFFCURVE",
"884 1486 CURVE",
"925 1486 LINE",
"1009 1205 LINE",
"969 1204 LINE",
"936 1293 OFFCURVE",
"890 1353 OFFCURVE",
"831 1382 CURVE SMOOTH",
"802 1397 OFFCURVE",
"775 1407 OFFCURVE",
"750 1414 CURVE",
"750 1417 LINE",
"717 1428 OFFCURVE",
"683 1433 OFFCURVE",
"649 1433 CURVE SMOOTH",
"638 1433 OFFCURVE",
"626 1432 OFFCURVE",
"615 1431 CURVE SMOOTH",
"455 1415 OFFCURVE",
"300 1273 OFFCURVE",
"232 1044 CURVE SMOOTH",
"211 975 OFFCURVE",
"198 904 OFFCURVE",
"193 833 CURVE",
"899 833 LINE",
"882 773 LINE",
"190 773 LINE",
"190 753 OFFCURVE",
"191 733 OFFCURVE",
"192 713 CURVE",
"866 713 LINE",
"849 653 LINE",
"197 653 LINE",
"220 442 OFFCURVE",
"314 224 OFFCURVE",
"473 119 CURVE SMOOTH",
"541 74 OFFCURVE",
"613 51 OFFCURVE",
"689 50 CURVE SMOOTH",
"937 54 OFFCURVE",
"1019 201 OFFCURVE",
"1019 326 CURVE",
"1067 326 LINE",
"1067 183 LINE SMOOTH",
"1067 90 OFFCURVE",
"905 3 OFFCURVE",
"689 0 CURVE SMOOTH",
"448 0 OFFCURVE",
"245 137 OFFCURVE",
"140 372 CURVE SMOOTH"
);
}
);
width = 1014;
}
);
unicode = 20AC;
},
{
glyphname = partialdiff;
layers = (
{
layerId = "B727121D-3B30-4656-AEE9-0CFAB48D4F65";
name = Regular;
paths = (
{
closed = 1;
nodes = (
"232 510 OFFCURVE",
"234 483 OFFCURVE",
"237 458 CURVE SMOOTH",
"256 295 OFFCURVE",
"322 139 OFFCURVE",
"417 63 CURVE SMOOTH",
"460 28 OFFCURVE",
"502 10 OFFCURVE",
"545 10 CURVE SMOOTH",
"549 10 OFFCURVE",
"553 10 OFFCURVE",
"558 11 CURVE",
"651 18 OFFCURVE",
"735 109 OFFCURVE",
"766 261 CURVE SMOOTH",
"777 310 OFFCURVE",
"782 359 OFFCURVE",
"782 410 CURVE SMOOTH",
"782 438 OFFCURVE",
"780 466 OFFCURVE",
"777 495 CURVE SMOOTH",
"758 658 OFFCURVE",
"690 817 OFFCURVE",
"595 892 CURVE SMOOTH",
"552 925 OFFCURVE",
"509 942 OFFCURVE",
"467 942 CURVE SMOOTH",
"456 942 LINE",
"365 935 OFFCURVE",
"280 846 OFFCURVE",
"248 694 CURVE SMOOTH",
"237 638 OFFCURVE",
"232 586 OFFCURVE",
"232 537 CURVE SMOOTH"
);
},
{
closed = 1;
nodes = (
"937 301 OFFCURVE",
"858 129 OFFCURVE",
"722 41 CURVE SMOOTH",
"653 -3 OFFCURVE",
"582 -25 OFFCURVE",
"507 -25 CURVE SMOOTH",
"358 -25 OFFCURVE",
"209 67 OFFCURVE",
"134 226 CURVE SMOOTH",
"96 305 OFFCURVE",
"77 389 OFFCURVE",
"77 477 CURVE SMOOTH",
"77 652 OFFCURVE",
"159 826 OFFCURVE",
"296 913 CURVE SMOOTH",
"365 956 OFFCURVE",
"435 978 OFFCURVE",
"507 978 CURVE SMOOTH",
"580 978 OFFCURVE",
"650 956 OFFCURVE",
"719 913 CURVE SMOOTH",
"738 901 OFFCURVE",
"756 887 OFFCURVE",
"773 872 CURVE",
"661 1185 OFFCURVE",
"449 1387 OFFCURVE",
"213 1404 CURVE",
"213 1459 LINE",
"621 1459 OFFCURVE",
"937 1026 OFFCURVE",
"937 477 CURVE SMOOTH"
);
}
);
width = 1014;
}
);
unicode = 2202;
},
{
glyphname = Delta;
layers = (
{
layerId = "B727121D-3B30-4656-AEE9-0CFAB48D4F65";
name = Regular;
paths = (
{
closed = 1;
nodes = (
"514 1195 LINE",
"108 123 LINE",
"909 123 LINE"
);
},
{
closed = 1;
nodes = (
"547 1434 LINE",
"1073 0 LINE",
"6 0 LINE"
);
}
);
width = 1081;
}
);
unicode = 2206;
},
{
glyphname = product;
layers = (
{
layerId = "B727121D-3B30-4656-AEE9-0CFAB48D4F65";
name = Regular;
paths = (
{
closed = 1;
nodes = (
"511 1384 LINE SMOOTH",
"443 1384 OFFCURVE",
"409 1306 OFFCURVE",
"409 1149 CURVE SMOOTH",
"409 -132 LINE SMOOTH",
"409 -289 OFFCURVE",
"443 -367 OFFCURVE",
"511 -367 CURVE SMOOTH",
"608 -367 LINE",
"608 -418 LINE",
"48 -418 LINE",
"48 -367 LINE",
"144 -367 LINE SMOOTH",
"213 -367 OFFCURVE",
"247 -289 OFFCURVE",
"247 -132 CURVE SMOOTH",
"247 1149 LINE SMOOTH",
"247 1306 OFFCURVE",
"213 1384 OFFCURVE",
"144 1384 CURVE SMOOTH",
"48 1384 LINE",
"48 1434 LINE",
"1467 1434 LINE",
"1467 1384 LINE",
"1370 1384 LINE SMOOTH",
"1302 1384 OFFCURVE",
"1268 1306 OFFCURVE",
"1268 1149 CURVE SMOOTH",
"1268 -132 LINE SMOOTH",
"1268 -289 OFFCURVE",
"1302 -367 OFFCURVE",
"1370 -367 CURVE SMOOTH",
"1467 -367 LINE",
"1467 -417 LINE",
"907 -417 LINE",
"907 -367 LINE",
"1003 -367 LINE SMOOTH",
"1072 -367 OFFCURVE",
"1106 -289 OFFCURVE",
"1106 -132 CURVE SMOOTH",
"1106 1149 LINE SMOOTH",
"1106 1306 OFFCURVE",
"1072 1384 OFFCURVE",
"1003 1384 CURVE SMOOTH"
);
}
);
width = 1515;
}
);
unicode = 220F;
},
{
glyphname = summation;
layers = (
{
layerId = "B727121D-3B30-4656-AEE9-0CFAB48D4F65";
name = Regular;
paths = (
{
closed = 1;
nodes = (
"1059 548 LINE",
"271 -366 LINE",
"906 -366 LINE SMOOTH",
"993 -366 OFFCURVE",
"1056 -305 OFFCURVE",
"1095 -184 CURVE",
"1144 -184 LINE",
"1041 -416 LINE",
"120 -416 LINE",
"120 -366 LINE",
"161 -366 OFFCURVE",
"197 -348 OFFCURVE",
"226 -313 CURVE SMOOTH",
"889 468 LINE",
"226 1327 LINE SMOOTH",
"197 1365 OFFCURVE",
"161 1384 OFFCURVE",
"120 1384 CURVE",
"120 1434 LINE",
"1041 1434 LINE",
"1144 1202 LINE",
"1095 1202 LINE",
"1056 1323 OFFCURVE",
"993 1384 OFFCURVE",
"906 1384 CURVE SMOOTH",
"421 1384 LINE"
);
}
);
width = 1206;
}
);
unicode = 2211;
},
{
glyphname = minus;
layers = (
{
layerId = "B727121D-3B30-4656-AEE9-0CFAB48D4F65";
name = Regular;
paths = (
{
closed = 1;
nodes = (
"87 647 LINE",
"87 787 LINE",
"926 787 LINE",
"927 786 LINE",
"927 647 LINE"
);
}
);
width = 1014;
}
);
unicode = 2212;
},
{
glyphname = radical;
layers = (
{
layerId = "B727121D-3B30-4656-AEE9-0CFAB48D4F65";
name = Regular;
paths = (
{
closed = 1;
nodes = (
"181 0 LINE",
"17 359 LINE",
"91 394 LINE",
"176 209 LINE",
"904 1679 LINE",
"1054 1679 LINE",
"1054 1619 LINE",
"982 1619 LINE"
);
}
);
width = 1014;
}
);
unicode = 221A;
},
{
glyphname = infinity;
layers = (
{
layerId = "B727121D-3B30-4656-AEE9-0CFAB48D4F65";
name = Regular;
paths = (
{
closed = 1;
nodes = (
"429 824 OFFCURVE",
"404 868 OFFCURVE",
"365 888 CURVE SMOOTH",
"334 903 OFFCURVE",
"306 910 OFFCURVE",
"281 910 CURVE SMOOTH",
"273 910 OFFCURVE",
"265 909 OFFCURVE",
"258 908 CURVE",
"193 895 OFFCURVE",
"129 846 OFFCURVE",
"100 779 CURVE SMOOTH",
"87 748 OFFCURVE",
"80 718 OFFCURVE",
"80 689 CURVE SMOOTH",
"80 681 LINE",
"83 617 OFFCURVE",
"118 557 OFFCURVE",
"179 534 CURVE SMOOTH",
"198 527 OFFCURVE",
"219 523 OFFCURVE",
"240 523 CURVE SMOOTH",
"251 523 OFFCURVE",
"262 524 OFFCURVE",
"273 526 CURVE",
"304 533 OFFCURVE",
"335 547 OFFCURVE",
"364 570 CURVE SMOOTH",
"393 592 OFFCURVE",
"418 654 OFFCURVE",
"439 755 CURVE"
);
},
{
closed = 1;
nodes = (
"482 559 OFFCURVE",
"611 486 OFFCURVE",
"683 486 CURVE SMOOTH",
"690 486 OFFCURVE",
"697 487 OFFCURVE",
"704 488 CURVE",
"787 504 OFFCURVE",
"867 560 OFFCURVE",
"906 641 CURVE SMOOTH",
"923 677 OFFCURVE",
"932 713 OFFCURVE",
"932 749 CURVE SMOOTH",
"932 760 LINE",
"929 840 OFFCURVE",
"882 910 OFFCURVE",
"805 937 CURVE SMOOTH",
"780 946 OFFCURVE",
"755 950 OFFCURVE",
"729 950 CURVE SMOOTH",
"714 950 OFFCURVE",
"700 949 OFFCURVE",
"685 946 CURVE",
"596 934 OFFCURVE",
"509 879 OFFCURVE",
"466 687 CURVE"
);
},
{
closed = 1;
nodes = (
"456 850 OFFCURVE",
"463 873 OFFCURVE",
"471 896 CURVE SMOOTH",
"516 1013 OFFCURVE",
"605 1082 OFFCURVE",
"694 1082 CURVE SMOOTH",
"783 1082 OFFCURVE",
"872 1015 OFFCURVE",
"917 899 CURVE SMOOTH",
"940 841 OFFCURVE",
"951 780 OFFCURVE",
"951 717 CURVE SMOOTH",
"951 590 OFFCURVE",
"903 464 OFFCURVE",
"822 400 CURVE SMOOTH",
"781 368 OFFCURVE",
"739 352 OFFCURVE",
"694 352 CURVE SMOOTH",
"605 352 OFFCURVE",
"516 421 OFFCURVE",
"471 537 CURVE",
"463 560 OFFCURVE",
"456 584 OFFCURVE",
"450 607 CURVE",
"447 593 OFFCURVE",
"443 579 OFFCURVE",
"438 566 CURVE SMOOTH",
"402 469 OFFCURVE",
"334 413 OFFCURVE",
"265 413 CURVE SMOOTH",
"196 413 OFFCURVE",
"126 471 OFFCURVE",
"92 568 CURVE SMOOTH",
"75 616 OFFCURVE",
"66 666 OFFCURVE",
"66 717 CURVE SMOOTH",
"66 818 OFFCURVE",
"101 925 OFFCURVE",
"165 980 CURVE SMOOTH",
"197 1007 OFFCURVE",
"230 1021 OFFCURVE",
"265 1021 CURVE SMOOTH",
"334 1021 OFFCURVE",
"402 965 OFFCURVE",
"438 869 CURVE SMOOTH",
"443 855 OFFCURVE",
"447 841 OFFCURVE",
"450 827 CURVE"
);
}
);
width = 1014;
}
);
unicode = 221E;
},
{
glyphname = integral;
layers = (
{
layerId = "B727121D-3B30-4656-AEE9-0CFAB48D4F65";
name = Regular;
paths = (
{
closed = 1;
nodes = (
"-52 -281 OFFCURVE",
"-72 -271 OFFCURVE",
"-72 -252 CURVE SMOOTH",
"-72 -93 LINE",
"-36 -93 LINE",
"-35 -150 OFFCURVE",
"22 -179 OFFCURVE",
"62 -179 CURVE SMOOTH",
"63 -179 LINE SMOOTH",
"172 -179 OFFCURVE",
"207 94 OFFCURVE",
"218 299 CURVE",
"288 1033 LINE",
"296 1095 LINE SMOOTH",
"332 1412 OFFCURVE",
"497 1716 OFFCURVE",
"665 1716 CURVE SMOOTH",
"705 1716 OFFCURVE",
"725 1706 OFFCURVE",
"725 1687 CURVE SMOOTH",
"725 1528 LINE",
"689 1528 LINE",
"688 1585 OFFCURVE",
"630 1614 OFFCURVE",
"591 1614 CURVE SMOOTH",
"544 1614 OFFCURVE",
"505 1562 OFFCURVE",
"475 1459 CURVE SMOOTH",
"445 1355 OFFCURVE",
"429 1234 OFFCURVE",
"426 1095 CURVE",
"353 328 LINE SMOOTH",
"326 20 OFFCURVE",
"153 -281 OFFCURVE",
"-12 -281 CURVE SMOOTH"
);
}
);
width = 665;
}
);
unicode = 222B;
},
{
glyphname = approxequal;
layers = (
{
layerId = "B727121D-3B30-4656-AEE9-0CFAB48D4F65";
name = Regular;
paths = (
{
closed = 1;
nodes = (
"923 897 LINE",
"839 801 OFFCURVE",
"761 774 OFFCURVE",
"685 774 CURVE SMOOTH",
"645 774 OFFCURVE",
"586 790 OFFCURVE",
"508 823 CURVE SMOOTH",
"429 855 OFFCURVE",
"370 871 OFFCURVE",
"331 871 CURVE SMOOTH",
"263 871 OFFCURVE",
"191 843 OFFCURVE",
"94 731 CURVE",
"94 887 LINE",
"179 984 OFFCURVE",
"258 1012 OFFCURVE",
"331 1012 CURVE SMOOTH",
"374 1012 OFFCURVE",
"434 996 OFFCURVE",
"513 963 CURVE SMOOTH",
"591 930 OFFCURVE",
"648 913 OFFCURVE",
"685 913 CURVE SMOOTH",
"754 913 OFFCURVE",
"826 941 OFFCURVE",
"923 1053 CURVE"
);
},
{
closed = 1;
nodes = (
"923 549 LINE",
"839 453 OFFCURVE",
"761 426 OFFCURVE",
"685 426 CURVE SMOOTH",
"645 426 OFFCURVE",
"586 442 OFFCURVE",
"508 475 CURVE SMOOTH",
"429 507 OFFCURVE",
"370 523 OFFCURVE",
"331 523 CURVE SMOOTH",
"263 523 OFFCURVE",
"191 495 OFFCURVE",
"94 383 CURVE",
"94 539 LINE",
"179 636 OFFCURVE",
"258 664 OFFCURVE",
"331 664 CURVE SMOOTH",
"374 664 OFFCURVE",
"434 648 OFFCURVE",
"513 615 CURVE SMOOTH",
"591 582 OFFCURVE",
"648 565 OFFCURVE",
"685 565 CURVE SMOOTH",
"754 565 OFFCURVE",
"826 593 OFFCURVE",
"923 705 CURVE"
);
}
);
width = 1014;
}
);
unicode = 2248;
},
{
glyphname = lessequal;
layers = (
{
layerId = "B727121D-3B30-4656-AEE9-0CFAB48D4F65";
name = Regular;
paths = (
{
closed = 1;
nodes = (
"927 1074 LINE",
"302 715 LINE",
"927 360 LINE",
"927 193 LINE",
"87 674 LINE",
"87 757 LINE",
"927 1241 LINE"
);
},
{
closed = 1;
nodes = (
"87 1 LINE",
"87 141 LINE",
"926 141 LINE",
"927 140 LINE",
"927 1 LINE"
);
}
);
width = 1014;
}
);
unicode = 2264;
},
{
glyphname = greaterequal;
layers = (
{
layerId = "B727121D-3B30-4656-AEE9-0CFAB48D4F65";
name = Regular;
paths = (
{
closed = 1;
nodes = (
"87 1241 LINE",
"927 757 LINE",
"927 674 LINE",
"87 193 LINE",
"87 360 LINE",
"712 715 LINE",
"87 1074 LINE"
);
},
{
closed = 1;
nodes = (
"87 2 LINE",
"87 142 LINE",
"926 142 LINE",
"927 141 LINE",
"927 2 LINE"
);
}
);
width = 1014;
}
);
unicode = 2265;
},
{
glyphname = OOD8;
lastChange = "2014-06-18 07:42:30 +0100";
layers = (
{
layerId = "B727121D-3B30-4656-AEE9-0CFAB48D4F65";
name = Regular;
paths = (
{
closed = 1;
nodes = (
"496 1446 LINE",
"503 1450 LINE",
"753 1450 OFFCURVE",
"911 1329 OFFCURVE",
"978 1088 CURVE",
"993 1020 OFFCURVE",
"1003 946 OFFCURVE",
"1010 866 CURVE",
"1010 863 OFFCURVE",
"1009 862 OFFCURVE",
"1007 862 CURVE",
"1009 841 OFFCURVE",
"1010 830 OFFCURVE",
"1010 827 CURVE SMOOTH",
"1010 716 OFFCURVE",
"1004 628 OFFCURVE",
"992 563 CURVE",
"992 561 OFFCURVE",
"993 560 OFFCURVE",
"996 560 CURVE",
"942 187 OFFCURVE",
"804 0 OFFCURVE",
"581 0 CURVE SMOOTH",
"570 0 LINE SMOOTH",
"409 0 OFFCURVE",
"274 67 OFFCURVE",
"165 201 CURVE SMOOTH",
"55 339 OFFCURVE",
"0 566 OFFCURVE",
"0 883 CURVE SMOOTH",
"0 1003 OFFCURVE",
"34 1123 OFFCURVE",
"102 1242 CURVE",
"171 1332 OFFCURVE",
"236 1387 OFFCURVE",
"299 1408 CURVE",
"366 1436 OFFCURVE",
"431 1450 OFFCURVE",
"496 1450 CURVE"
);
},
{
closed = 1;
nodes = (
"359 503 LINE SMOOTH",
"359 426 OFFCURVE",
"405 372 OFFCURVE",
"496 341 CURVE",
"522 339 OFFCURVE",
"544 338 OFFCURVE",
"563 338 CURVE SMOOTH",
"567 338 LINE SMOOTH",
"592 338 OFFCURVE",
"622 354 OFFCURVE",
"655 387 CURVE",
"680 422 OFFCURVE",
"693 463 OFFCURVE",
"693 510 CURVE SMOOTH",
"693 514 LINE SMOOTH",
"693 574 OFFCURVE",
"667 627 OFFCURVE",
"616 672 CURVE",
"584 693 OFFCURVE",
"556 704 OFFCURVE",
"531 704 CURVE SMOOTH",
"444 704 OFFCURVE",
"386 643 OFFCURVE",
"359 521 CURVE"
);
}
